<?xml version="1.0" encoding="UTF-8" standalone="no"?>
<!-- Created with Inkscape (http://www.inkscape.org/) -->

<svg
   xmlns:dc="http://purl.org/dc/elements/1.1/"
   xmlns:cc="http://creativecommons.org/ns#"
   xmlns:rdf="http://www.w3.org/1999/02/22-rdf-syntax-ns#"
   xmlns:svg="http://www.w3.org/2000/svg"
   xmlns="http://www.w3.org/2000/svg"
   xmlns:sodipodi="http://sodipodi.sourceforge.net/DTD/sodipodi-0.dtd"
   xmlns:inkscape="http://www.inkscape.org/namespaces/inkscape"
   version="1.1"
   id="svg2"
   xml:space="preserve"
   width="404.62933"
   height="166.332"
   viewBox="0 0 404.62933 166.332"
   sodipodi:docname="03-Pyramid-graphics-FIN.svg"
   inkscape:version="0.92.5 (2060ec1f9f, 2020-04-08)"
   style="background-color:white"><metadata
     id="metadata8"><rdf:RDF><cc:Work
         rdf:about=""><dc:format>image/svg+xml</dc:format><dc:type
           rdf:resource="http://purl.org/dc/dcmitype/StillImage" /><dc:title></dc:title></cc:Work></rdf:RDF></metadata><defs
     id="defs6"><clipPath
       clipPathUnits="userSpaceOnUse"
       id="clipPath18"><path
         d="M 0,124.749 H 303.472 V 0 H 0 Z"
         id="path16"
         inkscape:connector-curvature="0" /></clipPath><clipPath
       clipPathUnits="userSpaceOnUse"
       id="clipPath374"><path
         d="M 0,124.749 H 303.472 V 0 H 0 Z"
         id="path372"
         inkscape:connector-curvature="0" /></clipPath></defs><sodipodi:namedview
     pagecolor="#ffffff"
     bordercolor="#666666"
     borderopacity="1"
     objecttolerance="10"
     gridtolerance="10"
     guidetolerance="10"
     inkscape:pageopacity="0"
     inkscape:pageshadow="2"
     inkscape:window-width="640"
     inkscape:window-height="480"
     id="namedview4"
     showgrid="false"
     inkscape:zoom="0.9613737"
     inkscape:cx="232.33025"
     inkscape:cy="83.464352"
     inkscape:window-x="0"
     inkscape:window-y="27"
     inkscape:window-maximized="0"
     inkscape:current-layer="g10" /><g
     id="g10"
     inkscape:groupmode="layer"
     inkscape:label="Pyramid-graphics-FIN"
     transform="matrix(1.3333333,0,0,-1.3333333,0,166.332)"><g
       id="g12"><g
         id="g14"
         clip-path="url(#clipPath18)"><g
           id="g20"
           transform="translate(138.6082,92.1496)"><path
             d="m 0,0 c 0.059,-4.225 0.277,-7.521 2.171,-10.099 2.281,-3.104 6.08,-5.343 10.967,-7.543 4.884,2.204 8.681,4.447 10.96,7.553 1.892,2.578 2.101,5.875 2.162,10.1 0.064,4.385 0.066,8.77 -0.005,13.155 L -0.005,13.155 C -0.083,8.771 -0.061,4.385 0,0"
             style="fill:#ffffff;fill-opacity:1;fill-rule:nonzero;stroke:none"
             id="path22"
             inkscape:connector-curvature="0" /></g><g
           id="g24"
           transform="translate(155.741,100.0559)"><path
             d="m 0,0 c 0,-2.194 -1.779,-3.972 -3.973,-3.972 -2.193,10e-4 -3.971,1.779 -3.971,3.972 0,2.194 1.777,3.972 3.971,3.973 C -1.779,3.973 0,2.195 0,0.001 Z"
             style="fill:#636061;fill-opacity:1;fill-rule:evenodd;stroke:none"
             id="path26"
             inkscape:connector-curvature="0" /></g><g
           id="g28"
           transform="translate(155.741,100.0559)"><path
             d="m 0,0 c 0,-2.194 -1.779,-3.972 -3.973,-3.972 -2.193,10e-4 -3.971,1.779 -3.971,3.972 0,2.194 1.777,3.972 3.971,3.973 C -1.779,3.973 0,2.195 0,0.001 Z"
             style="fill:none;stroke:#4e4b4c;stroke-width:0.329;stroke-linecap:butt;stroke-linejoin:miter;stroke-miterlimit:14.39000034;stroke-dasharray:none;stroke-opacity:1"
             id="path30"
             inkscape:connector-curvature="0" /></g><g
           id="g32"
           transform="translate(150.0012,100.551)"><path
             d="M 0,0 C 0.015,0.159 0.007,0.457 -0.067,0.593 -0.092,0.639 -0.154,0.692 -0.202,0.69 -0.25,0.687 -0.314,0.672 -0.337,0.625 -0.357,0.583 -0.371,0.49 -0.366,0.442 c 0.007,-0.067 0.077,-0.205 0.077,-0.205 0,0 -0.252,0.057 -0.337,0.13 -0.084,0.071 -0.175,0.208 -0.202,0.323 -0.009,0.039 -0.046,0.166 0,0.319 0.026,0.089 0.106,0.208 0.167,0.267 0.161,0.154 0.472,0.11 0.536,0.071 C -0.041,1.296 0.062,1.188 0.097,1.088 0.124,1.011 0.179,0.782 0.193,0.701 0.221,0.534 0.229,0.471 0.241,0.302 0.25,0.186 0.272,0.082 0.25,-0.032 0.239,-0.093 0.224,-0.234 0.192,-0.327 0.16,-0.42 0.11,-0.465 0.067,-0.506 c -0.087,-0.084 -0.365,-0.13 -0.365,-0.13 0,0 0.153,0.217 0.192,0.313 C -0.059,-0.209 -0.012,-0.125 0,0"
             style="fill:#e3e3e3;fill-opacity:1;fill-rule:evenodd;stroke:none"
             id="path34"
             inkscape:connector-curvature="0" /></g><g
           id="g36"
           transform="translate(150.6843,100.551)"><path
             d="M 0,0 C -0.015,0.159 -0.007,0.457 0.067,0.593 0.093,0.639 0.154,0.692 0.203,0.69 0.25,0.687 0.315,0.672 0.337,0.625 0.358,0.583 0.371,0.49 0.366,0.442 0.359,0.375 0.289,0.237 0.289,0.237 c 0,0 0.252,0.057 0.337,0.13 C 0.71,0.438 0.802,0.575 0.829,0.69 0.838,0.729 0.874,0.856 0.828,1.009 0.802,1.098 0.723,1.217 0.661,1.276 0.5,1.43 0.189,1.386 0.125,1.347 0.041,1.296 -0.062,1.188 -0.096,1.088 -0.123,1.011 -0.179,0.782 -0.192,0.701 -0.22,0.534 -0.229,0.471 -0.241,0.302 -0.249,0.186 -0.272,0.082 -0.25,-0.032 c 0.011,-0.061 0.026,-0.202 0.058,-0.295 0.032,-0.093 0.082,-0.138 0.125,-0.179 0.087,-0.084 0.366,-0.13 0.366,-0.13 0,0 -0.153,0.217 -0.193,0.313 C 0.059,-0.209 0.012,-0.125 0,0"
             style="fill:#e3e3e3;fill-opacity:1;fill-rule:evenodd;stroke:none"
             id="path38"
             inkscape:connector-curvature="0" /></g><g
           id="g40"
           transform="translate(150.9436,99.9333)"><path
             d="M 0,0 -0.074,0.001 -0.309,0.084 -0.591,0.362 -0.8,0.14 -0.941,0.065 -1.102,0.005 -1.209,-0.003 c 0,0 0.189,0.143 0.255,0.223 0.047,0.057 0.094,0.148 0.125,0.218 0.053,0.12 0.135,0.42 0.138,0.422 l 0.06,0.01 0.115,-0.01 c 0,0 0.082,-0.3 0.135,-0.421 C -0.35,0.37 -0.303,0.279 -0.256,0.222 -0.19,0.141 0,0 0,0"
             style="fill:#c4c3c3;fill-opacity:1;fill-rule:evenodd;stroke:none"
             id="path42"
             inkscape:connector-curvature="0" /></g><g
           id="g44"
           transform="translate(150.9812,100.7956)"><path
             d="M 0,0 C 0,0 0.143,0.067 0.186,0.122 0.231,0.18 0.262,0.283 0.276,0.358 0.286,0.416 0.261,0.536 0.237,0.588 0.202,0.667 0.158,0.711 0.083,0.739 0.032,0.757 -0.046,0.76 -0.096,0.739 -0.148,0.717 -0.222,0.666 -0.256,0.617 -0.309,0.542 -0.339,0.458 -0.359,0.366 -0.371,0.309 -0.398,0.137 -0.397,0.079 c 0.001,-0.052 0.006,-0.215 0.006,-0.215 l 0.096,-0.179 0.003,0.007 L -0.3,-0.01 V 0.114 L -0.25,0.307 -0.167,0.432 -0.07,0.448 0.023,0.396 0.063,0.283 0.056,0.146 Z"
             style="fill:#c4c3c3;fill-opacity:1;fill-rule:evenodd;stroke:none"
             id="path46"
             inkscape:connector-curvature="0" /></g><g
           id="g48"
           transform="translate(149.7048,100.7961)"><path
             d="m 0,0 c 0,0 -0.143,0.067 -0.186,0.122 -0.045,0.058 -0.076,0.161 -0.089,0.236 -0.011,0.058 0.014,0.178 0.038,0.23 0.035,0.078 0.079,0.123 0.154,0.151 0.051,0.018 0.129,0.021 0.179,0 C 0.149,0.717 0.222,0.666 0.257,0.617 0.309,0.542 0.339,0.457 0.359,0.366 0.372,0.309 0.399,0.137 0.397,0.079 0.397,0.027 0.391,-0.137 0.391,-0.137 L 0.295,-0.316 0.292,-0.308 0.3,-0.01 V 0.114 L 0.25,0.307 0.167,0.432 0.07,0.448 -0.023,0.396 -0.063,0.283 -0.056,0.146 Z"
             style="fill:#c4c3c3;fill-opacity:1;fill-rule:evenodd;stroke:none"
             id="path50"
             inkscape:connector-curvature="0" /></g><g
           id="g52"
           transform="translate(150.0012,100.551)"><path
             d="M 0,0 C 0.015,0.159 0.007,0.457 -0.067,0.593 -0.092,0.639 -0.154,0.692 -0.202,0.69 -0.25,0.687 -0.314,0.672 -0.337,0.625 -0.357,0.583 -0.371,0.49 -0.366,0.442 c 0.007,-0.067 0.077,-0.205 0.077,-0.205 0,0 -0.252,0.057 -0.337,0.13 -0.084,0.071 -0.175,0.208 -0.202,0.323 -0.009,0.039 -0.046,0.166 0,0.319 0.026,0.089 0.106,0.208 0.167,0.267 0.161,0.154 0.472,0.11 0.536,0.071 C -0.041,1.296 0.062,1.188 0.097,1.088 0.124,1.011 0.179,0.782 0.193,0.701 0.221,0.534 0.229,0.471 0.241,0.302 0.25,0.186 0.272,0.082 0.25,-0.032 0.239,-0.093 0.224,-0.234 0.192,-0.327 0.16,-0.42 0.11,-0.465 0.067,-0.506 c -0.087,-0.084 -0.365,-0.13 -0.365,-0.13 0,0 0.153,0.217 0.192,0.313 C -0.059,-0.209 -0.012,-0.125 0,0 Z"
             style="fill:none;stroke:#787676;stroke-width:0.074;stroke-linecap:butt;stroke-linejoin:miter;stroke-miterlimit:4;stroke-dasharray:none;stroke-opacity:1"
             id="path54"
             inkscape:connector-curvature="0" /></g><g
           id="g56"
           transform="translate(150.6843,100.551)"><path
             d="M 0,0 C -0.015,0.159 -0.007,0.457 0.067,0.593 0.093,0.639 0.154,0.692 0.203,0.69 0.25,0.687 0.315,0.672 0.337,0.625 0.358,0.583 0.371,0.49 0.366,0.442 0.359,0.375 0.289,0.237 0.289,0.237 c 0,0 0.252,0.057 0.337,0.13 C 0.71,0.438 0.802,0.575 0.829,0.69 0.838,0.729 0.874,0.856 0.828,1.009 0.802,1.098 0.723,1.217 0.661,1.276 0.5,1.43 0.189,1.386 0.125,1.347 0.041,1.296 -0.062,1.188 -0.096,1.088 -0.123,1.011 -0.179,0.782 -0.192,0.701 -0.22,0.534 -0.229,0.471 -0.241,0.302 -0.249,0.186 -0.272,0.082 -0.25,-0.032 c 0.011,-0.061 0.026,-0.202 0.058,-0.295 0.032,-0.093 0.082,-0.138 0.125,-0.179 0.087,-0.084 0.366,-0.13 0.366,-0.13 0,0 -0.153,0.217 -0.193,0.313 C 0.059,-0.209 0.012,-0.125 0,0 Z"
             style="fill:none;stroke:#787676;stroke-width:0.074;stroke-linecap:butt;stroke-linejoin:miter;stroke-miterlimit:4;stroke-dasharray:none;stroke-opacity:1"
             id="path58"
             inkscape:connector-curvature="0" /></g><g
           id="g60"
           transform="translate(149.3191,101.2053)"><path
             d="M 0,0 C 0,0 0.012,0.11 0.023,0.165 0.037,0.23 0.067,0.322 0.111,0.368 0.159,0.417 0.23,0.455 0.293,0.466 0.349,0.477 0.427,0.476 0.481,0.46 0.523,0.448 0.574,0.413 0.611,0.388 0.639,0.369 0.699,0.315 0.699,0.315 c 0,0 -0.11,0.194 -0.182,0.244 C 0.446,0.606 0.33,0.626 0.247,0.624 0.187,0.623 0.121,0.589 0.07,0.552 0.011,0.508 -0.053,0.417 -0.076,0.342 -0.093,0.288 -0.091,0.206 -0.076,0.151 -0.061,0.093 0,0 0,0"
             style="fill:#f0f0f0;fill-opacity:1;fill-rule:evenodd;stroke:none"
             id="path62"
             inkscape:connector-curvature="0" /></g><g
           id="g64"
           transform="translate(150.846,101.6784)"><path
             d="m 0,0 c 0,0 0.149,0.027 0.211,0.013 0.078,-0.018 0.179,-0.07 0.235,-0.131 0.049,-0.053 0.106,-0.224 0.106,-0.224 0,0 0.005,0.179 -0.018,0.25 C 0.521,-0.049 0.489,0.003 0.458,0.033 0.411,0.078 0.333,0.13 0.27,0.131 0.237,0.132 0.163,0.134 0.118,0.111 0.042,0.072 0,0 0,0"
             style="fill:#f0f0f0;fill-opacity:1;fill-rule:evenodd;stroke:none"
             id="path66"
             inkscape:connector-curvature="0" /></g><g
           id="g68"
           transform="translate(150.3411,99.3752)"><path
             d="M 0,0 C 0,0 0.225,0.207 0.262,0.44 0.296,0.65 0.146,0.896 0.135,0.995 0.09,1.391 0.186,1.918 0.195,1.961 0.229,2.133 0.272,2.206 0.295,2.262 0.312,2.302 0.359,2.383 0.406,2.46 0.433,2.505 0.494,2.588 0.524,2.673 0.557,2.763 0.56,2.854 0.56,2.902 0.561,2.985 0.547,3.056 0.527,3.124 0.508,3.188 0.447,3.292 0.359,3.353 0.264,3.418 0.187,3.47 0.158,3.491 0.061,3.56 0.001,3.785 0,3.785 -0.001,3.785 -0.061,3.56 -0.157,3.491 -0.187,3.47 -0.26,3.418 -0.355,3.353 -0.444,3.292 -0.504,3.188 -0.523,3.124 -0.543,3.056 -0.557,2.985 -0.556,2.902 -0.556,2.854 -0.553,2.763 -0.521,2.673 -0.49,2.588 -0.43,2.505 -0.402,2.46 -0.355,2.383 -0.308,2.302 -0.292,2.262 -0.269,2.206 -0.225,2.133 -0.191,1.961 -0.182,1.918 -0.086,1.391 -0.132,0.995 -0.143,0.896 -0.296,0.65 -0.262,0.44 -0.225,0.207 0,0 0,0"
             style="fill:#e3e3e3;fill-opacity:1;fill-rule:evenodd;stroke:none"
             id="path70"
             inkscape:connector-curvature="0" /></g><g
           id="g72"
           transform="translate(150.3411,99.3752)"><path
             d="M 0,0 V 3.754"
             style="fill:none;stroke:#b0afaf;stroke-width:0.074;stroke-linecap:butt;stroke-linejoin:miter;stroke-miterlimit:4;stroke-dasharray:none;stroke-opacity:1"
             id="path74"
             inkscape:connector-curvature="0" /></g><g
           id="g76"
           transform="translate(150.3479,99.3825)"><path
             d="M 0,0 0.184,0.229 0.254,0.379 0.24,0.584 0.19,0.797 0.113,0.987 V 1.295 L 0.141,1.603 0.177,1.942 0.254,2.211 0.381,2.408 0.487,2.613 0.529,2.724 0.551,2.921 0.522,3.111 0.433,3.271 0.261,3.403 c 0,0 0.102,-0.128 0.169,-0.249 C 0.466,3.09 0.465,3.011 0.466,2.992 0.469,2.914 0.464,2.878 0.445,2.803 0.427,2.733 0.39,2.657 0.353,2.598 0.312,2.531 0.238,2.457 0.205,2.384 0.157,2.281 0.125,2.127 0.106,2.013 0.083,1.873 0.079,1.682 0.071,1.54 0.062,1.396 0.039,1.202 0.049,1.058 0.056,0.966 0.091,0.838 0.106,0.758 0.116,0.703 0.142,0.632 0.148,0.577 0.154,0.522 0.155,0.449 0.148,0.395 0.141,0.334 0.12,0.254 0.099,0.198 0.076,0.135 0,0 0,0"
             style="fill:#c4c3c3;fill-opacity:1;fill-rule:evenodd;stroke:none"
             id="path78"
             inkscape:connector-curvature="0" /></g><g
           id="g80"
           transform="translate(150.1008,99.7302)"><path
             d="M 0,0 C 0,0 0.004,0.123 0.014,0.174 0.028,0.245 0.062,0.334 0.085,0.402 0.106,0.467 0.15,0.548 0.163,0.616 0.19,0.764 0.185,0.97 0.177,1.121 0.171,1.233 0.141,1.38 0.127,1.492 0.116,1.58 0.095,1.716 0.071,1.8 0.044,1.89 0.001,2.004 -0.042,2.084 -0.08,2.153 -0.13,2.22 -0.176,2.281 -0.212,2.329 -0.311,2.424 -0.311,2.424 L -0.297,2.418 -0.281,2.333 -0.216,2.212 -0.151,2.08 -0.043,1.893 0.027,1.693 0.065,1.481 0.098,1.192 0.114,0.902 V 0.63 L 0.054,0.491 -0.016,0.28 -0.038,0.104 Z"
             style="fill:#c4c3c3;fill-opacity:1;fill-rule:evenodd;stroke:none"
             id="path82"
             inkscape:connector-curvature="0" /></g><g
           id="g84"
           transform="translate(150.3411,99.3752)"><path
             d="M 0,0 C 0,0 0.225,0.207 0.262,0.44 0.296,0.65 0.146,0.896 0.135,0.995 0.09,1.391 0.186,1.918 0.195,1.961 0.229,2.133 0.272,2.206 0.295,2.262 0.312,2.302 0.359,2.383 0.406,2.46 0.433,2.505 0.494,2.588 0.524,2.673 0.557,2.763 0.56,2.854 0.56,2.902 0.561,2.985 0.547,3.056 0.527,3.124 0.508,3.188 0.447,3.292 0.359,3.353 0.264,3.418 0.187,3.47 0.158,3.491 0.061,3.56 0,3.785 0,3.785 0,3.785 -0.061,3.56 -0.157,3.491 -0.187,3.47 -0.26,3.418 -0.355,3.353 -0.444,3.292 -0.504,3.188 -0.523,3.124 -0.543,3.056 -0.557,2.985 -0.556,2.902 -0.556,2.854 -0.553,2.763 -0.521,2.673 -0.49,2.588 -0.43,2.505 -0.402,2.46 -0.355,2.383 -0.308,2.302 -0.292,2.262 -0.269,2.206 -0.225,2.133 -0.191,1.961 -0.182,1.918 -0.086,1.391 -0.132,0.995 -0.143,0.896 -0.296,0.65 -0.262,0.44 -0.225,0.207 0,0 0,0 Z"
             style="fill:none;stroke:#787676;stroke-width:0.066;stroke-linecap:butt;stroke-linejoin:miter;stroke-miterlimit:4;stroke-dasharray:none;stroke-opacity:1"
             id="path86"
             inkscape:connector-curvature="0" /></g><g
           id="g88"
           transform="translate(150.2166,101.7736)"><path
             d="m 0,0 0.019,0.971 c 0,0 -0.108,-0.091 -0.154,-0.129 C -0.17,0.812 -0.229,0.787 -0.251,0.745 -0.3,0.648 -0.322,0.542 -0.28,0.442 -0.255,0.383 -0.166,0.307 -0.125,0.259 -0.072,0.194 0,0 0,0"
             style="fill:#f0f0f0;fill-opacity:1;fill-rule:evenodd;stroke:none"
             id="path90"
             inkscape:connector-curvature="0" /></g><g
           id="g92"
           transform="translate(150.4382,101.925)"><path
             d="M 0,0 V 0.701 C 0,0.701 0.034,0.627 0.058,0.604 0.077,0.585 0.116,0.58 0.135,0.561 0.163,0.533 0.195,0.483 0.203,0.442 0.212,0.387 0.198,0.308 0.174,0.259 0.153,0.217 0.093,0.189 0.067,0.151 0.04,0.11 0,0 0,0"
             style="fill:#f0f0f0;fill-opacity:1;fill-rule:evenodd;stroke:none"
             id="path94"
             inkscape:connector-curvature="0" /></g><g
           id="g96"
           transform="translate(150.2805,99.6804)"><path
             d="m 0,0 c -0.008,0.094 -0.006,0.313 -0.006,0.313 0,0 -0.072,-0.118 -0.083,-0.171 -0.007,-0.029 -0.013,-0.09 -0.007,-0.118 0.015,-0.065 0.113,-0.197 0.113,-0.197 0,0 -0.013,0.13 -0.017,0.173"
             style="fill:#f0f0f0;fill-opacity:1;fill-rule:evenodd;stroke:none"
             id="path98"
             inkscape:connector-curvature="0" /></g><g
           id="g100"
           transform="translate(150.8469,100.6447)"><path
             d="M 0,0 -0.108,0.168 H -0.899 L -1.008,0 -0.899,-0.167 h 0.791 z"
             style="fill:#e3e3e3;fill-opacity:1;fill-rule:evenodd;stroke:none"
             id="path102"
             inkscape:connector-curvature="0" /></g><g
           id="g104"
           transform="translate(149.8982,100.7146)"><path
             d="M 0,0 0.897,-0.005 0.831,0.099 0.047,0.101 Z"
             style="fill:#f0f0f0;fill-opacity:1;fill-rule:evenodd;stroke:none"
             id="path106"
             inkscape:connector-curvature="0" /></g><g
           id="g108"
           transform="translate(150.7913,100.573)"><path
             d="m 0,0 -0.896,0.006 0.065,-0.105 0.784,-0.002 z"
             style="fill:#c4c3c3;fill-opacity:1;fill-rule:evenodd;stroke:none"
             id="path110"
             inkscape:connector-curvature="0" /></g><g
           id="g112"
           transform="translate(150.8469,100.6447)"><path
             d="M 0,0 -0.108,0.168 H -0.899 L -1.008,0 -0.899,-0.167 h 0.791 z"
             style="fill:none;stroke:#787676;stroke-width:0.074;stroke-linecap:butt;stroke-linejoin:miter;stroke-miterlimit:4;stroke-dasharray:none;stroke-opacity:1"
             id="path114"
             inkscape:connector-curvature="0" /></g><g
           id="g116"
           transform="translate(152.8533,100.551)"><path
             d="M 0,0 C 0.015,0.159 0.007,0.457 -0.067,0.593 -0.093,0.639 -0.154,0.692 -0.202,0.69 -0.25,0.687 -0.315,0.672 -0.337,0.625 -0.358,0.583 -0.371,0.49 -0.366,0.442 c 0.007,-0.067 0.077,-0.205 0.077,-0.205 0,0 -0.252,0.057 -0.337,0.13 -0.084,0.071 -0.176,0.208 -0.203,0.323 -0.009,0.039 -0.045,0.166 0.001,0.319 0.026,0.089 0.105,0.208 0.167,0.267 0.161,0.154 0.472,0.11 0.536,0.071 C -0.041,1.296 0.062,1.188 0.096,1.088 0.123,1.011 0.179,0.782 0.192,0.701 0.22,0.534 0.229,0.471 0.241,0.302 0.249,0.186 0.272,0.082 0.25,-0.032 0.239,-0.093 0.224,-0.234 0.192,-0.327 0.16,-0.42 0.11,-0.465 0.067,-0.506 c -0.087,-0.084 -0.366,-0.13 -0.366,-0.13 0,0 0.153,0.217 0.193,0.313 C -0.059,-0.209 -0.012,-0.125 0,0"
             style="fill:#e3e3e3;fill-opacity:1;fill-rule:evenodd;stroke:none"
             id="path118"
             inkscape:connector-curvature="0" /></g><g
           id="g120"
           transform="translate(153.5364,100.551)"><path
             d="M 0,0 C -0.015,0.159 -0.007,0.457 0.067,0.593 0.092,0.639 0.154,0.692 0.202,0.69 0.25,0.687 0.314,0.672 0.337,0.625 0.357,0.583 0.371,0.49 0.366,0.442 0.359,0.375 0.289,0.237 0.289,0.237 c 0,0 0.252,0.057 0.337,0.13 0.084,0.071 0.175,0.208 0.202,0.323 0.009,0.039 0.046,0.166 0,0.319 C 0.802,1.098 0.722,1.217 0.661,1.276 0.5,1.43 0.189,1.386 0.125,1.347 0.041,1.296 -0.062,1.188 -0.097,1.088 -0.124,1.011 -0.179,0.782 -0.193,0.701 -0.221,0.534 -0.229,0.471 -0.241,0.302 -0.25,0.186 -0.272,0.082 -0.25,-0.032 c 0.011,-0.061 0.026,-0.202 0.058,-0.295 0.032,-0.093 0.082,-0.138 0.125,-0.179 0.087,-0.084 0.365,-0.13 0.365,-0.13 0,0 -0.153,0.217 -0.192,0.313 C 0.059,-0.209 0.012,-0.125 0,0"
             style="fill:#e3e3e3;fill-opacity:1;fill-rule:evenodd;stroke:none"
             id="path122"
             inkscape:connector-curvature="0" /></g><g
           id="g124"
           transform="translate(153.7952,99.9333)"><path
             d="M 0,0 -0.073,0.001 -0.309,0.084 -0.591,0.362 -0.799,0.14 -0.94,0.065 -1.102,0.005 -1.209,-0.003 c 0,0 0.189,0.143 0.255,0.223 0.047,0.057 0.095,0.148 0.125,0.218 0.053,0.12 0.135,0.42 0.138,0.422 l 0.06,0.01 0.116,-0.01 c 0,0 0.081,-0.3 0.134,-0.421 C -0.35,0.37 -0.302,0.279 -0.255,0.222 -0.19,0.141 0,0 0,0"
             style="fill:#c4c3c3;fill-opacity:1;fill-rule:evenodd;stroke:none"
             id="path126"
             inkscape:connector-curvature="0" /></g><g
           id="g128"
           transform="translate(153.8333,100.7956)"><path
             d="M 0,0 C 0,0 0.143,0.067 0.186,0.122 0.231,0.18 0.262,0.283 0.275,0.358 0.286,0.416 0.261,0.536 0.237,0.588 0.201,0.667 0.158,0.711 0.083,0.739 0.032,0.757 -0.046,0.76 -0.096,0.739 -0.149,0.717 -0.222,0.666 -0.257,0.617 -0.309,0.542 -0.339,0.458 -0.359,0.366 -0.372,0.309 -0.399,0.137 -0.398,0.079 c 0.001,-0.052 0.006,-0.215 0.006,-0.215 l 0.097,-0.179 0.002,0.007 L -0.3,-0.01 V 0.114 L -0.25,0.307 -0.167,0.432 -0.07,0.448 0.023,0.396 0.063,0.283 0.056,0.146 Z"
             style="fill:#c4c3c3;fill-opacity:1;fill-rule:evenodd;stroke:none"
             id="path130"
             inkscape:connector-curvature="0" /></g><g
           id="g132"
           transform="translate(152.5569,100.7961)"><path
             d="m 0,0 c 0,0 -0.144,0.067 -0.186,0.122 -0.045,0.058 -0.076,0.161 -0.09,0.236 -0.01,0.058 0.015,0.178 0.039,0.23 0.035,0.078 0.079,0.123 0.154,0.151 0.051,0.018 0.128,0.021 0.179,0 C 0.148,0.717 0.222,0.666 0.256,0.617 0.309,0.542 0.339,0.457 0.359,0.366 0.371,0.309 0.398,0.137 0.397,0.079 0.396,0.027 0.391,-0.137 0.391,-0.137 L 0.295,-0.316 0.292,-0.308 0.3,-0.01 V 0.114 L 0.25,0.307 0.167,0.432 0.07,0.448 -0.023,0.396 -0.063,0.283 -0.056,0.146 Z"
             style="fill:#c4c3c3;fill-opacity:1;fill-rule:evenodd;stroke:none"
             id="path134"
             inkscape:connector-curvature="0" /></g><g
           id="g136"
           transform="translate(152.8533,100.551)"><path
             d="M 0,0 C 0.015,0.159 0.007,0.457 -0.067,0.593 -0.093,0.639 -0.154,0.692 -0.202,0.69 -0.25,0.687 -0.315,0.672 -0.337,0.625 -0.358,0.583 -0.371,0.49 -0.366,0.442 c 0.007,-0.067 0.077,-0.205 0.077,-0.205 0,0 -0.252,0.057 -0.337,0.13 -0.084,0.071 -0.176,0.208 -0.203,0.323 -0.009,0.039 -0.045,0.166 0.001,0.319 0.026,0.089 0.105,0.208 0.167,0.267 0.161,0.154 0.472,0.11 0.536,0.071 C -0.041,1.296 0.062,1.188 0.096,1.088 0.123,1.011 0.179,0.782 0.192,0.701 0.22,0.534 0.229,0.471 0.241,0.302 0.249,0.186 0.272,0.082 0.25,-0.032 0.239,-0.093 0.224,-0.234 0.192,-0.327 0.16,-0.42 0.11,-0.465 0.067,-0.506 c -0.087,-0.084 -0.366,-0.13 -0.366,-0.13 0,0 0.153,0.217 0.193,0.313 C -0.059,-0.209 -0.012,-0.125 0,0 Z"
             style="fill:none;stroke:#787676;stroke-width:0.074;stroke-linecap:butt;stroke-linejoin:miter;stroke-miterlimit:4;stroke-dasharray:none;stroke-opacity:1"
             id="path138"
             inkscape:connector-curvature="0" /></g><g
           id="g140"
           transform="translate(153.5364,100.551)"><path
             d="M 0,0 C -0.015,0.159 -0.007,0.457 0.067,0.593 0.092,0.639 0.154,0.692 0.202,0.69 0.25,0.687 0.314,0.672 0.337,0.625 0.357,0.583 0.371,0.49 0.366,0.442 0.359,0.375 0.289,0.237 0.289,0.237 c 0,0 0.252,0.057 0.337,0.13 0.084,0.071 0.175,0.208 0.202,0.323 0.009,0.039 0.046,0.166 0,0.319 C 0.802,1.098 0.722,1.217 0.661,1.276 0.5,1.43 0.189,1.386 0.125,1.347 0.041,1.296 -0.062,1.188 -0.097,1.088 -0.124,1.011 -0.179,0.782 -0.193,0.701 -0.221,0.534 -0.229,0.471 -0.241,0.302 -0.25,0.186 -0.272,0.082 -0.25,-0.032 c 0.011,-0.061 0.026,-0.202 0.058,-0.295 0.032,-0.093 0.082,-0.138 0.125,-0.179 0.087,-0.084 0.365,-0.13 0.365,-0.13 0,0 -0.153,0.217 -0.192,0.313 C 0.059,-0.209 0.012,-0.125 0,0 Z"
             style="fill:none;stroke:#787676;stroke-width:0.074;stroke-linecap:butt;stroke-linejoin:miter;stroke-miterlimit:4;stroke-dasharray:none;stroke-opacity:1"
             id="path142"
             inkscape:connector-curvature="0" /></g><g
           id="g144"
           transform="translate(152.1707,101.2053)"><path
             d="M 0,0 C 0,0 0.013,0.11 0.024,0.165 0.037,0.23 0.067,0.322 0.112,0.368 0.159,0.417 0.23,0.455 0.294,0.466 0.35,0.477 0.427,0.476 0.482,0.46 0.524,0.448 0.574,0.413 0.611,0.388 0.639,0.369 0.699,0.315 0.699,0.315 c 0,0 -0.109,0.194 -0.182,0.244 C 0.446,0.606 0.33,0.626 0.247,0.624 0.187,0.623 0.121,0.589 0.071,0.552 0.011,0.508 -0.053,0.417 -0.076,0.342 -0.093,0.288 -0.091,0.206 -0.076,0.151 -0.061,0.093 0,0 0,0"
             style="fill:#f0f0f0;fill-opacity:1;fill-rule:evenodd;stroke:none"
             id="path146"
             inkscape:connector-curvature="0" /></g><g
           id="g148"
           transform="translate(153.6975,101.6784)"><path
             d="m 0,0 c 0,0 0.149,0.027 0.211,0.013 0.078,-0.018 0.179,-0.07 0.235,-0.131 0.049,-0.053 0.106,-0.224 0.106,-0.224 0,0 0.005,0.179 -0.017,0.25 C 0.521,-0.049 0.489,0.003 0.458,0.033 0.411,0.078 0.333,0.13 0.271,0.131 0.238,0.132 0.163,0.134 0.119,0.111 0.043,0.072 0,0 0,0"
             style="fill:#f0f0f0;fill-opacity:1;fill-rule:evenodd;stroke:none"
             id="path150"
             inkscape:connector-curvature="0" /></g><g
           id="g152"
           transform="translate(153.1931,99.3752)"><path
             d="M 0,0 C 0,0 0.225,0.207 0.262,0.44 0.295,0.65 0.146,0.896 0.135,0.995 0.09,1.391 0.186,1.918 0.194,1.961 0.229,2.133 0.272,2.206 0.295,2.262 0.312,2.302 0.359,2.383 0.406,2.46 0.433,2.505 0.494,2.588 0.524,2.673 0.557,2.763 0.559,2.854 0.56,2.902 0.561,2.985 0.546,3.056 0.527,3.124 0.508,3.188 0.447,3.292 0.359,3.353 0.264,3.418 0.187,3.47 0.157,3.491 0.061,3.56 0.001,3.785 0,3.785 -0.001,3.785 -0.061,3.56 -0.158,3.491 -0.187,3.47 -0.26,3.418 -0.355,3.353 -0.444,3.292 -0.505,3.188 -0.523,3.124 -0.543,3.056 -0.557,2.985 -0.557,2.902 -0.556,2.854 -0.554,2.763 -0.521,2.673 -0.49,2.588 -0.43,2.505 -0.403,2.46 -0.355,2.383 -0.308,2.302 -0.292,2.262 -0.269,2.206 -0.226,2.133 -0.191,1.961 -0.183,1.918 -0.087,1.391 -0.132,0.995 -0.143,0.896 -0.296,0.65 -0.262,0.44 -0.225,0.207 0,0 0,0"
             style="fill:#e3e3e3;fill-opacity:1;fill-rule:evenodd;stroke:none"
             id="path154"
             inkscape:connector-curvature="0" /></g><g
           id="g156"
           transform="translate(153.1931,99.3752)"><path
             d="M 0,0 V 3.754"
             style="fill:none;stroke:#b0afaf;stroke-width:0.074;stroke-linecap:butt;stroke-linejoin:miter;stroke-miterlimit:4;stroke-dasharray:none;stroke-opacity:1"
             id="path158"
             inkscape:connector-curvature="0" /></g><g
           id="g160"
           transform="translate(153.2,99.3825)"><path
             d="M 0,0 0.183,0.229 0.254,0.379 0.24,0.584 0.19,0.797 0.113,0.987 V 1.295 L 0.141,1.603 0.176,1.942 0.254,2.211 0.381,2.408 0.487,2.613 0.529,2.724 0.55,2.921 0.522,3.111 0.433,3.271 0.261,3.403 c 0,0 0.102,-0.128 0.169,-0.249 C 0.465,3.09 0.465,3.011 0.466,2.992 0.469,2.914 0.463,2.878 0.444,2.803 0.427,2.733 0.39,2.657 0.353,2.598 0.312,2.531 0.238,2.457 0.205,2.384 0.157,2.281 0.125,2.127 0.105,2.013 0.082,1.873 0.079,1.682 0.07,1.54 0.062,1.396 0.039,1.202 0.049,1.058 0.056,0.966 0.091,0.838 0.105,0.758 0.116,0.703 0.142,0.632 0.148,0.577 0.154,0.522 0.155,0.449 0.148,0.395 0.141,0.334 0.12,0.254 0.099,0.198 0.076,0.135 0,0 0,0"
             style="fill:#c4c3c3;fill-opacity:1;fill-rule:evenodd;stroke:none"
             id="path162"
             inkscape:connector-curvature="0" /></g><g
           id="g164"
           transform="translate(152.9529,99.7302)"><path
             d="M 0,0 C 0,0 0.004,0.123 0.014,0.174 0.028,0.245 0.062,0.334 0.084,0.402 0.106,0.467 0.149,0.548 0.162,0.616 0.19,0.764 0.184,0.97 0.176,1.121 0.17,1.233 0.141,1.38 0.127,1.492 0.116,1.58 0.095,1.716 0.07,1.8 0.044,1.89 0.001,2.004 -0.042,2.084 -0.08,2.153 -0.13,2.22 -0.177,2.281 -0.212,2.329 -0.311,2.424 -0.311,2.424 L -0.297,2.418 -0.281,2.333 -0.216,2.212 -0.151,2.08 -0.043,1.893 0.027,1.693 0.065,1.481 0.097,1.192 0.113,0.902 V 0.63 L 0.054,0.491 -0.016,0.28 -0.038,0.104 Z"
             style="fill:#c4c3c3;fill-opacity:1;fill-rule:evenodd;stroke:none"
             id="path166"
             inkscape:connector-curvature="0" /></g><g
           id="g168"
           transform="translate(153.1931,99.3752)"><path
             d="M 0,0 C 0,0 0.225,0.207 0.262,0.44 0.295,0.65 0.146,0.896 0.135,0.995 0.09,1.391 0.186,1.918 0.194,1.961 0.229,2.133 0.272,2.206 0.295,2.262 0.312,2.302 0.359,2.383 0.406,2.46 0.433,2.505 0.494,2.588 0.524,2.673 0.557,2.763 0.559,2.854 0.56,2.902 0.561,2.985 0.546,3.056 0.527,3.124 0.508,3.188 0.447,3.292 0.359,3.353 0.264,3.418 0.187,3.47 0.157,3.491 0.061,3.56 0,3.785 0,3.785 0,3.785 -0.061,3.56 -0.158,3.491 -0.187,3.47 -0.26,3.418 -0.355,3.353 -0.444,3.292 -0.505,3.188 -0.523,3.124 -0.543,3.056 -0.557,2.985 -0.557,2.902 -0.556,2.854 -0.554,2.763 -0.521,2.673 -0.49,2.588 -0.43,2.505 -0.403,2.46 -0.355,2.383 -0.308,2.302 -0.292,2.262 -0.269,2.206 -0.226,2.133 -0.191,1.961 -0.183,1.918 -0.087,1.391 -0.132,0.995 -0.143,0.896 -0.296,0.65 -0.262,0.44 -0.225,0.207 0,0 0,0 Z"
             style="fill:none;stroke:#787676;stroke-width:0.066;stroke-linecap:butt;stroke-linejoin:miter;stroke-miterlimit:4;stroke-dasharray:none;stroke-opacity:1"
             id="path170"
             inkscape:connector-curvature="0" /></g><g
           id="g172"
           transform="translate(153.0681,101.7736)"><path
             d="m 0,0 0.02,0.971 c 0,0 -0.109,-0.091 -0.155,-0.129 C -0.17,0.812 -0.229,0.787 -0.25,0.745 -0.3,0.648 -0.322,0.542 -0.28,0.442 -0.255,0.383 -0.165,0.307 -0.125,0.259 -0.072,0.194 0,0 0,0"
             style="fill:#f0f0f0;fill-opacity:1;fill-rule:evenodd;stroke:none"
             id="path174"
             inkscape:connector-curvature="0" /></g><g
           id="g176"
           transform="translate(153.2898,101.925)"><path
             d="M 0,0 V 0.701 C 0,0.701 0.035,0.627 0.058,0.604 0.078,0.585 0.116,0.58 0.135,0.561 0.163,0.533 0.195,0.483 0.203,0.442 0.212,0.387 0.198,0.308 0.174,0.259 0.153,0.217 0.094,0.189 0.068,0.151 0.041,0.11 0,0 0,0"
             style="fill:#f0f0f0;fill-opacity:1;fill-rule:evenodd;stroke:none"
             id="path178"
             inkscape:connector-curvature="0" /></g><g
           id="g180"
           transform="translate(153.1321,99.6804)"><path
             d="m 0,0 c -0.008,0.094 -0.006,0.313 -0.006,0.313 0,0 -0.071,-0.118 -0.083,-0.171 -0.007,-0.029 -0.013,-0.09 -0.006,-0.118 0.014,-0.065 0.112,-0.197 0.112,-0.197 0,0 -0.013,0.13 -0.017,0.173"
             style="fill:#f0f0f0;fill-opacity:1;fill-rule:evenodd;stroke:none"
             id="path182"
             inkscape:connector-curvature="0" /></g><g
           id="g184"
           transform="translate(153.6985,100.6447)"><path
             d="M 0,0 -0.108,0.168 H -0.899 L -1.008,0 -0.899,-0.167 h 0.791 z"
             style="fill:#e3e3e3;fill-opacity:1;fill-rule:evenodd;stroke:none"
             id="path186"
             inkscape:connector-curvature="0" /></g><g
           id="g188"
           transform="translate(152.7503,100.7146)"><path
             d="M 0,0 0.897,-0.005 0.831,0.099 0.047,0.101 Z"
             style="fill:#f0f0f0;fill-opacity:1;fill-rule:evenodd;stroke:none"
             id="path190"
             inkscape:connector-curvature="0" /></g><g
           id="g192"
           transform="translate(153.6433,100.573)"><path
             d="m 0,0 -0.897,0.006 0.066,-0.105 0.784,-0.002 z"
             style="fill:#c4c3c3;fill-opacity:1;fill-rule:evenodd;stroke:none"
             id="path194"
             inkscape:connector-curvature="0" /></g><g
           id="g196"
           transform="translate(153.6985,100.6447)"><path
             d="M 0,0 -0.108,0.168 H -0.899 L -1.008,0 -0.899,-0.167 h 0.791 z"
             style="fill:none;stroke:#787676;stroke-width:0.074;stroke-linecap:butt;stroke-linejoin:miter;stroke-miterlimit:4;stroke-dasharray:none;stroke-opacity:1"
             id="path198"
             inkscape:connector-curvature="0" /></g><g
           id="g200"
           transform="translate(151.4841,97.5388)"><path
             d="M 0,0 C 0.015,0.158 0.007,0.457 -0.067,0.592 -0.093,0.638 -0.154,0.692 -0.203,0.689 -0.25,0.687 -0.315,0.671 -0.337,0.625 -0.358,0.582 -0.371,0.49 -0.366,0.441 c 0.007,-0.066 0.077,-0.204 0.077,-0.204 0,0 -0.252,0.056 -0.337,0.129 -0.084,0.072 -0.176,0.209 -0.203,0.323 -0.009,0.04 -0.045,0.167 0,0.32 0.027,0.089 0.106,0.207 0.168,0.266 0.161,0.155 0.472,0.11 0.536,0.072 C -0.041,1.296 0.062,1.188 0.096,1.088 0.123,1.011 0.179,0.782 0.192,0.7 0.22,0.534 0.229,0.471 0.241,0.301 0.249,0.186 0.272,0.081 0.25,-0.033 0.238,-0.094 0.224,-0.234 0.192,-0.327 0.16,-0.42 0.11,-0.465 0.067,-0.507 -0.02,-0.591 -0.299,-0.636 -0.299,-0.636 c 0,0 0.153,0.216 0.193,0.313 C -0.059,-0.209 -0.012,-0.125 0,0"
             style="fill:#e3e3e3;fill-opacity:1;fill-rule:evenodd;stroke:none"
             id="path202"
             inkscape:connector-curvature="0" /></g><g
           id="g204"
           transform="translate(152.1673,97.5388)"><path
             d="M 0,0 C -0.015,0.158 -0.007,0.457 0.067,0.592 0.092,0.638 0.154,0.692 0.202,0.689 0.25,0.687 0.314,0.671 0.337,0.625 0.357,0.582 0.371,0.49 0.366,0.441 0.359,0.375 0.289,0.237 0.289,0.237 c 0,0 0.252,0.056 0.337,0.129 0.084,0.072 0.175,0.209 0.202,0.323 0.009,0.04 0.046,0.167 0,0.32 C 0.802,1.098 0.722,1.216 0.661,1.275 0.5,1.43 0.188,1.385 0.125,1.347 0.041,1.296 -0.062,1.188 -0.097,1.088 -0.124,1.011 -0.179,0.782 -0.193,0.7 -0.221,0.534 -0.229,0.471 -0.241,0.301 -0.25,0.186 -0.272,0.081 -0.25,-0.033 c 0.011,-0.061 0.026,-0.201 0.058,-0.294 0.032,-0.093 0.082,-0.138 0.124,-0.18 0.088,-0.084 0.366,-0.129 0.366,-0.129 0,0 -0.153,0.216 -0.192,0.313 C 0.059,-0.209 0.012,-0.125 0,0"
             style="fill:#e3e3e3;fill-opacity:1;fill-rule:evenodd;stroke:none"
             id="path206"
             inkscape:connector-curvature="0" /></g><g
           id="g208"
           transform="translate(152.426,96.9206)"><path
             d="M 0,0 -0.073,0.001 -0.309,0.084 -0.591,0.362 -0.8,0.14 -0.941,0.065 -1.102,0.005 -1.209,-0.003 c 0,0 0.189,0.143 0.255,0.223 0.047,0.057 0.095,0.148 0.125,0.218 0.053,0.12 0.135,0.42 0.138,0.422 l 0.06,0.011 0.116,-0.011 c 0,0 0.081,-0.3 0.134,-0.42 C -0.35,0.37 -0.302,0.279 -0.255,0.222 -0.19,0.142 0,0 0,0"
             style="fill:#c4c3c3;fill-opacity:1;fill-rule:evenodd;stroke:none"
             id="path210"
             inkscape:connector-curvature="0" /></g><g
           id="g212"
           transform="translate(152.4636,97.7829)"><path
             d="M 0,0 C 0,0 0.144,0.068 0.186,0.122 0.231,0.18 0.262,0.283 0.276,0.359 0.286,0.416 0.261,0.537 0.237,0.588 0.202,0.667 0.158,0.711 0.083,0.739 0.032,0.757 -0.045,0.76 -0.096,0.739 -0.148,0.717 -0.222,0.666 -0.256,0.617 -0.309,0.543 -0.339,0.458 -0.359,0.366 -0.371,0.31 -0.398,0.137 -0.397,0.079 c 0.001,-0.052 0.006,-0.215 0.006,-0.215 l 0.096,-0.179 0.003,0.008 L -0.3,-0.01 V 0.115 L -0.25,0.308 -0.167,0.432 -0.07,0.448 0.024,0.396 0.063,0.283 0.056,0.146 Z"
             style="fill:#c4c3c3;fill-opacity:1;fill-rule:evenodd;stroke:none"
             id="path214"
             inkscape:connector-curvature="0" /></g><g
           id="g216"
           transform="translate(151.1878,97.7834)"><path
             d="m 0,0 c 0,0 -0.144,0.067 -0.186,0.122 -0.045,0.058 -0.076,0.161 -0.09,0.236 -0.01,0.058 0.015,0.178 0.039,0.23 0.035,0.079 0.079,0.123 0.154,0.151 0.051,0.018 0.128,0.021 0.179,0 C 0.148,0.717 0.222,0.666 0.256,0.617 0.309,0.542 0.339,0.458 0.359,0.366 0.371,0.309 0.398,0.137 0.397,0.079 0.396,0.027 0.391,-0.136 0.391,-0.136 L 0.295,-0.315 0.292,-0.308 0.299,-0.01 V 0.114 L 0.249,0.307 0.167,0.432 0.07,0.448 -0.024,0.396 -0.063,0.283 -0.056,0.146 Z"
             style="fill:#c4c3c3;fill-opacity:1;fill-rule:evenodd;stroke:none"
             id="path218"
             inkscape:connector-curvature="0" /></g><g
           id="g220"
           transform="translate(151.4841,97.5388)"><path
             d="M 0,0 C 0.015,0.158 0.007,0.457 -0.067,0.592 -0.093,0.638 -0.154,0.692 -0.203,0.689 -0.25,0.687 -0.315,0.671 -0.337,0.625 -0.358,0.582 -0.371,0.49 -0.366,0.441 c 0.007,-0.066 0.077,-0.204 0.077,-0.204 0,0 -0.252,0.056 -0.337,0.129 -0.084,0.072 -0.176,0.209 -0.203,0.323 -0.009,0.04 -0.045,0.167 0,0.32 0.027,0.089 0.106,0.207 0.168,0.266 0.161,0.155 0.472,0.11 0.536,0.072 C -0.041,1.296 0.062,1.188 0.096,1.088 0.123,1.011 0.179,0.782 0.192,0.7 0.22,0.534 0.229,0.471 0.241,0.301 0.249,0.186 0.272,0.081 0.25,-0.033 0.238,-0.094 0.224,-0.234 0.192,-0.327 0.16,-0.42 0.11,-0.465 0.067,-0.507 -0.02,-0.591 -0.299,-0.636 -0.299,-0.636 c 0,0 0.153,0.216 0.193,0.313 C -0.059,-0.209 -0.012,-0.125 0,0 Z"
             style="fill:none;stroke:#787676;stroke-width:0.074;stroke-linecap:butt;stroke-linejoin:miter;stroke-miterlimit:4;stroke-dasharray:none;stroke-opacity:1"
             id="path222"
             inkscape:connector-curvature="0" /></g><g
           id="g224"
           transform="translate(152.1673,97.5388)"><path
             d="M 0,0 C -0.015,0.158 -0.007,0.457 0.067,0.592 0.092,0.638 0.154,0.692 0.202,0.689 0.25,0.687 0.314,0.671 0.337,0.625 0.357,0.582 0.371,0.49 0.366,0.441 0.359,0.375 0.289,0.237 0.289,0.237 c 0,0 0.252,0.056 0.337,0.129 0.084,0.072 0.175,0.209 0.202,0.323 0.009,0.04 0.046,0.167 0,0.32 C 0.802,1.098 0.722,1.216 0.661,1.275 0.5,1.43 0.188,1.385 0.125,1.347 0.041,1.296 -0.062,1.188 -0.097,1.088 -0.124,1.011 -0.179,0.782 -0.193,0.7 -0.221,0.534 -0.229,0.471 -0.241,0.301 -0.25,0.186 -0.272,0.081 -0.25,-0.033 c 0.011,-0.061 0.026,-0.201 0.058,-0.294 0.032,-0.093 0.082,-0.138 0.124,-0.18 0.088,-0.084 0.366,-0.129 0.366,-0.129 0,0 -0.153,0.216 -0.192,0.313 C 0.059,-0.209 0.012,-0.125 0,0 Z"
             style="fill:none;stroke:#787676;stroke-width:0.074;stroke-linecap:butt;stroke-linejoin:miter;stroke-miterlimit:4;stroke-dasharray:none;stroke-opacity:1"
             id="path226"
             inkscape:connector-curvature="0" /></g><g
           id="g228"
           transform="translate(150.8015,98.1926)"><path
             d="M 0,0 C 0,0 0.013,0.111 0.023,0.165 0.037,0.23 0.067,0.322 0.112,0.368 0.159,0.417 0.23,0.455 0.294,0.467 0.349,0.477 0.427,0.476 0.481,0.46 0.523,0.448 0.574,0.413 0.611,0.388 0.639,0.369 0.699,0.315 0.699,0.315 c 0,0 -0.109,0.194 -0.182,0.244 C 0.446,0.606 0.33,0.626 0.247,0.625 0.187,0.623 0.121,0.589 0.071,0.552 0.011,0.508 -0.053,0.417 -0.076,0.342 -0.093,0.288 -0.091,0.206 -0.076,0.151 -0.061,0.093 0,0 0,0"
             style="fill:#f0f0f0;fill-opacity:1;fill-rule:evenodd;stroke:none"
             id="path230"
             inkscape:connector-curvature="0" /></g><g
           id="g232"
           transform="translate(152.3284,98.6657)"><path
             d="m 0,0 c 0,0 0.149,0.027 0.211,0.013 0.078,-0.018 0.179,-0.07 0.235,-0.131 0.049,-0.053 0.106,-0.223 0.106,-0.223 0,0 0.005,0.178 -0.017,0.249 C 0.521,-0.049 0.489,0.003 0.458,0.033 0.411,0.078 0.333,0.13 0.27,0.131 0.237,0.132 0.163,0.134 0.118,0.111 0.043,0.072 0,0 0,0"
             style="fill:#f0f0f0;fill-opacity:1;fill-rule:evenodd;stroke:none"
             id="path234"
             inkscape:connector-curvature="0" /></g><g
           id="g236"
           transform="translate(151.8235,96.3625)"><path
             d="M 0,0 C 0,0 0.225,0.207 0.263,0.44 0.296,0.65 0.147,0.896 0.136,0.995 0.09,1.391 0.186,1.918 0.195,1.961 0.229,2.133 0.272,2.206 0.295,2.262 0.312,2.303 0.359,2.383 0.406,2.46 0.434,2.505 0.494,2.588 0.525,2.673 0.557,2.763 0.56,2.854 0.56,2.902 0.561,2.985 0.547,3.056 0.527,3.124 0.508,3.188 0.447,3.292 0.359,3.353 0.264,3.418 0.187,3.471 0.158,3.491 0.061,3.56 0.001,3.785 0,3.785 -0.001,3.785 -0.061,3.56 -0.157,3.491 -0.187,3.471 -0.26,3.418 -0.355,3.353 -0.443,3.292 -0.504,3.188 -0.523,3.124 -0.543,3.056 -0.557,2.985 -0.556,2.902 c 0,-0.048 0.003,-0.139 0.035,-0.229 0.031,-0.085 0.091,-0.168 0.119,-0.213 0.047,-0.077 0.094,-0.157 0.111,-0.198 0.023,-0.056 0.066,-0.129 0.1,-0.301 0.009,-0.043 0.105,-0.57 0.06,-0.966 C -0.143,0.896 -0.295,0.65 -0.262,0.44 -0.225,0.207 0,0 0,0"
             style="fill:#e3e3e3;fill-opacity:1;fill-rule:evenodd;stroke:none"
             id="path238"
             inkscape:connector-curvature="0" /></g><g
           id="g240"
           transform="translate(151.8235,96.3625)"><path
             d="M 0,0 V 3.754"
             style="fill:none;stroke:#b0afaf;stroke-width:0.074;stroke-linecap:butt;stroke-linejoin:miter;stroke-miterlimit:4;stroke-dasharray:none;stroke-opacity:1"
             id="path242"
             inkscape:connector-curvature="0" /></g><g
           id="g244"
           transform="translate(151.8303,96.3703)"><path
             d="M 0,0 0.184,0.229 0.254,0.379 0.24,0.584 0.191,0.797 0.113,0.987 V 1.294 L 0.142,1.603 0.177,1.942 0.254,2.21 0.381,2.408 0.487,2.613 0.53,2.724 0.551,2.921 0.522,3.11 0.433,3.271 0.261,3.402 c 0,0 0.102,-0.128 0.169,-0.248 C 0.466,3.089 0.465,3.01 0.466,2.992 0.469,2.914 0.464,2.877 0.445,2.802 0.427,2.733 0.39,2.657 0.353,2.597 0.312,2.531 0.238,2.456 0.205,2.384 0.157,2.281 0.125,2.127 0.106,2.013 0.083,1.873 0.079,1.682 0.071,1.539 0.062,1.395 0.04,1.202 0.05,1.058 0.056,0.966 0.092,0.837 0.106,0.758 0.116,0.703 0.142,0.632 0.148,0.576 0.155,0.522 0.155,0.449 0.148,0.395 0.141,0.333 0.12,0.254 0.099,0.197 0.076,0.134 0,0 0,0"
             style="fill:#c4c3c3;fill-opacity:1;fill-rule:evenodd;stroke:none"
             id="path246"
             inkscape:connector-curvature="0" /></g><g
           id="g248"
           transform="translate(151.5838,96.7175)"><path
             d="M 0,0 C 0,0 0.004,0.123 0.014,0.174 0.027,0.245 0.062,0.334 0.084,0.403 0.106,0.467 0.149,0.548 0.162,0.616 0.19,0.764 0.184,0.97 0.176,1.121 0.17,1.233 0.141,1.381 0.127,1.492 0.116,1.58 0.095,1.716 0.07,1.8 0.044,1.89 0.001,2.004 -0.042,2.085 -0.08,2.153 -0.13,2.221 -0.177,2.282 -0.212,2.329 -0.311,2.424 -0.311,2.424 L -0.297,2.418 -0.281,2.333 -0.216,2.212 -0.151,2.08 -0.043,1.893 0.027,1.693 0.064,1.482 0.097,1.192 0.113,0.902 V 0.63 L 0.054,0.491 -0.016,0.28 -0.038,0.104 Z"
             style="fill:#c4c3c3;fill-opacity:1;fill-rule:evenodd;stroke:none"
             id="path250"
             inkscape:connector-curvature="0" /></g><g
           id="g252"
           transform="translate(151.8235,96.3625)"><path
             d="M 0,0 C 0,0 0.225,0.207 0.263,0.44 0.296,0.65 0.147,0.896 0.136,0.995 0.09,1.391 0.186,1.918 0.195,1.961 0.229,2.133 0.272,2.206 0.295,2.262 0.312,2.303 0.359,2.383 0.406,2.46 0.434,2.505 0.494,2.588 0.525,2.673 0.557,2.763 0.56,2.854 0.56,2.902 0.561,2.985 0.547,3.056 0.527,3.124 0.508,3.188 0.447,3.292 0.359,3.353 0.264,3.418 0.187,3.471 0.158,3.491 0.061,3.56 0,3.785 0,3.785 0,3.785 -0.061,3.56 -0.157,3.491 -0.187,3.471 -0.26,3.418 -0.355,3.353 -0.443,3.292 -0.504,3.188 -0.523,3.124 -0.543,3.056 -0.557,2.985 -0.556,2.902 -0.556,2.854 -0.553,2.763 -0.521,2.673 -0.49,2.588 -0.43,2.505 -0.402,2.46 -0.355,2.383 -0.308,2.303 -0.292,2.262 -0.268,2.206 -0.225,2.133 -0.191,1.961 -0.182,1.918 -0.086,1.391 -0.131,0.995 -0.143,0.896 -0.295,0.65 -0.262,0.44 -0.225,0.207 0,0 0,0 Z"
             style="fill:none;stroke:#787676;stroke-width:0.066;stroke-linecap:butt;stroke-linejoin:miter;stroke-miterlimit:4;stroke-dasharray:none;stroke-opacity:1"
             id="path254"
             inkscape:connector-curvature="0" /></g><g
           id="g256"
           transform="translate(151.699,98.7609)"><path
             d="m 0,0 0.019,0.971 c 0,0 -0.108,-0.091 -0.154,-0.129 C -0.17,0.812 -0.229,0.787 -0.251,0.745 -0.3,0.648 -0.322,0.543 -0.28,0.442 -0.255,0.383 -0.165,0.307 -0.125,0.259 -0.072,0.194 0,0 0,0"
             style="fill:#f0f0f0;fill-opacity:1;fill-rule:evenodd;stroke:none"
             id="path258"
             inkscape:connector-curvature="0" /></g><g
           id="g260"
           transform="translate(151.9207,98.9123)"><path
             d="M 0,0 V 0.701 C 0,0.701 0.035,0.627 0.058,0.604 0.078,0.585 0.116,0.58 0.135,0.561 0.163,0.533 0.195,0.483 0.203,0.442 0.212,0.387 0.198,0.308 0.174,0.259 0.153,0.217 0.094,0.189 0.068,0.151 0.041,0.11 0,0 0,0"
             style="fill:#f0f0f0;fill-opacity:1;fill-rule:evenodd;stroke:none"
             id="path262"
             inkscape:connector-curvature="0" /></g><g
           id="g264"
           transform="translate(151.763,96.6682)"><path
             d="m 0,0 c -0.008,0.093 -0.006,0.313 -0.006,0.313 0,0 -0.072,-0.118 -0.083,-0.171 -0.007,-0.029 -0.013,-0.09 -0.007,-0.118 0.015,-0.065 0.113,-0.197 0.113,-0.197 0,0 -0.013,0.13 -0.017,0.173"
             style="fill:#f0f0f0;fill-opacity:1;fill-rule:evenodd;stroke:none"
             id="path266"
             inkscape:connector-curvature="0" /></g><g
           id="g268"
           transform="translate(152.3294,97.6325)"><path
             d="M 0,0 -0.108,0.167 H -0.899 L -1.008,0 -0.899,-0.167 h 0.791 z"
             style="fill:#e3e3e3;fill-opacity:1;fill-rule:evenodd;stroke:none"
             id="path270"
             inkscape:connector-curvature="0" /></g><g
           id="g272"
           transform="translate(151.3806,97.7019)"><path
             d="M 0,0 0.897,-0.005 0.831,0.099 0.047,0.101 Z"
             style="fill:#f0f0f0;fill-opacity:1;fill-rule:evenodd;stroke:none"
             id="path274"
             inkscape:connector-curvature="0" /></g><g
           id="g276"
           transform="translate(152.2742,97.5607)"><path
             d="M 0,0 -0.897,0.005 -0.831,-0.1 -0.047,-0.102 Z"
             style="fill:#c4c3c3;fill-opacity:1;fill-rule:evenodd;stroke:none"
             id="path278"
             inkscape:connector-curvature="0" /></g><g
           id="g280"
           transform="translate(152.3294,97.6325)"><path
             d="M 0,0 -0.108,0.167 H -0.899 L -1.008,0 -0.899,-0.167 h 0.791 z"
             style="fill:none;stroke:#787676;stroke-width:0.074;stroke-linecap:butt;stroke-linejoin:miter;stroke-miterlimit:4;stroke-dasharray:none;stroke-opacity:1"
             id="path282"
             inkscape:connector-curvature="0" /></g><g
           id="g284"
           transform="translate(163.0335,93.965)"><path
             d="m 0,0 c 0,-1.686 -1.365,-3.052 -3.047,-3.052 -1.682,10e-4 -3.046,1.367 -3.046,3.052 0,1.686 1.364,3.053 3.046,3.053 C -1.365,3.053 0,1.687 0,0.001 Z"
             style="fill:#636161;fill-opacity:1;fill-rule:evenodd;stroke:none"
             id="path286"
             inkscape:connector-curvature="0" /></g><g
           id="g288"
           transform="translate(163.0335,93.965)"><path
             d="m 0,0 c 0,-1.686 -1.365,-3.052 -3.047,-3.052 -1.682,10e-4 -3.046,1.367 -3.046,3.052 0,1.686 1.364,3.053 3.046,3.053 C -1.365,3.053 0,1.687 0,0.001 Z"
             style="fill:none;stroke:#4f4c4d;stroke-width:0.069;stroke-linecap:butt;stroke-linejoin:miter;stroke-miterlimit:4;stroke-dasharray:none;stroke-opacity:1"
             id="path290"
             inkscape:connector-curvature="0" /></g><g
           id="g292"
           transform="translate(161.2244,94.7956)"><path
             d="m 0,0 c 0,-1.035 -0.839,-1.873 -1.873,-1.873 -1.034,0 -1.873,0.838 -1.873,1.873 0,1.034 0.839,1.873 1.873,1.873 C -0.839,1.873 0,1.034 0,0"
             style="fill:#898787;fill-opacity:1;fill-rule:evenodd;stroke:none"
             id="path294"
             inkscape:connector-curvature="0" /></g><g
           id="g296"
           transform="translate(154.7781,80.0383)"><path
             d="m 0,0 c 0,-1.686 -1.364,-3.052 -3.047,-3.052 -1.682,10e-4 -3.045,1.367 -3.046,3.052 0,1.686 1.364,3.053 3.046,3.053 C -1.364,3.053 0,1.687 0,0.001 Z"
             style="fill:#636161;fill-opacity:1;fill-rule:evenodd;stroke:none"
             id="path298"
             inkscape:connector-curvature="0" /></g><g
           id="g300"
           transform="translate(154.7781,80.0383)"><path
             d="m 0,0 c 0,-1.686 -1.364,-3.052 -3.047,-3.052 -1.682,10e-4 -3.045,1.367 -3.046,3.052 0,1.686 1.364,3.053 3.046,3.053 C -1.364,3.053 0,1.687 0,0.001 Z"
             style="fill:none;stroke:#4f4c4d;stroke-width:0.069;stroke-linecap:butt;stroke-linejoin:miter;stroke-miterlimit:4;stroke-dasharray:none;stroke-opacity:1"
             id="path302"
             inkscape:connector-curvature="0" /></g><g
           id="g304"
           transform="translate(152.9695,80.8684)"><path
             d="m 0,0 c 0,-1.034 -0.839,-1.873 -1.873,-1.873 -1.034,0 -1.873,0.839 -1.873,1.873 0,1.035 0.839,1.873 1.873,1.873 C -0.839,1.873 0,1.035 0,0"
             style="fill:#898787;fill-opacity:1;fill-rule:evenodd;stroke:none"
             id="path306"
             inkscape:connector-curvature="0" /></g><g
           id="g308"
           transform="translate(146.5291,93.965)"><path
             d="m 0,0 c 0,-1.686 -1.364,-3.052 -3.047,-3.052 -1.682,10e-4 -3.045,1.367 -3.046,3.052 0,1.686 1.364,3.053 3.046,3.053 C -1.364,3.053 0,1.687 0,0.001 Z"
             style="fill:#636161;fill-opacity:1;fill-rule:evenodd;stroke:none"
             id="path310"
             inkscape:connector-curvature="0" /></g><g
           id="g312"
           transform="translate(146.5291,93.965)"><path
             d="m 0,0 c 0,-1.686 -1.364,-3.052 -3.047,-3.052 -1.682,10e-4 -3.045,1.367 -3.046,3.052 0,1.686 1.364,3.053 3.046,3.053 C -1.364,3.053 0,1.687 0,0.001 Z"
             style="fill:none;stroke:#4f4c4d;stroke-width:0.069;stroke-linecap:butt;stroke-linejoin:miter;stroke-miterlimit:4;stroke-dasharray:none;stroke-opacity:1"
             id="path314"
             inkscape:connector-curvature="0" /></g><g
           id="g316"
           transform="translate(144.72,94.7956)"><path
             d="m 0,0 c 0,-1.035 -0.838,-1.873 -1.873,-1.873 -1.034,0 -1.872,0.838 -1.872,1.873 0,1.034 0.838,1.873 1.872,1.873 C -0.838,1.873 0,1.034 0,0"
             style="fill:#898787;fill-opacity:1;fill-rule:evenodd;stroke:none"
             id="path318"
             inkscape:connector-curvature="0" /></g><g
           id="g320"
           transform="translate(161.823,85.7268)"><path
             d="m 0,0 c 0,-1.686 -1.364,-3.052 -3.047,-3.052 -1.682,10e-4 -3.045,1.367 -3.046,3.052 0,1.686 1.364,3.053 3.046,3.053 C -1.364,3.053 0,1.687 0,0.001 Z"
             style="fill:#636161;fill-opacity:1;fill-rule:evenodd;stroke:none"
             id="path322"
             inkscape:connector-curvature="0" /></g><g
           id="g324"
           transform="translate(161.823,85.7268)"><path
             d="m 0,0 c 0,-1.686 -1.364,-3.052 -3.047,-3.052 -1.682,10e-4 -3.045,1.367 -3.046,3.052 0,1.686 1.364,3.053 3.046,3.053 C -1.364,3.053 0,1.687 0,0.001 Z"
             style="fill:none;stroke:#4f4c4d;stroke-width:0.069;stroke-linecap:butt;stroke-linejoin:miter;stroke-miterlimit:4;stroke-dasharray:none;stroke-opacity:1"
             id="path326"
             inkscape:connector-curvature="0" /></g><g
           id="g328"
           transform="translate(160.0139,86.5568)"><path
             d="m 0,0 c 0,-1.034 -0.838,-1.873 -1.873,-1.873 -1.034,0 -1.872,0.839 -1.872,1.873 0,1.035 0.838,1.873 1.872,1.873 C -0.838,1.873 0,1.035 0,0"
             style="fill:#898787;fill-opacity:1;fill-rule:evenodd;stroke:none"
             id="path330"
             inkscape:connector-curvature="0" /></g><g
           id="g332"
           transform="translate(147.7761,85.7268)"><path
             d="m 0,0 c 0,-1.686 -1.364,-3.052 -3.047,-3.052 -1.682,10e-4 -3.045,1.367 -3.046,3.052 0,1.686 1.364,3.053 3.046,3.053 C -1.364,3.053 0,1.687 0,0.001 Z"
             style="fill:#636161;fill-opacity:1;fill-rule:evenodd;stroke:none"
             id="path334"
             inkscape:connector-curvature="0" /></g><g
           id="g336"
           transform="translate(147.7761,85.7268)"><path
             d="m 0,0 c 0,-1.686 -1.364,-3.052 -3.047,-3.052 -1.682,10e-4 -3.045,1.367 -3.046,3.052 0,1.686 1.364,3.053 3.046,3.053 C -1.364,3.053 0,1.687 0,0.001 Z"
             style="fill:none;stroke:#4f4c4d;stroke-width:0.069;stroke-linecap:butt;stroke-linejoin:miter;stroke-miterlimit:4;stroke-dasharray:none;stroke-opacity:1"
             id="path338"
             inkscape:connector-curvature="0" /></g><g
           id="g340"
           transform="translate(145.9671,86.5568)"><path
             d="m 0,0 c 0,-1.034 -0.838,-1.873 -1.873,-1.873 -1.034,0 -1.872,0.839 -1.872,1.873 0,1.035 0.838,1.873 1.872,1.873 C -0.838,1.873 0,1.035 0,0"
             style="fill:#898787;fill-opacity:1;fill-rule:evenodd;stroke:none"
             id="path342"
             inkscape:connector-curvature="0" /></g><g
           id="g344"
           transform="translate(138.6111,92.1071)"><path
             d="m 0,0 c 0.059,-4.225 0.277,-7.521 2.17,-10.098 2.282,-3.105 6.081,-5.344 10.967,-7.543 4.885,2.203 8.682,4.446 10.961,7.552 1.891,2.579 2.101,5.875 2.162,10.1 0.064,4.385 0.066,8.77 -0.005,13.156 L -0.005,13.155 C -0.083,8.771 -0.061,4.385 0,0 Z"
             style="fill:none;stroke:#5c5959;stroke-width:0.366;stroke-linecap:butt;stroke-linejoin:miter;stroke-miterlimit:3.97099996;stroke-dasharray:none;stroke-opacity:1"
             id="path346"
             inkscape:connector-curvature="0" /></g></g></g><text
       transform="matrix(1,0,0,-1,60.8057,62.6753)"
       style="font-variant:normal;font-weight:normal;font-stretch:normal;font-size:9px;font-family:'Engravers LH Bold Face';-inkscape-font-specification:EngraversLH-BoldFace;writing-mode:lr-tb;fill:#231f20;fill-opacity:1;fill-rule:nonzero;stroke:none"
       id="text350"><tspan
         x="0"
         y="0"
         sodipodi:role="line"
         id="tspan348">Karatasi ya Mizani ya Familia ya Medici Banking</tspan></text>
<text
       transform="matrix(1,0,0,-1,162.9287,45.2873)"
       style="font-style:italic;font-variant:normal;font-weight:normal;font-stretch:normal;font-size:9px;font-family:Georgia;-inkscape-font-specification:Georgia-Italic;writing-mode:lr-tb;fill:#231f20;fill-opacity:1;fill-rule:nonzero;stroke:none"
       id="text354"><tspan
         x="0"
         y="0"
         sodipodi:role="line"
         id="tspan352">Madeni</tspan></text>
<text
       transform="matrix(1,0,0,-1,162.9287,26.4863)"
       style="font-variant:normal;font-weight:normal;font-stretch:normal;font-size:7.5px;font-family:Georgia;-inkscape-font-specification:Georgia;writing-mode:lr-tb;fill:#231f20;fill-opacity:1;fill-rule:nonzero;stroke:none"
       id="text358"><tspan
         x="0"
         y="-3"
         sodipodi:role="line"
         id="tspan356">Muswada wa</tspan><tspan
         x="0"
         y="7"
         sodipodi:role="line"
         id="tspan356">Kubadilishana</tspan></text>
<text
       transform="matrix(1,0,0,-1,58.6187,45.0443)"
       style="font-style:italic;font-variant:normal;font-weight:normal;font-stretch:normal;font-size:9px;font-family:Georgia;-inkscape-font-specification:Georgia-Italic;writing-mode:lr-tb;fill:#231f20;fill-opacity:1;fill-rule:nonzero;stroke:none"
       id="text362"><tspan
         x="0"
         y="0"
         sodipodi:role="line"
         id="tspan360">Mali</tspan></text>
<text
       transform="matrix(1,0,0,-1,58.6187,26.2433)"
       style="font-variant:normal;font-weight:normal;font-stretch:normal;font-size:8px;font-family:Georgia;-inkscape-font-specification:Georgia;writing-mode:lr-tb;fill:#231f20;fill-opacity:1;fill-rule:nonzero;stroke:none"
       id="text366"><tspan
         x="0"
         y="-4"
         sodipodi:role="line"
         id="tspan364">Sarafu za</tspan><tspan
         x="0"
         y="7"
         sodipodi:role="line"
         id="tspan364">dhahabu na fedha</tspan></text>
<g
       id="g368"><g
         id="g370"
         clip-path="url(#clipPath374)"><g
           id="g376"
           transform="translate(277.8464,16.7775)"><path
             d="M 0,0 V 96.383 H -252.221 V 0"
             style="fill:none;stroke:#231f20;stroke-width:0.5;stroke-linecap:butt;stroke-linejoin:miter;stroke-miterlimit:10;stroke-dasharray:none;stroke-opacity:1"
             id="path378"
             inkscape:connector-curvature="0" /></g><g
           id="g380"
           transform="translate(151.7361,56.5505)"><path
             d="M 0,0 V -40.002"
             style="fill:none;stroke:#231f20;stroke-width:0.25;stroke-linecap:butt;stroke-linejoin:miter;stroke-miterlimit:10;stroke-dasharray:none;stroke-opacity:1"
             id="path382"
             inkscape:connector-curvature="0" /></g><g
           id="g384"
           transform="translate(255.2283,56.5505)"><path
             d="M 0,0 V -40.002"
             style="fill:none;stroke:#231f20;stroke-width:0.25;stroke-linecap:butt;stroke-linejoin:miter;stroke-miterlimit:10;stroke-dasharray:none;stroke-opacity:1"
             id="path386"
             inkscape:connector-curvature="0" /></g><g
           id="g388"
           transform="translate(47.8181,56.5505)"><path
             d="M 0,0 V -40.002"
             style="fill:none;stroke:#231f20;stroke-width:0.25;stroke-linecap:butt;stroke-linejoin:miter;stroke-miterlimit:10;stroke-dasharray:none;stroke-opacity:1"
             id="path390"
             inkscape:connector-curvature="0" /></g><g
           id="g392"
           transform="translate(47.8181,39.5495)"><path
             d="M 0,0 H 207.41"
             style="fill:none;stroke:#231f20;stroke-width:0.25;stroke-linecap:butt;stroke-linejoin:miter;stroke-miterlimit:10;stroke-dasharray:none;stroke-opacity:1"
             id="path394"
             inkscape:connector-curvature="0" /></g><g
           id="g396"
           transform="translate(47.8181,57.2707)"><path
             d="M 0,0 H 207.41"
             style="fill:none;stroke:#231f20;stroke-width:0.25;stroke-linecap:butt;stroke-linejoin:miter;stroke-miterlimit:10;stroke-dasharray:none;stroke-opacity:1"
             id="path398"
             inkscape:connector-curvature="0" /></g><path
           d="M 277.846,12.843 H 25.625 v 3.594 h 252.221 z"
           style="fill:#e9e9e9;fill-opacity:1;fill-rule:nonzero;stroke:#e9e9e9;stroke-width:0.5;stroke-linecap:butt;stroke-linejoin:miter;stroke-miterlimit:10;stroke-dasharray:none;stroke-opacity:1"
           id="path400"
           inkscape:connector-curvature="0" /></g></g></g></svg>