<?xml version="1.0" encoding="UTF-8" standalone="no"?>
<!-- Created with Inkscape (http://www.inkscape.org/) -->

<svg
   xmlns:dc="http://purl.org/dc/elements/1.1/"
   xmlns:cc="http://creativecommons.org/ns#"
   xmlns:rdf="http://www.w3.org/1999/02/22-rdf-syntax-ns#"
   xmlns:svg="http://www.w3.org/2000/svg"
   xmlns="http://www.w3.org/2000/svg"
   xmlns:sodipodi="http://sodipodi.sourceforge.net/DTD/sodipodi-0.dtd"
   xmlns:inkscape="http://www.inkscape.org/namespaces/inkscape"
   version="1.1"
   id="svg2"
   xml:space="preserve"
   width="404.62933"
   height="167.384"
   viewBox="0 0 404.62933 167.384"
   sodipodi:docname="01-Pyramid-graphics-FIN.svg"
   inkscape:version="0.92.5 (2060ec1f9f, 2020-04-08)"
   style="background-color:white"><metadata
     id="metadata8"><rdf:RDF><cc:Work
         rdf:about=""><dc:format>image/svg+xml</dc:format><dc:type
           rdf:resource="http://purl.org/dc/dcmitype/StillImage" /><dc:title></dc:title></cc:Work></rdf:RDF></metadata><defs
     id="defs6"><clipPath
       clipPathUnits="userSpaceOnUse"
       id="clipPath62"><path
         d="M 0,125.538 H 303.472 V 0 H 0 Z"
         id="path60"
         inkscape:connector-curvature="0" /></clipPath></defs><sodipodi:namedview
     pagecolor="#ffffff"
     bordercolor="#666666"
     borderopacity="1"
     objecttolerance="10"
     gridtolerance="10"
     guidetolerance="10"
     inkscape:pageopacity="0"
     inkscape:pageshadow="2"
     inkscape:window-width="1920"
     inkscape:window-height="1016"
     id="namedview4"
     showgrid="false"
     inkscape:zoom="0.9613737"
     inkscape:cx="202.31467"
     inkscape:cy="83.692001"
     inkscape:window-x="0"
     inkscape:window-y="27"
     inkscape:window-maximized="1"
     inkscape:current-layer="g10" /><g
     id="g10"
     inkscape:groupmode="layer"
     inkscape:label="Pyramid-graphics-FIN"
     transform="matrix(1.3333333,0,0,-1.3333333,0,167.384)"><text
       transform="matrix(1,0,0,-1,57.9229,63.4644)"
       style="font-variant:normal;font-weight:normal;font-stretch:normal;font-size:9px;font-family:'Engravers LH Bold Face';-inkscape-font-specification:EngraversLH-BoldFace;writing-mode:lr-tb;fill:#231f20;fill-opacity:1;fill-rule:nonzero;stroke:none"
       id="text14"><tspan
         x="-20"
         y="0"
         sodipodi:role="line"
         id="tspan12">United States Bazi rekuchengetedza Bepa rekuchengetedza mari</tspan></text>
<text
       transform="matrix(1,0,0,-1,162.4669,46.0764)"
       style="font-style:italic;font-variant:normal;font-weight:normal;font-stretch:normal;font-size:9px;font-family:Georgia;-inkscape-font-specification:Georgia-Italic;writing-mode:lr-tb;fill:#231f20;fill-opacity:1;fill-rule:nonzero;stroke:none"
       id="text18"><tspan
         x="0"
         y="0"
         sodipodi:role="line"
         id="tspan16">Zvisingabatike </tspan></text>
<text
       transform="matrix(1,0,0,-1,162.4669,27.2754)"
       style="font-variant:normal;font-weight:normal;font-stretch:normal;font-size:9px;font-family:Georgia;-inkscape-font-specification:Georgia;writing-mode:lr-tb;fill:#231f20;fill-opacity:1;fill-rule:nonzero;stroke:none"
       id="text22"><tspan
         x="0"
         y="0"
         sodipodi:role="line"
         id="tspan20">Mapepa egoridhe</tspan></text>
<text
       transform="matrix(1,0,0,-1,58.6159,45.8334)"
       style="font-style:italic;font-variant:normal;font-weight:normal;font-stretch:normal;font-size:9px;font-family:Georgia;-inkscape-font-specification:Georgia-Italic;writing-mode:lr-tb;fill:#231f20;fill-opacity:1;fill-rule:nonzero;stroke:none"
       id="text26"><tspan
         x="0"
         y="0"
         sodipodi:role="line"
         id="tspan24">Zvinobatika</tspan></text>
<text
       transform="matrix(1,0,0,-1,58.6159,27.0324)"
       style="font-variant:normal;font-weight:normal;font-stretch:normal;font-size:9px;font-family:Georgia;-inkscape-font-specification:Georgia;writing-mode:lr-tb;fill:#231f20;fill-opacity:1;fill-rule:nonzero;stroke:none"
       id="text30"><tspan
         x="0"
         y="0"
         sodipodi:role="line"
         id="tspan28">Koini regoridhe</tspan></text>
<g
       id="g32"
       transform="translate(151.7363,57.3398)"><path
         d="M 0,0 V -42.799"
         style="fill:none;stroke:#231f20;stroke-width:0.25;stroke-linecap:butt;stroke-linejoin:miter;stroke-miterlimit:10;stroke-dasharray:none;stroke-opacity:1"
         id="path34"
         inkscape:connector-curvature="0" /></g><g
       id="g36"
       transform="translate(47.8184,57.3398)"><path
         d="M 0,0 V -42.799"
         style="fill:none;stroke:#231f20;stroke-width:0.25;stroke-linecap:butt;stroke-linejoin:miter;stroke-miterlimit:10;stroke-dasharray:none;stroke-opacity:1"
         id="path38"
         inkscape:connector-curvature="0" /></g><g
       id="g40"
       transform="translate(255.2285,57.3398)"><path
         d="M 0,0 V -42.799"
         style="fill:none;stroke:#231f20;stroke-width:0.25;stroke-linecap:butt;stroke-linejoin:miter;stroke-miterlimit:10;stroke-dasharray:none;stroke-opacity:1"
         id="path42"
         inkscape:connector-curvature="0" /></g><g
       id="g44"
       transform="translate(47.8184,40.3388)"><path
         d="M 0,0 H 207.41"
         style="fill:none;stroke:#231f20;stroke-width:0.25;stroke-linecap:butt;stroke-linejoin:miter;stroke-miterlimit:10;stroke-dasharray:none;stroke-opacity:1"
         id="path46"
         inkscape:connector-curvature="0" /></g><g
       id="g48"
       transform="translate(47.8184,57.3398)"><path
         d="M 0,0 H 207.41"
         style="fill:none;stroke:#231f20;stroke-width:0.25;stroke-linecap:butt;stroke-linejoin:miter;stroke-miterlimit:10;stroke-dasharray:none;stroke-opacity:1"
         id="path50"
         inkscape:connector-curvature="0" /></g><g
       id="g52"
       transform="translate(277.8467,17.1796)"><path
         d="M 0,0 V 96.77 H -252.221 V 0"
         style="fill:none;stroke:#231f20;stroke-width:0.5;stroke-linecap:butt;stroke-linejoin:miter;stroke-miterlimit:10;stroke-dasharray:none;stroke-opacity:1"
         id="path54"
         inkscape:connector-curvature="0" /></g><g
       id="g56"><g
         id="g58"
         clip-path="url(#clipPath62)"><g
           id="g64"
           transform="translate(169.5234,90.2929)"><path
             d="m 0,0 c 0,-9.941 -8.059,-18 -18,-18 -9.941,0 -18,8.059 -18,18 0,9.941 8.059,18 18,18 C -8.059,18 0,9.941 0,0"
             style="fill:#ffffff;fill-opacity:1;fill-rule:nonzero;stroke:none"
             id="path66"
             inkscape:connector-curvature="0" /></g><g
           id="g68"
           transform="translate(151.5347,107.1059)"><path
             d="m 0,0 c 9.301,-0.02 16.802,-7.532 16.799,-16.798 -0.003,-9.358 -7.546,-16.841 -16.854,-16.827 -9.27,0.013 -16.782,7.566 -16.767,16.817 C -16.806,-7.515 -9.268,0.017 0,0"
             style="fill:#615f5f;fill-opacity:1;fill-rule:nonzero;stroke:none"
             id="path70"
             inkscape:connector-curvature="0" /></g><g
           id="g72"
           transform="translate(167.9126,90.246)"><path
             d="m 0,0 c -0.015,-9.117 -7.372,-16.396 -16.381,-16.386 -9.039,0.01 -16.334,7.312 -16.349,16.356 -0.015,9.03 7.306,16.358 16.361,16.376 C -7.365,16.364 -0.009,9.019 0,0"
             style="fill:#ffffff;fill-opacity:1;fill-rule:nonzero;stroke:none"
             id="path74"
             inkscape:connector-curvature="0" /></g><g
           id="g76"
           transform="translate(151.5093,74.1493)"><path
             d="m 0,0 c -8.868,0.022 -16.063,7.243 -16.039,16.095 0.025,8.91 7.24,16.08 16.151,16.049 C 8.945,32.114 16.123,24.892 16.108,16.082 16.094,7.208 8.925,-0.005 0,0"
             style="fill:#615e5f;fill-opacity:1;fill-rule:nonzero;stroke:none"
             id="path78"
             inkscape:connector-curvature="0" /></g><g
           id="g80"
           transform="translate(151.5122,77.7655)"><path
             d="m 0,0 c -6.762,0.025 -12.323,5.436 -12.419,12.279 -0.099,6.936 5.414,12.465 12.131,12.63 6.995,0.172 12.6,-5.372 12.771,-12.116 C 12.661,5.794 7.066,0.004 0,0"
             style="fill:#ffffff;fill-opacity:1;fill-rule:nonzero;stroke:none"
             id="path82"
             inkscape:connector-curvature="0" /></g><g
           id="g84"
           transform="translate(138.0366,89.6547)"><path
             d="M 0,0 C 0.17,-0.02 0.324,-0.042 0.478,-0.053 0.565,-0.06 0.554,-0.125 0.562,-0.174 0.642,-0.68 0.746,-1.184 0.789,-1.693 0.817,-2.028 0.96,-2.319 1.035,-2.635 1.044,-2.675 1.118,-2.73 1.022,-2.773 0.924,-2.818 0.924,-2.74 0.902,-2.69 0.859,-2.591 0.79,-2.562 0.687,-2.595 0.5,-2.657 0.311,-2.715 0.123,-2.773 0.068,-2.791 0.053,-2.813 0.075,-2.875 c 0.083,-0.229 0.16,-0.461 0.234,-0.693 0.02,-0.063 0.047,-0.068 0.102,-0.049 0.169,0.058 0.338,0.113 0.508,0.167 0.128,0.042 0.186,0.123 0.146,0.258 -0.016,0.055 -0.028,0.096 0.049,0.115 0.073,0.019 0.078,-0.032 0.092,-0.074 C 1.285,-3.392 1.362,-3.633 1.437,-3.875 1.45,-3.913 1.484,-3.958 1.407,-3.986 1.331,-4.015 1.32,-3.969 1.303,-3.922 1.259,-3.805 1.188,-3.765 1.061,-3.807 0.589,-3.964 0.116,-4.116 -0.358,-4.266 c -0.123,-0.039 -0.143,-0.122 -0.118,-0.23 0.013,-0.055 0.021,-0.094 -0.054,-0.115 -0.083,-0.023 -0.073,0.042 -0.084,0.076 -0.081,0.24 -0.157,0.482 -0.235,0.723 -0.015,0.045 -0.042,0.087 0.031,0.109 0.059,0.018 0.089,-0.005 0.106,-0.057 0.045,-0.138 0.136,-0.16 0.265,-0.113 0.159,0.058 0.322,0.104 0.483,0.154 0.054,0.016 0.071,0.041 0.051,0.099 -0.078,0.222 -0.153,0.444 -0.224,0.667 -0.023,0.072 -0.054,0.085 -0.123,0.061 -0.155,-0.056 -0.31,-0.109 -0.468,-0.155 -0.129,-0.038 -0.178,-0.117 -0.137,-0.243 0.02,-0.063 0.006,-0.093 -0.056,-0.115 -0.083,-0.03 -0.072,0.044 -0.083,0.077 -0.082,0.24 -0.159,0.482 -0.236,0.723 -0.014,0.042 -0.043,0.086 0.029,0.111 0.061,0.022 0.087,-0.003 0.105,-0.054 0.048,-0.149 0.145,-0.156 0.278,-0.112 0.441,0.147 0.884,0.285 1.326,0.429 0.186,0.061 0.181,0.074 0.175,0.273 -0.002,0.084 0.012,0.165 -0.018,0.25 -0.032,0.091 -0.083,0.13 -0.178,0.115 -0.511,-0.081 -1.021,-0.163 -1.531,-0.244 -0.105,-0.017 -0.14,-0.082 -0.131,-0.181 0.005,-0.052 0.015,-0.102 -0.064,-0.112 -0.091,-0.012 -0.07,0.054 -0.078,0.099 -0.08,0.501 -0.157,1.003 -0.242,1.503 -0.014,0.084 0,0.121 0.088,0.132 0.111,0.013 0.222,0.037 0.333,0.057 0.044,0.008 0.084,0.009 0.096,-0.049 0.01,-0.051 0.007,-0.084 -0.05,-0.112 -0.223,-0.109 -0.237,-0.138 -0.204,-0.38 0.021,-0.154 0.047,-0.307 0.068,-0.46 0.009,-0.073 0.033,-0.109 0.118,-0.093 0.171,0.033 0.343,0.057 0.515,0.082 0.071,0.01 0.108,0.03 0.086,0.117 -0.031,0.127 -0.05,0.258 -0.067,0.388 -0.018,0.138 -0.088,0.213 -0.23,0.213 -0.059,0 -0.111,-0.002 -0.117,0.083 -0.005,0.089 0.059,0.068 0.103,0.076 0.199,0.035 0.398,0.069 0.598,0.1 0.037,0.006 0.083,0.029 0.096,-0.041 0.012,-0.059 0.014,-0.103 -0.055,-0.117 -0.166,-0.034 -0.205,-0.143 -0.179,-0.294 0.027,-0.152 -0.001,-0.357 0.088,-0.442 0.081,-0.078 0.28,0.022 0.428,0.042 0.083,0.011 0.166,0.031 0.25,0.038 0.079,0.005 0.109,0.039 0.099,0.117 -0.02,0.168 -0.041,0.335 -0.082,0.5 C 0.362,-0.372 0.242,-0.243 0.041,-0.187 0,-0.175 -0.054,-0.177 -0.066,-0.113 -0.082,-0.041 -0.1,0.026 0,0"
             style="fill:#ffffff;fill-opacity:1;fill-rule:nonzero;stroke:none"
             id="path86"
             inkscape:connector-curvature="0" /></g><g
           id="g88"
           transform="translate(144.2236,102.7187)"><path
             d="M 0,0 C 0.089,-0.508 0.181,-1.016 0.266,-1.524 0.278,-1.597 0.34,-1.687 0.263,-1.746 0.178,-1.812 0.119,-1.713 0.057,-1.677 c -0.383,0.229 -0.762,0.464 -1.143,0.697 -0.038,0.023 -0.078,0.043 -0.137,0.043 0.223,-0.322 0.445,-0.646 0.672,-0.965 0.071,-0.099 0.169,-0.112 0.272,-0.044 0.045,0.029 0.077,0.037 0.115,-0.017 0.046,-0.066 -0.006,-0.082 -0.042,-0.106 -0.179,-0.121 -0.358,-0.242 -0.538,-0.362 -0.036,-0.025 -0.068,-0.051 -0.1,0.007 -0.023,0.042 -0.03,0.066 0.012,0.106 0.163,0.152 0.166,0.163 0.044,0.348 -0.251,0.381 -0.505,0.759 -0.761,1.136 -0.109,0.159 -0.137,0.165 -0.309,0.078 -0.05,-0.025 -0.081,-0.033 -0.118,0.018 -0.046,0.065 0.006,0.08 0.043,0.105 0.136,0.092 0.275,0.18 0.407,0.278 0.064,0.047 0.109,0.043 0.174,0.002 0.395,-0.245 0.793,-0.486 1.19,-0.728 0.039,-0.024 0.079,-0.045 0.149,-0.084 -0.04,0.227 -0.074,0.427 -0.11,0.627 -0.055,0.305 -0.109,0.61 -0.169,0.914 -0.012,0.058 -0.012,0.095 0.042,0.13 0.15,0.097 0.297,0.199 0.445,0.3 C 0.232,0.831 0.263,0.851 0.301,0.801 0.339,0.75 0.328,0.72 0.279,0.688 0.148,0.604 0.146,0.49 0.225,0.373 0.486,-0.018 0.749,-0.407 1.016,-0.794 1.095,-0.909 1.202,-0.952 1.329,-0.859 1.381,-0.82 1.409,-0.841 1.44,-0.888 1.479,-0.945 1.435,-0.958 1.401,-0.981 1.184,-1.129 0.966,-1.277 0.748,-1.425 c -0.034,-0.023 -0.065,-0.056 -0.105,0 -0.035,0.048 -0.037,0.08 0.017,0.113 0.134,0.085 0.126,0.188 0.043,0.31 C 0.473,-0.667 0.247,-0.328 0.02,0.01 0.013,0.006 0.006,0.003 0,0"
             style="fill:#ffffff;fill-opacity:1;fill-rule:nonzero;stroke:none"
             id="path90"
             inkscape:connector-curvature="0" /></g><g
           id="g92"
           transform="translate(158.8833,101.0028)"><path
             d="M 0,0 C 0.011,-0.006 0.023,-0.014 0.036,-0.019 0.24,-0.102 0.241,-0.103 0.364,0.074 0.455,0.206 0.541,0.34 0.634,0.47 0.677,0.53 0.687,0.566 0.614,0.613 0.42,0.737 0.23,0.869 0.042,1 -0.005,1.033 -0.033,1.042 -0.07,0.986 -0.175,0.825 -0.285,0.667 -0.396,0.509 -0.465,0.41 -0.452,0.327 -0.356,0.254 -0.312,0.22 -0.261,0.191 -0.322,0.122 -0.381,0.054 -0.415,0.119 -0.45,0.142 c -0.207,0.137 -0.412,0.279 -0.618,0.42 -0.037,0.025 -0.085,0.042 -0.04,0.106 0.039,0.056 0.073,0.046 0.116,0.015 C -0.87,0.596 -0.786,0.644 -0.711,0.754 -0.443,1.151 -0.173,1.547 0.1,1.941 0.178,2.054 0.184,2.146 0.062,2.227 0.019,2.254 -0.008,2.282 0.031,2.338 0.072,2.396 0.106,2.373 0.147,2.345 0.36,2.198 0.574,2.053 0.787,1.906 0.817,1.885 0.87,1.871 0.831,1.812 0.8,1.765 0.77,1.745 0.717,1.783 0.584,1.878 0.495,1.822 0.417,1.701 0.334,1.57 0.246,1.442 0.154,1.317 0.11,1.257 0.101,1.221 0.173,1.174 0.366,1.048 0.555,0.917 0.742,0.782 0.797,0.743 0.826,0.746 0.863,0.803 0.957,0.949 1.054,1.093 1.155,1.235 1.228,1.336 1.229,1.422 1.124,1.5 1.078,1.534 1.034,1.564 1.091,1.633 1.153,1.706 1.185,1.633 1.217,1.612 1.421,1.478 1.621,1.337 1.822,1.199 1.863,1.171 1.92,1.155 1.873,1.082 1.827,1.013 1.789,1.049 1.745,1.076 1.635,1.141 1.555,1.113 1.484,1.007 1.211,0.602 0.935,0.199 0.658,-0.204 0.586,-0.308 0.593,-0.396 0.698,-0.469 0.746,-0.502 0.773,-0.53 0.729,-0.591 0.684,-0.656 0.651,-0.612 0.616,-0.588 c -0.214,0.144 -0.428,0.29 -0.641,0.437 -0.026,0.018 -0.079,0.031 -0.04,0.083 C -0.047,-0.043 -0.042,-0.005 0,0"
             style="fill:#ffffff;fill-opacity:1;fill-rule:nonzero;stroke:none"
             id="path94"
             inkscape:connector-curvature="0" /></g><g
           id="g96"
           transform="translate(140.9229,99.1625)"><path
             d="m 0,0 c 0.334,0 0.667,-0.001 0.999,0.001 0.068,0 0.129,0.033 0.172,0.085 0.038,0.047 0.066,0.031 0.105,0.003 0.055,-0.037 0.028,-0.067 0,-0.101 C 1.191,-0.119 1.103,-0.223 1.022,-0.333 0.983,-0.385 0.936,-0.396 0.876,-0.396 0.552,-0.397 0.227,-0.399 -0.098,-0.405 c -0.065,-0.001 -0.153,0.036 -0.186,-0.054 -0.031,-0.088 0.067,-0.099 0.111,-0.136 0.114,-0.098 0.239,-0.183 0.356,-0.278 0.1,-0.08 0.186,-0.073 0.269,0.024 0.031,0.036 0.055,0.088 0.122,0.036 C 0.642,-0.867 0.595,-0.899 0.565,-0.938 0.413,-1.136 0.262,-1.334 0.108,-1.53 0.084,-1.561 0.072,-1.625 0.002,-1.577 c -0.059,0.042 -0.05,0.076 -0.014,0.125 0.075,0.104 0.05,0.187 -0.051,0.264 -0.387,0.292 -0.772,0.585 -1.155,0.882 -0.102,0.079 -0.192,0.094 -0.281,-0.013 -0.036,-0.044 -0.071,-0.052 -0.118,-0.013 -0.053,0.044 -0.015,0.074 0.01,0.106 0.183,0.239 0.365,0.478 0.551,0.715 0.079,0.1 0.174,0.185 0.283,0.253 C -0.55,0.88 -0.322,0.872 -0.13,0.72 0.064,0.567 0.118,0.371 0.037,0.115 0.023,0.071 0.009,0.027 0,0"
             style="fill:#ffffff;fill-opacity:1;fill-rule:nonzero;stroke:none"
             id="path98"
             inkscape:connector-curvature="0" /></g><g
           id="g100"
           transform="translate(164.8721,86.4047)"><path
             d="M 0,0 C -0.326,-0.137 -0.633,-0.264 -0.938,-0.396 -1,-0.422 -1.046,-0.474 -1.069,-0.538 c -0.02,-0.056 -0.05,-0.055 -0.097,-0.039 -0.057,0.018 -0.058,0.052 -0.037,0.097 0.005,0.013 0.011,0.026 0.013,0.04 0.033,0.327 0.211,0.507 0.532,0.586 0.226,0.055 0.439,0.165 0.659,0.244 0.057,0.021 0.09,0.05 0.093,0.108 C 0.098,0.57 0.031,0.553 -0.006,0.565 -0.162,0.616 -0.321,0.658 -0.477,0.709 -0.604,0.75 -0.688,0.719 -0.73,0.59 -0.748,0.537 -0.764,0.491 -0.837,0.521 c -0.065,0.027 -0.042,0.073 -0.029,0.117 0.072,0.242 0.144,0.486 0.217,0.728 0.011,0.037 0.013,0.09 0.081,0.065 C -0.523,1.415 -0.494,1.395 -0.509,1.34 -0.556,1.173 -0.457,1.117 -0.319,1.077 0.126,0.947 0.572,0.815 1.015,0.677 1.146,0.636 1.236,0.653 1.282,0.792 1.3,0.846 1.331,0.865 1.388,0.845 1.461,0.82 1.426,0.774 1.413,0.731 1.329,0.454 1.244,0.175 1.158,-0.103 1.117,-0.239 1.055,-0.365 0.967,-0.477 0.808,-0.677 0.597,-0.745 0.366,-0.671 0.15,-0.603 0.014,-0.417 0,-0.17 -0.002,-0.124 0,-0.077 0,0"
             style="fill:#ffffff;fill-opacity:1;fill-rule:nonzero;stroke:none"
             id="path102"
             inkscape:connector-curvature="0" /></g><g
           id="g104"
           transform="translate(163.8359,96.6225)"><path
             d="m 0,0 c -0.127,-0.288 -0.253,-0.571 -0.378,-0.854 -0.039,-0.085 -0.056,-0.174 -0.019,-0.26 0.029,-0.07 -0.016,-0.08 -0.056,-0.103 -0.057,-0.032 -0.06,0.021 -0.079,0.049 -0.008,0.012 -0.011,0.026 -0.019,0.038 -0.2,0.258 -0.199,0.512 -0.021,0.791 0.123,0.192 0.201,0.413 0.301,0.62 0.026,0.053 0.05,0.106 0.001,0.155 C -0.324,0.489 -0.364,0.427 -0.404,0.408 -0.552,0.336 -0.696,0.256 -0.844,0.185 -0.953,0.131 -0.986,0.054 -0.937,-0.057 c 0.023,-0.052 0.055,-0.099 -0.026,-0.135 -0.095,-0.043 -0.087,0.046 -0.107,0.083 -0.113,0.211 -0.22,0.425 -0.326,0.64 -0.02,0.04 -0.073,0.081 0.003,0.127 0.067,0.04 0.089,0.003 0.117,-0.045 0.059,-0.104 0.14,-0.126 0.249,-0.07 0.438,0.225 0.877,0.449 1.318,0.67 C 0.416,1.275 0.437,1.362 0.38,1.478 0.356,1.527 0.368,1.553 0.416,1.577 0.458,1.597 0.483,1.595 0.504,1.549 0.677,1.175 0.925,0.833 1.02,0.425 1.112,0.029 0.834,-0.307 0.452,-0.273 0.281,-0.258 0.159,-0.156 0.047,-0.037 0.035,-0.024 0.019,-0.015 0,0"
             style="fill:#ffffff;fill-opacity:1;fill-rule:nonzero;stroke:none"
             id="path106"
             inkscape:connector-curvature="0" /></g><g
           id="g108"
           transform="translate(138.6963,91.0468)"><path
             d="m 0,0 c -0.015,-0.276 -0.027,-0.506 -0.039,-0.736 -0.002,-0.048 0.003,-0.092 -0.07,-0.092 -0.072,0 -0.073,0.04 -0.071,0.09 0.004,0.138 -0.067,0.187 -0.2,0.193 -0.497,0.021 -0.995,0.048 -1.492,0.076 -0.105,0.006 -0.162,-0.034 -0.17,-0.138 -0.006,-0.064 -0.01,-0.126 -0.103,-0.111 -0.091,0.015 -0.045,0.08 -0.043,0.121 0.021,0.385 0.006,0.773 0.093,1.151 0.159,0.698 0.791,1.031 1.448,0.767 C -0.253,1.163 -0.065,0.852 -0.008,0.446 0.015,0.283 0.018,0.119 0,0"
             style="fill:#ffffff;fill-opacity:1;fill-rule:nonzero;stroke:none"
             id="path110"
             inkscape:connector-curvature="0" /></g><g
           id="g112"
           transform="translate(149.0024,103.6347)"><path
             d="M 0,0 C -0.068,0.359 -0.14,0.712 -0.263,1.051 -0.302,1.158 -0.385,1.184 -0.491,1.165 -0.539,1.156 -0.589,1.139 -0.608,1.219 -0.63,1.31 -0.563,1.296 -0.521,1.309 -0.358,1.355 -0.195,1.4 -0.032,1.441 0.052,1.462 0.123,1.487 0.095,1.614 0.16,1.552 0.156,1.485 0.182,1.431 0.208,1.379 0.179,1.359 0.135,1.336 -0.04,1.246 -0.059,1.217 -0.01,1.029 0.125,0.502 0.269,-0.022 0.405,-0.549 c 0.012,-0.048 0.069,-0.108 0.013,-0.152 -0.064,-0.05 -0.12,0.002 -0.174,0.041 -0.489,0.359 -0.979,0.716 -1.469,1.073 -0.041,0.03 -0.083,0.058 -0.152,0.107 0.119,-0.426 0.229,-0.823 0.342,-1.219 0.034,-0.113 0.11,-0.169 0.235,-0.15 0.038,0.006 0.096,0.044 0.112,-0.036 0.015,-0.078 -0.035,-0.091 -0.096,-0.106 -0.195,-0.051 -0.388,-0.109 -0.584,-0.157 -0.029,-0.008 -0.081,-0.059 -0.104,0.009 -0.017,0.051 -0.011,0.093 0.053,0.123 0.181,0.085 0.195,0.108 0.145,0.306 -0.114,0.45 -0.235,0.897 -0.356,1.346 -0.036,0.133 -0.141,0.169 -0.263,0.153 -0.06,-0.008 -0.096,-0.008 -0.111,0.061 -0.017,0.075 0.041,0.07 0.083,0.083 0.467,0.138 0.467,0.138 0.856,-0.148 C -0.71,0.524 -0.355,0.262 0,0"
             style="fill:#ffffff;fill-opacity:1;fill-rule:nonzero;stroke:none"
             id="path114"
             inkscape:connector-curvature="0" /></g><g
           id="g116"
           transform="translate(153.9937,104.2338)"><path
             d="m 0,0 c 0.001,-0.766 -0.555,-1.256 -1.288,-1.135 -0.647,0.107 -0.989,0.724 -0.797,1.439 0.125,0.468 0.525,0.778 1.014,0.785 C -0.595,1.097 -0.172,0.78 -0.044,0.32 -0.015,0.215 0.002,0.109 0,0"
             style="fill:#ffffff;fill-opacity:1;fill-rule:nonzero;stroke:none"
             id="path118"
             inkscape:connector-curvature="0" /></g><g
           id="g120"
           transform="translate(147.2983,103.1083)"><path
             d="m 0,0 c 0.03,-0.174 0.056,-0.341 0.088,-0.507 0.014,-0.076 -0.004,-0.118 -0.08,-0.151 -0.473,-0.205 -0.944,-0.417 -1.416,-0.626 -0.044,-0.019 -0.089,-0.063 -0.129,0.013 -0.039,0.075 0.018,0.09 0.061,0.113 0.098,0.053 0.111,0.121 0.065,0.222 -0.21,0.461 -0.416,0.924 -0.619,1.389 -0.046,0.106 -0.114,0.129 -0.212,0.093 -0.053,-0.019 -0.097,-0.035 -0.123,0.037 -0.025,0.07 0.03,0.078 0.071,0.096 0.471,0.212 0.942,0.422 1.413,0.635 0.066,0.03 0.098,0.019 0.127,-0.048 0.045,-0.108 0.098,-0.213 0.15,-0.319 0.02,-0.04 0.041,-0.078 -0.019,-0.101 C -0.664,0.831 -0.696,0.803 -0.744,0.857 -0.914,1.048 -0.95,1.052 -1.19,0.952 -1.329,0.895 -1.465,0.832 -1.604,0.774 -1.669,0.748 -1.688,0.713 -1.657,0.646 -1.58,0.48 -1.506,0.312 -1.434,0.145 c 0.022,-0.05 0.041,-0.075 0.102,-0.044 0.135,0.066 0.274,0.122 0.41,0.187 0.104,0.05 0.161,0.127 0.118,0.251 -0.02,0.058 -0.037,0.116 0.049,0.147 0.095,0.034 0.088,-0.048 0.108,-0.089 0.083,-0.179 0.161,-0.36 0.242,-0.54 0.02,-0.045 0.038,-0.083 -0.026,-0.113 -0.051,-0.024 -0.076,-0.019 -0.113,0.03 C -0.667,0.137 -0.702,0.143 -0.888,0.066 -1,0.02 -1.112,-0.031 -1.225,-0.077 -1.288,-0.102 -1.314,-0.126 -1.279,-0.2 c 0.09,-0.186 0.174,-0.375 0.251,-0.567 0.034,-0.086 0.084,-0.088 0.153,-0.057 0.141,0.063 0.283,0.124 0.422,0.193 0.188,0.092 0.301,0.24 0.298,0.456 C -0.156,-0.072 -0.113,-0.018 0,0"
             style="fill:#ffffff;fill-opacity:1;fill-rule:nonzero;stroke:none"
             id="path122"
             inkscape:connector-curvature="0" /></g><g
           id="g124"
           transform="translate(138.8311,93.7113)"><path
             d="M 0,0 C 0.009,0.159 -0.059,0.282 -0.174,0.384 -0.203,0.409 -0.233,0.431 -0.261,0.456 -0.311,0.5 -0.29,0.557 -0.272,0.6 -0.245,0.667 -0.198,0.609 -0.167,0.597 -0.032,0.542 0.099,0.479 0.233,0.423 0.294,0.399 0.324,0.37 0.308,0.298 0.196,-0.22 0.083,-0.739 -0.022,-1.259 c -0.018,-0.087 -0.07,-0.093 -0.132,-0.084 -0.082,0.011 -0.033,0.072 -0.028,0.109 0.012,0.109 -0.036,0.173 -0.138,0.195 -0.491,0.106 -0.982,0.21 -1.474,0.313 -0.105,0.022 -0.185,-0.008 -0.216,-0.125 -0.013,-0.05 -0.015,-0.116 -0.105,-0.089 -0.095,0.028 -0.041,0.091 -0.032,0.136 0.097,0.473 0.21,0.945 0.292,1.421 0.028,0.163 0.084,0.176 0.216,0.133 0.084,-0.026 0.175,-0.032 0.262,-0.051 0.032,-0.007 0.085,0 0.071,-0.061 C -1.315,0.594 -1.315,0.537 -1.384,0.542 -1.628,0.563 -1.696,0.404 -1.732,0.207 -1.759,0.064 -1.788,-0.079 -1.824,-0.22 c -0.017,-0.069 0.005,-0.095 0.068,-0.108 0.179,-0.036 0.359,-0.072 0.537,-0.112 0.066,-0.015 0.095,0.008 0.107,0.071 0.028,0.148 0.06,0.295 0.088,0.442 0.024,0.125 -0.042,0.197 -0.151,0.236 -0.058,0.02 -0.098,0.037 -0.078,0.118 0.024,0.095 0.081,0.041 0.119,0.034 0.198,-0.036 0.396,-0.077 0.593,-0.121 0.035,-0.007 0.095,0 0.083,-0.069 -0.01,-0.054 -0.024,-0.09 -0.096,-0.093 -0.214,-0.009 -0.223,-0.02 -0.272,-0.224 -0.029,-0.123 -0.053,-0.248 -0.083,-0.371 -0.015,-0.063 -0.018,-0.101 0.067,-0.114 0.205,-0.03 0.407,-0.072 0.61,-0.115 0.066,-0.014 0.105,-0.008 0.124,0.066 C -0.06,-0.389 -0.01,-0.198 0,0"
             style="fill:#ffffff;fill-opacity:1;fill-rule:nonzero;stroke:none"
             id="path126"
             inkscape:connector-curvature="0" /></g><g
           id="g128"
           transform="translate(164.1831,93.6928)"><path
             d="M 0,0 C -0.112,-0.037 -0.172,0.028 -0.214,0.164 -0.36,0.63 -0.519,1.091 -0.672,1.555 -0.686,1.598 -0.736,1.649 -0.658,1.686 -0.579,1.724 -0.562,1.665 -0.54,1.612 -0.499,1.512 -0.431,1.479 -0.326,1.514 0.15,1.673 0.627,1.83 1.104,1.988 1.216,2.025 1.262,2.097 1.226,2.215 1.21,2.268 1.208,2.314 1.28,2.333 1.359,2.355 1.351,2.292 1.364,2.253 1.527,1.769 1.686,1.283 1.851,0.799 1.879,0.719 1.872,0.681 1.788,0.656 1.68,0.624 1.575,0.583 1.469,0.545 1.427,0.531 1.385,0.518 1.368,0.579 1.354,0.623 1.34,0.658 1.395,0.697 1.595,0.84 1.605,0.878 1.536,1.107 1.491,1.255 1.438,1.401 1.393,1.549 1.372,1.618 1.351,1.653 1.266,1.621 1.1,1.556 0.93,1.503 0.759,1.451 0.696,1.431 0.673,1.409 0.698,1.341 0.749,1.205 0.792,1.066 0.84,0.929 0.879,0.816 0.954,0.761 1.078,0.785 1.138,0.796 1.201,0.811 1.221,0.722 1.244,0.618 1.154,0.637 1.106,0.62 0.93,0.555 0.752,0.496 0.574,0.437 0.529,0.423 0.482,0.389 0.45,0.47 0.422,0.543 0.46,0.564 0.509,0.586 0.641,0.645 0.674,0.741 0.628,0.874 0.583,1.007 0.539,1.141 0.502,1.277 0.484,1.347 0.454,1.351 0.394,1.33 0.199,1.261 0.003,1.194 -0.193,1.132 -0.268,1.109 -0.294,1.071 -0.272,0.999 -0.219,0.819 -0.17,0.638 -0.083,0.47 0.005,0.298 0.153,0.216 0.336,0.203 0.427,0.197 0.454,0.145 0.456,0.079 0.459,-0.008 0.382,0.035 0.341,0.029 0.239,0.015 0.135,0.011 0,0"
             style="fill:#ffffff;fill-opacity:1;fill-rule:nonzero;stroke:none"
             id="path130"
             inkscape:connector-curvature="0" /></g><g
           id="g132"
           transform="translate(160.9956,99.4272)"><path
             d="M 0,0 C 0.114,-0.002 0.196,0.021 0.272,0.057 0.349,0.095 0.393,0.048 0.424,0 0.469,-0.068 0.389,-0.071 0.358,-0.091 0.245,-0.167 0.124,-0.232 0.013,-0.311 c -0.069,-0.049 -0.109,-0.033 -0.165,0.02 -0.372,0.353 -0.749,0.702 -1.121,1.054 -0.03,0.029 -0.105,0.046 -0.052,0.119 0.051,0.07 0.091,0.038 0.137,-0.002 0.086,-0.075 0.168,-0.065 0.246,0.018 0.341,0.364 0.683,0.727 1.025,1.09 0.08,0.086 0.089,0.172 0.002,0.26 C 0.046,2.286 0.015,2.319 0.072,2.374 0.13,2.429 0.155,2.378 0.186,2.349 0.564,1.997 0.941,1.642 1.322,1.291 1.374,1.242 1.381,1.211 1.329,1.158 1.244,1.071 1.164,0.978 1.083,0.886 1.056,0.856 1.031,0.83 0.991,0.87 0.959,0.902 0.921,0.921 0.95,0.985 1.062,1.233 1.056,1.253 0.859,1.445 0.758,1.543 0.649,1.634 0.55,1.735 0.492,1.795 0.454,1.802 0.395,1.734 0.278,1.599 0.153,1.471 0.029,1.342 -0.01,1.302 -0.024,1.276 0.026,1.232 0.136,1.137 0.241,1.035 0.348,0.936 0.44,0.851 0.537,0.835 0.637,0.92 0.691,0.966 0.74,0.998 0.798,0.922 0.859,0.843 0.772,0.823 0.744,0.791 0.617,0.646 0.483,0.507 0.35,0.367 0.321,0.336 0.298,0.281 0.239,0.336 0.194,0.377 0.176,0.41 0.221,0.464 0.326,0.592 0.291,0.703 0.176,0.807 0.082,0.892 -0.01,0.98 -0.098,1.072 -0.147,1.124 -0.179,1.129 -0.23,1.071 -0.367,0.916 -0.512,0.767 -0.652,0.615 -0.683,0.582 -0.732,0.548 -0.682,0.497 -0.504,0.317 -0.343,0.116 -0.096,0.021 -0.058,0.007 -0.015,0.003 0,0"
             style="fill:#ffffff;fill-opacity:1;fill-rule:nonzero;stroke:none"
             id="path134"
             inkscape:connector-curvature="0" /></g><g
           id="g136"
           transform="translate(138.8174,95.8427)"><path
             d="m 0,0 c -0.007,-0.205 -0.056,-0.386 -0.133,-0.559 -0.032,-0.07 -0.016,-0.097 0.052,-0.119 0.147,-0.048 0.294,-0.097 0.438,-0.152 0.13,-0.049 0.22,-0.02 0.269,0.113 0.007,0.018 0.012,0.036 0.022,0.051 0.033,0.051 0.088,0.041 0.128,0.028 C 0.83,-0.656 0.796,-0.7 0.784,-0.732 0.698,-0.976 0.606,-1.217 0.526,-1.462 0.5,-1.543 0.444,-1.555 0.386,-1.542 0.312,-1.524 0.359,-1.465 0.37,-1.426 c 0.029,0.108 -0.015,0.167 -0.116,0.203 -0.469,0.165 -0.938,0.331 -1.406,0.5 -0.109,0.039 -0.194,0.031 -0.241,-0.088 -0.023,-0.057 -0.053,-0.085 -0.117,-0.055 -0.058,0.028 -0.032,0.069 -0.019,0.107 0.098,0.269 0.195,0.538 0.294,0.806 0.045,0.12 0.108,0.229 0.192,0.327 0.19,0.221 0.403,0.288 0.638,0.202 C -0.162,0.486 -0.002,0.253 0,0"
             style="fill:#ffffff;fill-opacity:1;fill-rule:nonzero;stroke:none"
             id="path138"
             inkscape:connector-curvature="0" /></g><g
           id="g140"
           transform="translate(166.3984,89.6625)"><path
             d="M 0,0 C 0.036,0.014 0.049,0.019 0.062,0.023 0.257,0.092 0.272,0.079 0.245,-0.128 0.216,-0.352 0.189,-0.576 0.156,-0.799 0.149,-0.845 0.166,-0.921 0.07,-0.91 c -0.082,0.009 -0.067,0.066 -0.064,0.115 0.009,0.125 -0.04,0.189 -0.172,0.204 -0.392,0.046 -0.782,0.109 -1.175,0.148 -0.303,0.03 -0.465,-0.123 -0.514,-0.451 -0.044,-0.291 0.095,-0.524 0.367,-0.575 0.384,-0.071 0.771,-0.116 1.16,-0.152 0.135,-0.012 0.231,0.029 0.256,0.176 0.009,0.053 0.028,0.084 0.093,0.069 0.061,-0.015 0.056,-0.048 0.05,-0.094 -0.028,-0.204 -0.052,-0.41 -0.08,-0.615 -0.006,-0.042 0.004,-0.1 -0.072,-0.096 -0.064,0.004 -0.07,0.042 -0.075,0.095 -0.02,0.184 -0.052,0.216 -0.244,0.243 -0.326,0.047 -0.653,0.083 -0.977,0.135 -0.541,0.089 -0.775,0.428 -0.677,0.966 0.096,0.529 0.362,0.732 0.897,0.681 0.131,-0.012 0.261,-0.032 0.391,-0.049 0.224,-0.029 0.448,-0.058 0.672,-0.085 0.067,-0.009 0.134,-0.004 0.172,0.066 C 0.114,-0.063 0.129,-0.004 0,0"
             style="fill:#ffffff;fill-opacity:1;fill-rule:nonzero;stroke:none"
             id="path142"
             inkscape:connector-curvature="0" /></g><g
           id="g144"
           transform="translate(155.3579,103.4433)"><path
             d="M 0,0 C 0.023,0.161 -0.037,0.237 -0.159,0.27 -0.291,0.306 -0.422,0.338 -0.553,0.378 -0.612,0.397 -0.639,0.383 -0.653,0.324 -0.7,0.127 -0.749,-0.068 -0.798,-0.264 -0.83,-0.39 -0.793,-0.477 -0.661,-0.51 c 0.048,-0.012 0.088,-0.019 0.068,-0.092 -0.02,-0.073 -0.062,-0.055 -0.107,-0.044 -0.25,0.063 -0.5,0.127 -0.75,0.192 -0.037,0.01 -0.092,0.008 -0.076,0.074 0.012,0.049 0.026,0.088 0.094,0.069 0.157,-0.043 0.221,0.045 0.255,0.183 0.114,0.455 0.233,0.909 0.347,1.364 0.033,0.128 0.018,0.235 -0.14,0.266 -0.053,0.011 -0.059,0.049 -0.05,0.098 0.014,0.065 0.053,0.048 0.096,0.037 C -0.415,1.507 0.094,1.375 0.604,1.249 0.671,1.232 0.685,1.202 0.67,1.141 0.641,1.022 0.612,0.904 0.586,0.785 0.577,0.74 0.559,0.719 0.51,0.728 0.461,0.736 0.425,0.743 0.418,0.809 0.39,1.084 0.382,1.091 0.118,1.164 -0.022,1.203 -0.165,1.232 -0.303,1.277 -0.375,1.3 -0.408,1.284 -0.425,1.215 -0.47,1.033 -0.515,0.851 -0.563,0.669 -0.577,0.616 -0.564,0.594 -0.509,0.582 -0.372,0.551 -0.236,0.51 -0.1,0.479 0.024,0.45 0.113,0.498 0.157,0.617 0.179,0.677 0.2,0.716 0.277,0.689 0.358,0.662 0.323,0.615 0.311,0.567 0.263,0.381 0.218,0.194 0.167,0.008 0.155,-0.036 0.181,-0.113 0.08,-0.098 -0.012,-0.084 -0.013,-0.036 0,0"
             style="fill:#ffffff;fill-opacity:1;fill-rule:nonzero;stroke:none"
             id="path146"
             inkscape:connector-curvature="0" /></g><g
           id="g148"
           transform="translate(164.4429,90.6156)"><path
             d="M 0,0 C -0.009,0.12 0.036,0.249 0.075,0.379 0.092,0.437 0.118,0.5 0.025,0.523 -0.024,0.536 -0.014,0.581 -0.013,0.618 -0.011,0.668 0.025,0.673 0.065,0.679 0.256,0.707 0.446,0.738 0.636,0.766 0.667,0.771 0.716,0.809 0.729,0.748 0.74,0.7 0.749,0.646 0.681,0.618 0.577,0.575 0.478,0.519 0.392,0.445 0.246,0.321 0.176,0.165 0.196,-0.029 0.208,-0.158 0.27,-0.253 0.393,-0.295 c 0.118,-0.04 0.232,-0.03 0.328,0.06 0.109,0.101 0.181,0.228 0.257,0.353 C 1.041,0.222 1.099,0.331 1.169,0.43 1.354,0.69 1.645,0.773 1.912,0.65 2.157,0.537 2.29,0.237 2.221,-0.055 2.208,-0.109 2.189,-0.163 2.173,-0.217 2.15,-0.291 2.102,-0.36 2.223,-0.411 2.275,-0.432 2.287,-0.528 2.197,-0.543 1.988,-0.577 1.777,-0.597 1.567,-0.622 1.53,-0.626 1.504,-0.619 1.501,-0.573 c -0.002,0.056 -0.002,0.103 0.068,0.117 0.108,0.022 0.2,0.079 0.284,0.149 0.109,0.094 0.17,0.214 0.178,0.356 C 2.038,0.168 2.002,0.277 1.885,0.332 1.77,0.385 1.665,0.352 1.575,0.266 1.497,0.19 1.44,0.098 1.385,0.004 1.303,-0.133 1.228,-0.274 1.134,-0.403 0.935,-0.679 0.691,-0.77 0.429,-0.682 0.161,-0.591 0.001,-0.346 0,0"
             style="fill:#ffffff;fill-opacity:1;fill-rule:nonzero;stroke:none"
             id="path150"
             inkscape:connector-curvature="0" /></g><g
           id="g152"
           transform="translate(138.4673,97.5019)"><path
             d="M 0,0 C 0.65,-0.049 1.283,-0.098 1.916,-0.145 2.019,-0.152 2.126,-0.164 2.191,-0.051 2.22,0 2.254,-0.037 2.287,-0.05 2.34,-0.072 2.322,-0.105 2.303,-0.14 2.187,-0.355 2.07,-0.569 1.955,-0.785 1.933,-0.826 1.916,-0.856 1.859,-0.823 1.813,-0.796 1.808,-0.774 1.827,-0.724 1.882,-0.575 1.863,-0.551 1.7,-0.529 1.349,-0.482 1.349,-0.482 1.181,-0.794 1.167,-0.819 1.154,-0.844 1.141,-0.868 0.964,-1.196 0.965,-1.196 1.228,-1.462 1.302,-1.537 1.371,-1.555 1.434,-1.454 1.463,-1.408 1.483,-1.367 1.55,-1.41 1.615,-1.452 1.576,-1.486 1.555,-1.525 1.476,-1.674 1.397,-1.824 1.314,-1.971 1.298,-2 1.297,-2.066 1.229,-2.034 1.185,-2.013 1.152,-1.995 1.175,-1.93 1.21,-1.835 1.156,-1.758 1.103,-1.684 0.803,-1.267 0.466,-0.88 0.15,-0.477 0.075,-0.38 -0.004,-0.287 -0.079,-0.19 -0.114,-0.145 -0.176,-0.107 -0.134,-0.032 -0.096,0.038 -0.033,-0.009 0,0"
             style="fill:#ffffff;fill-opacity:1;fill-rule:nonzero;stroke:none"
             id="path154"
             inkscape:connector-curvature="0" /></g><g
           id="g156"
           transform="translate(164.4346,93.1391)"><path
             d="m 0,0 c -0.107,0.013 -0.15,-0.035 -0.137,-0.139 0.006,-0.049 0.01,-0.09 -0.061,-0.098 -0.073,-0.009 -0.074,0.034 -0.082,0.082 -0.03,0.176 -0.059,0.351 -0.092,0.527 -0.008,0.045 -0.005,0.071 0.047,0.078 0.037,0.005 0.072,0.024 0.089,-0.032 C -0.202,0.302 -0.101,0.269 0,0.244 0.61,0.092 1.22,-0.057 1.83,-0.208 1.879,-0.22 1.945,-0.207 1.963,-0.284 1.983,-0.369 1.916,-0.388 1.868,-0.419 1.342,-0.765 0.815,-1.108 0.29,-1.454 0.2,-1.513 0.103,-1.57 0.12,-1.705 0.127,-1.761 0.081,-1.757 0.043,-1.762 c -0.042,-0.007 -0.057,0.011 -0.064,0.052 -0.041,0.25 -0.083,0.499 -0.127,0.749 -0.01,0.056 0.029,0.06 0.065,0.068 0.036,0.008 0.056,0.003 0.073,-0.039 0.079,-0.186 0.081,-0.185 0.259,-0.079 0.269,0.16 0.269,0.16 0.219,0.472 -0.017,0.107 -0.047,0.213 -0.049,0.32 -0.002,0.122 -0.064,0.16 -0.17,0.172 C 0.165,-0.037 0.083,-0.016 0,0"
             style="fill:#ffffff;fill-opacity:1;fill-rule:nonzero;stroke:none"
             id="path158"
             inkscape:connector-curvature="0" /></g><g
           id="g160"
           transform="translate(152.1323,75.6142)"><path
             d="M 0,0 C -0.009,0.21 0.11,0.354 0.258,0.478 0.332,0.54 0.331,0.571 0.25,0.627 0.058,0.761 -0.089,0.927 -0.07,1.185 -0.046,1.503 0.308,1.744 0.672,1.69 0.888,1.658 1.06,1.559 1.12,1.337 1.179,1.119 1.098,0.932 0.917,0.806 0.791,0.717 0.827,0.68 0.929,0.612 1.1,0.498 1.24,0.355 1.287,0.142 1.336,-0.081 1.246,-0.315 1.049,-0.432 0.827,-0.564 0.587,-0.588 0.344,-0.5 0.126,-0.421 0,-0.228 0,0"
             style="fill:#ffffff;fill-opacity:1;fill-rule:nonzero;stroke:none"
             id="path162"
             inkscape:connector-curvature="0" /></g><g
           id="g164"
           transform="translate(164.3828,84.4789)"><path
             d="m 0,0 c 0.148,-0.239 0.287,-0.466 0.429,-0.691 0.056,-0.087 0.105,-0.048 0.149,0.018 0.027,0.041 0.033,0.116 0.119,0.068 0.091,-0.05 0.021,-0.098 0.002,-0.138 C 0.623,-0.91 0.542,-1.073 0.459,-1.236 0.443,-1.268 0.445,-1.328 0.376,-1.302 0.323,-1.282 0.3,-1.252 0.32,-1.196 c 0.046,0.135 -0.014,0.252 -0.075,0.361 -0.148,0.262 -0.305,0.518 -0.456,0.778 -0.025,0.044 -0.06,0.07 -0.102,0.091 C -0.475,0.11 -0.634,0.19 -0.796,0.265 -0.965,0.344 -0.999,0.333 -1.091,0.177 -1.118,0.132 -1.125,0.067 -1.21,0.11 c -0.096,0.048 -0.022,0.095 -0.004,0.134 0.115,0.246 0.236,0.49 0.356,0.735 0.022,0.045 0.038,0.1 0.111,0.066 C -0.671,1.011 -0.708,0.967 -0.726,0.919 -0.793,0.742 -0.781,0.713 -0.606,0.623 -0.09,0.357 -0.09,0.356 0.569,0.467 0.717,0.492 0.866,0.516 1.013,0.547 1.1,0.564 1.189,0.588 1.237,0.676 1.267,0.731 1.301,0.708 1.343,0.692 1.415,0.665 1.371,0.623 1.355,0.592 1.241,0.355 1.124,0.121 1.007,-0.115 0.989,-0.151 0.98,-0.195 0.917,-0.166 0.861,-0.14 0.855,-0.117 0.877,-0.059 0.937,0.097 0.925,0.113 0.76,0.096 0.513,0.07 0.268,0.034 0,0"
             style="fill:#ffffff;fill-opacity:1;fill-rule:nonzero;stroke:none"
             id="path166"
             inkscape:connector-curvature="0" /></g><g
           id="g168"
           transform="translate(138.5791,83.4384)"><path
             d="M 0,0 C 0.049,0.009 0.115,0.016 0.177,0.035 0.252,0.058 0.263,0.003 0.286,-0.042 0.314,-0.1 0.263,-0.102 0.232,-0.116 0.097,-0.18 -0.041,-0.241 -0.175,-0.308 c -0.052,-0.026 -0.08,-0.023 -0.108,0.033 -0.255,0.507 -0.511,1.014 -0.77,1.52 -0.026,0.051 -0.013,0.073 0.033,0.097 0.137,0.073 0.272,0.148 0.408,0.224 0.036,0.02 0.068,0.035 0.092,-0.013 C -0.499,1.513 -0.473,1.482 -0.522,1.432 -0.762,1.191 -0.765,1.125 -0.606,0.824 -0.574,0.762 -0.549,0.768 -0.5,0.793 -0.045,1.027 0.411,1.26 0.868,1.49 0.986,1.549 1.005,1.633 0.951,1.745 0.925,1.798 0.898,1.845 0.979,1.88 1.066,1.917 1.062,1.838 1.081,1.803 1.203,1.57 1.32,1.334 1.439,1.1 1.46,1.059 1.491,1.022 1.425,0.985 1.364,0.95 1.346,0.981 1.316,1.024 1.198,1.192 1.199,1.187 1.012,1.089 0.583,0.867 0.152,0.647 -0.282,0.433 -0.361,0.394 -0.374,0.361 -0.33,0.289 -0.253,0.162 -0.204,0.007 0,0"
             style="fill:#ffffff;fill-opacity:1;fill-rule:nonzero;stroke:none"
             id="path170"
             inkscape:connector-curvature="0" /></g><g
           id="g172"
           transform="translate(163.2656,99.955)"><path
             d="M 0,0 C -0.222,-0.114 -0.109,-0.217 -0.029,-0.329 0.252,-0.717 0.527,-1.109 0.809,-1.497 0.861,-1.568 0.863,-1.607 0.785,-1.659 0.668,-1.737 0.56,-1.829 0.448,-1.915 0.418,-1.937 0.388,-1.968 0.354,-1.919 0.329,-1.883 0.282,-1.85 0.335,-1.801 c 0.007,0.007 0.013,0.014 0.019,0.022 0.179,0.226 0.164,0.42 -0.042,0.613 -0.041,0.038 -0.064,0.02 -0.096,-0.002 -0.421,-0.3 -0.841,-0.6 -1.262,-0.9 -0.115,-0.082 -0.081,-0.176 -0.019,-0.269 0.031,-0.047 0.052,-0.082 -0.012,-0.124 -0.066,-0.043 -0.082,0.008 -0.108,0.044 -0.159,0.221 -0.315,0.444 -0.476,0.664 -0.035,0.048 -0.033,0.075 0.014,0.113 0.051,0.042 0.07,0.01 0.1,-0.022 0.141,-0.148 0.165,-0.151 0.329,-0.036 0.395,0.28 0.787,0.563 1.184,0.839 0.076,0.053 0.075,0.091 0.02,0.15 -0.022,0.024 -0.04,0.052 -0.06,0.078 -0.148,0.19 -0.226,0.215 -0.447,0.128 -0.069,-0.027 -0.122,-0.044 -0.161,0.038 -0.044,0.09 0.048,0.088 0.083,0.112 0.179,0.127 0.364,0.246 0.547,0.368 C -0.034,0.01 -0.017,0.005 0,0"
             style="fill:#ffffff;fill-opacity:1;fill-rule:nonzero;stroke:none"
             id="path174"
             inkscape:connector-curvature="0" /></g><g
           id="g176"
           transform="translate(157.2197,103.9511)"><path
             d="m 0,0 c -0.12,0.003 -0.188,-0.079 -0.249,-0.161 -0.046,-0.063 -0.088,-0.094 -0.161,-0.044 -0.085,0.058 0.001,0.099 0.018,0.138 0.046,0.107 0.113,0.206 0.159,0.313 0.039,0.092 0.075,0.113 0.173,0.065 C 0.42,0.075 0.904,-0.153 1.389,-0.378 1.476,-0.419 1.496,-0.455 1.449,-0.543 1.386,-0.664 1.341,-0.793 1.286,-0.917 1.271,-0.951 1.265,-1.005 1.2,-0.971 1.156,-0.948 1.112,-0.933 1.13,-0.87 1.136,-0.848 1.144,-0.825 1.148,-0.802 1.191,-0.58 1.007,-0.345 0.781,-0.327 0.729,-0.323 0.73,-0.361 0.718,-0.387 0.5,-0.844 0.284,-1.302 0.064,-1.758 0,-1.892 0.05,-1.971 0.167,-2.031 0.206,-2.05 0.26,-2.059 0.224,-2.129 0.188,-2.198 0.15,-2.181 0.099,-2.155 c -0.245,0.118 -0.492,0.233 -0.737,0.35 -0.035,0.017 -0.08,0.025 -0.05,0.089 0.026,0.059 0.054,0.059 0.108,0.043 0.198,-0.059 0.216,-0.053 0.305,0.131 0.209,0.435 0.414,0.873 0.624,1.308 0.033,0.069 0.036,0.108 -0.043,0.136 C 0.205,-0.061 0.112,0 0,0"
             style="fill:#ffffff;fill-opacity:1;fill-rule:nonzero;stroke:none"
             id="path178"
             inkscape:connector-curvature="0" /></g><g
           id="g180"
           transform="translate(149.2798,105.0424)"><path
             d="M 0,0 C -0.026,0.09 0.017,0.123 0.119,0.133 0.657,0.188 1.194,0.25 1.731,0.312 1.798,0.319 1.833,0.31 1.84,0.23 1.854,0.08 1.88,-0.068 1.904,-0.216 1.911,-0.258 1.916,-0.294 1.861,-0.298 1.822,-0.3 1.773,-0.322 1.753,-0.264 1.751,-0.259 1.751,-0.254 1.749,-0.25 1.594,0.062 1.545,0.085 1.208,0.038 1.147,0.029 1.131,0.013 1.138,-0.049 1.194,-0.549 1.246,-1.05 1.301,-1.55 1.319,-1.709 1.358,-1.736 1.536,-1.744 1.571,-1.745 1.627,-1.716 1.631,-1.787 1.634,-1.847 1.607,-1.879 1.541,-1.885 1.269,-1.911 0.999,-1.943 0.727,-1.969 0.695,-1.972 0.633,-2.004 0.635,-1.929 c 0,0.047 0.009,0.084 0.073,0.101 0.208,0.055 0.214,0.06 0.193,0.267 C 0.853,-1.079 0.794,-0.598 0.744,-0.117 0.736,-0.039 0.712,-0.011 0.633,-0.023 0.314,-0.069 0.221,-0.089 0.197,-0.403 0.191,-0.479 0.145,-0.48 0.094,-0.488 0.026,-0.499 0.033,-0.448 0.03,-0.407 0.02,-0.276 0.01,-0.145 0,0"
             style="fill:#ffffff;fill-opacity:1;fill-rule:nonzero;stroke:none"
             id="path182"
             inkscape:connector-curvature="0" /></g><g
           id="g184"
           transform="translate(155.1514,76.3612)"><path
             d="m 0,0 c -0.167,-0.135 -0.338,-0.211 -0.533,-0.196 -0.28,0.022 -0.481,0.23 -0.554,0.556 -0.106,0.473 0.161,0.874 0.609,0.912 0.265,0.022 0.462,-0.104 0.616,-0.305 0.53,-0.694 0.126,-1.826 -0.722,-2.034 -0.054,-0.014 -0.072,-0.005 -0.096,0.043 -0.034,0.068 0.012,0.08 0.055,0.099 0.33,0.153 0.526,0.412 0.614,0.76 0.007,0.028 0.012,0.055 0.015,0.083 C 0.006,-0.063 0.002,-0.045 0,0"
             style="fill:#ffffff;fill-opacity:1;fill-rule:nonzero;stroke:none"
             id="path186"
             inkscape:connector-curvature="0" /></g><g
           id="g188"
           transform="translate(142.0439,102.0116)"><path
             d="m 0,0 c 0.12,-0.139 0.239,-0.277 0.359,-0.416 0.023,-0.027 0.067,-0.05 0.018,-0.09 -0.033,-0.027 -0.058,-0.081 -0.116,-0.037 -0.03,0.022 -0.063,0.041 -0.094,0.061 -0.128,0.081 -0.246,0.068 -0.363,-0.026 -0.241,-0.195 -0.242,-0.193 -0.026,-0.409 0.304,-0.302 0.606,-0.604 0.91,-0.906 0.142,-0.14 0.166,-0.142 0.319,-0.023 0.038,0.03 0.062,0.061 0.114,0.009 C 1.182,-1.898 1.132,-1.924 1.098,-1.958 0.908,-2.141 0.719,-2.324 0.528,-2.506 0.494,-2.54 0.466,-2.593 0.404,-2.532 c -0.061,0.059 -0.015,0.09 0.02,0.125 0.1,0.1 0.091,0.189 -0.007,0.289 -0.346,0.353 -0.689,0.709 -1.029,1.067 -0.053,0.055 -0.087,0.046 -0.14,0.006 -0.237,-0.18 -0.27,-0.305 -0.124,-0.561 0.038,-0.069 0.016,-0.102 -0.029,-0.142 -0.062,-0.056 -0.077,0.016 -0.108,0.041 -0.025,0.021 -0.045,0.048 -0.066,0.074 -0.088,0.103 -0.254,0.195 -0.247,0.306 0.006,0.098 0.167,0.189 0.261,0.28 0.291,0.282 0.582,0.562 0.873,0.844 0.052,0.051 0.115,0.094 0.141,0.171 z"
             style="fill:#ffffff;fill-opacity:1;fill-rule:nonzero;stroke:none"
             id="path190"
             inkscape:connector-curvature="0" /></g><g
           id="g192"
           transform="translate(151.0269,76.9467)"><path
             d="m 0,0 c -0.217,0.015 -0.437,0.035 -0.656,0.044 -0.12,0.006 -0.196,-0.077 -0.261,-0.168 -0.027,-0.039 -0.05,-0.076 -0.11,-0.042 -0.061,0.036 -0.039,0.073 -0.016,0.117 0.035,0.066 0.067,0.134 0.1,0.201 0.113,0.229 0.112,0.227 0.364,0.206 C -0.298,0.335 -0.017,0.314 0.265,0.299 0.381,0.293 0.399,0.241 0.361,0.147 0.104,-0.492 -0.154,-1.131 -0.414,-1.77 -0.437,-1.829 -0.65,-1.867 -0.697,-1.82 c -0.04,0.041 0.003,0.078 0.017,0.113 0.213,0.521 0.428,1.041 0.64,1.562 C -0.022,-0.103 0.007,-0.063 0,0"
             style="fill:#ffffff;fill-opacity:1;fill-rule:nonzero;stroke:none"
             id="path194"
             inkscape:connector-curvature="0" /></g><g
           id="g196"
           transform="translate(148.2896,77.2919)"><path
             d="M 0,0 C -0.012,0.084 0.015,0.125 0.097,0.142 0.257,0.176 0.415,0.223 0.574,0.263 0.713,0.298 0.735,0.277 0.704,0.137 0.579,-0.426 0.453,-0.99 0.326,-1.553 0.288,-1.725 0.297,-1.739 0.466,-1.794 0.507,-1.808 0.583,-1.796 0.558,-1.883 0.535,-1.962 0.476,-1.93 0.43,-1.919 c -0.238,0.051 -0.476,0.107 -0.714,0.16 -0.05,0.011 -0.091,0.019 -0.082,0.086 0.01,0.084 0.062,0.048 0.104,0.042 0.169,-0.026 0.211,0 0.252,0.179 0.099,0.435 0.196,0.87 0.292,1.306 C 0.319,0.023 0.301,0.041 0.125,0.019 0.084,0.014 0.043,0.007 0,0"
             style="fill:#ffffff;fill-opacity:1;fill-rule:nonzero;stroke:none"
             id="path198"
             inkscape:connector-curvature="0" /></g><g
           id="g200"
           transform="translate(163.3262,100.0429)"><path
             d="M 0,0 C -0.007,-0.041 -0.024,-0.062 -0.059,-0.062 -0.061,-0.063 -0.068,-0.046 -0.065,-0.041 -0.053,-0.015 -0.031,-0.005 0,0"
             style="fill:#aba9a9;fill-opacity:1;fill-rule:nonzero;stroke:none"
             id="path202"
             inkscape:connector-curvature="0" /></g><g
           id="g204"
           transform="translate(163.709,90.2528)"><path
             d="m 0,0 c 0.008,-6.737 -5.415,-12.167 -12.175,-12.19 -6.682,-0.022 -12.144,5.442 -12.147,12.154 -0.004,6.723 5.451,12.182 12.161,12.172 C -5.453,12.126 -0.009,6.693 0,0"
             style="fill:#615e5f;fill-opacity:1;fill-rule:nonzero;stroke:none"
             id="path206"
             inkscape:connector-curvature="0" /></g><g
           id="g208"
           transform="translate(140.3047,99.6469)"><path
             d="M 0,0 C 0.232,-0.006 0.415,-0.24 0.365,-0.466 0.361,-0.484 0.36,-0.503 0.353,-0.521 0.312,-0.631 0.271,-0.766 0.176,-0.816 c -0.11,-0.059 -0.178,0.092 -0.266,0.147 -0.106,0.066 -0.2,0.155 -0.304,0.227 -0.071,0.049 -0.069,0.092 -0.021,0.16 C -0.289,-0.107 -0.133,0.004 0,0"
             style="fill:#625f60;fill-opacity:1;fill-rule:nonzero;stroke:none"
             id="path210"
             inkscape:connector-curvature="0" /></g><g
           id="g212"
           transform="translate(165.4956,86.1186)"><path
             d="M 0,0 C -0.25,0.005 -0.401,0.163 -0.396,0.413 -0.389,0.75 -0.359,0.772 -0.045,0.679 0.071,0.644 0.187,0.605 0.305,0.574 0.362,0.559 0.395,0.53 0.404,0.472 0.436,0.261 0.209,-0.004 0,0"
             style="fill:#625f60;fill-opacity:1;fill-rule:nonzero;stroke:none"
             id="path214"
             inkscape:connector-curvature="0" /></g><g
           id="g216"
           transform="translate(163.688,97.1083)"><path
             d="M 0,0 C 0.213,0.108 0.427,0.215 0.638,0.326 0.696,0.356 0.725,0.33 0.751,0.286 0.808,0.192 0.852,0.093 0.869,-0.014 0.895,-0.18 0.829,-0.305 0.68,-0.389 0.527,-0.474 0.393,-0.466 0.261,-0.36 0.145,-0.267 0.071,-0.142 0,0"
             style="fill:#625f60;fill-opacity:1;fill-rule:nonzero;stroke:none"
             id="path218"
             inkscape:connector-curvature="0" /></g><g
           id="g220"
           transform="translate(138.499,91.1728)"><path
             d="m 0,0 c -0.003,-0.338 -0.012,-0.271 -0.276,-0.255 -0.441,0.026 -0.882,0.048 -1.323,0.063 -0.123,0.004 -0.171,0.033 -0.165,0.169 0.032,0.739 0.783,1.139 1.417,0.748 C -0.078,0.559 0,0.297 0,0"
             style="fill:#615f5f;fill-opacity:1;fill-rule:nonzero;stroke:none"
             id="path222"
             inkscape:connector-curvature="0" /></g><g
           id="g224"
           transform="translate(152.2915,104.0985)"><path
             d="M 0,0 C 0.003,0.208 0.033,0.411 0.116,0.604 0.239,0.892 0.47,1.054 0.717,1.026 0.99,0.996 1.187,0.809 1.243,0.499 1.303,0.168 1.271,-0.159 1.125,-0.464 0.978,-0.775 0.682,-0.905 0.394,-0.791 0.135,-0.687 0.046,-0.465 0.01,-0.211 0.001,-0.142 0.003,-0.071 0,0"
             style="fill:#615f5f;fill-opacity:1;fill-rule:nonzero;stroke:none"
             id="path226"
             inkscape:connector-curvature="0" /></g><g
           id="g228"
           transform="translate(138.1602,96.0443)"><path
             d="M 0,0 C 0.142,-0.018 0.294,-0.075 0.372,-0.239 0.455,-0.413 0.381,-0.578 0.316,-0.739 0.3,-0.78 0.266,-0.765 0.233,-0.752 c -0.215,0.078 -0.43,0.155 -0.646,0.232 -0.03,0.011 -0.063,0.017 -0.067,0.059 C -0.5,-0.276 -0.225,0.006 0,0"
             style="fill:#625f60;fill-opacity:1;fill-rule:nonzero;stroke:none"
             id="path230"
             inkscape:connector-curvature="0" /></g><g
           id="g232"
           transform="translate(139.377,96.433)"><path
             d="M 0,0 C -0.159,0.197 -0.312,0.384 -0.49,0.604 -0.217,0.58 0.021,0.558 0.284,0.534 0.187,0.353 0.098,0.184 0,0"
             style="fill:#626060;fill-opacity:1;fill-rule:nonzero;stroke:none"
             id="path234"
             inkscape:connector-curvature="0" /></g><g
           id="g236"
           transform="translate(165.8804,92.829)"><path
             d="M 0,0 C -0.235,-0.148 -0.441,-0.279 -0.66,-0.417 -0.694,-0.213 -0.724,-0.029 -0.759,0.178 -0.51,0.119 -0.273,0.064 0,0"
             style="fill:#626060;fill-opacity:1;fill-rule:nonzero;stroke:none"
             id="path238"
             inkscape:connector-curvature="0" /></g><g
           id="g240"
           transform="translate(153.1528,75.5839)"><path
             d="m 0,0 c 0,-0.157 -0.073,-0.265 -0.197,-0.302 -0.152,-0.046 -0.304,0.002 -0.389,0.123 -0.123,0.176 -0.105,0.47 0.04,0.628 0.024,0.027 0.044,0.071 0.09,0.041 C -0.31,0.398 -0.15,0.324 -0.048,0.176 -0.009,0.12 0.003,0.056 0,0"
             style="fill:#625f60;fill-opacity:1;fill-rule:nonzero;stroke:none"
             id="path242"
             inkscape:connector-curvature="0" /></g><g
           id="g244"
           transform="translate(153.0073,76.8456)"><path
             d="m 0,0 c 0,-0.023 0.003,-0.047 0,-0.07 -0.021,-0.133 -0.083,-0.255 -0.203,-0.303 -0.089,-0.036 -0.162,0.07 -0.236,0.122 -0.027,0.019 -0.049,0.044 -0.07,0.069 -0.103,0.121 -0.123,0.266 -0.053,0.375 0.069,0.107 0.224,0.154 0.364,0.11 C -0.066,0.261 0,0.16 0,0"
             style="fill:#625f60;fill-opacity:1;fill-rule:nonzero;stroke:none"
             id="path246"
             inkscape:connector-curvature="0" /></g><g
           id="g248"
           transform="translate(154.6543,77.4565)"><path
             d="M 0,0 C 0.11,0.003 0.187,-0.057 0.249,-0.138 0.4,-0.334 0.449,-0.572 0.491,-0.807 0.514,-0.936 0.225,-1.085 0.068,-1.035 -0.001,-1.013 -0.059,-0.971 -0.1,-0.912 -0.243,-0.702 -0.305,-0.47 -0.266,-0.218 -0.243,-0.07 -0.149,0.001 0,0"
             style="fill:#625f60;fill-opacity:1;fill-rule:nonzero;stroke:none"
             id="path250"
             inkscape:connector-curvature="0" /></g><g
           id="g252"
           transform="translate(142.6455,86.8852)"><path
             d="M 0,0 C 0.05,0.633 0.099,1.266 0.15,1.899 0.211,2.664 0.274,3.428 0.336,4.192 0.408,5.074 0.479,5.955 0.551,6.836 0.624,7.728 0.542,8.601 0.252,9.451 0.227,9.526 0.196,9.601 0.16,9.671 c -0.153,0.29 -0.314,0.573 -0.687,0.622 0.022,0.063 0.073,0.074 0.111,0.097 1.219,0.736 2.439,1.47 3.657,2.208 0.084,0.051 0.144,0.049 0.227,0.002 0.572,-0.326 1.175,-0.57 1.832,-0.658 1.378,-0.184 2.526,0.264 3.458,1.28 0.077,0.083 0.106,0.077 0.179,0.007 0.595,-0.568 1.253,-1.04 2.048,-1.285 1.239,-0.381 2.376,-0.16 3.416,0.599 0.075,0.055 0.12,0.052 0.195,0.009 1.252,-0.717 2.504,-1.432 3.758,-2.144 0.097,-0.054 0.107,-0.083 0.029,-0.167 C 17.957,9.788 17.608,9.284 17.438,8.676 17.377,8.457 17.361,8.234 17.374,8.006 17.406,7.451 17.425,6.896 17.447,6.341 17.512,4.747 17.576,3.153 17.64,1.559 17.66,1.056 17.68,0.553 17.699,0.049 17.592,0.036 17.527,0.117 17.456,0.17 16.987,0.518 16.516,0.862 16.047,1.208 14.238,2.544 12.423,3.874 10.616,5.211 10.128,5.573 9.638,5.931 9.15,6.292 8.954,6.436 8.956,6.435 8.765,6.296 7.574,5.431 6.38,4.569 5.188,3.704 3.889,2.763 2.591,1.82 1.292,0.879 0.907,0.601 0.523,0.32 0.136,0.044 0.097,0.016 0.062,-0.035 0,0"
             style="fill:#dbdada;fill-opacity:1;fill-rule:nonzero;stroke:none"
             id="path254"
             inkscape:connector-curvature="0" /></g><g
           id="g256"
           transform="translate(159.5317,83.6332)"><path
             d="m 0,0 c -0.729,-1.136 -1.629,-2.086 -2.879,-2.661 -0.414,-0.191 -0.862,-0.25 -1.298,-0.36 -1.041,-0.26 -2.03,-0.646 -2.913,-1.271 -0.289,-0.204 -0.556,-0.434 -0.781,-0.709 -0.029,-0.036 -0.062,-0.069 -0.097,-0.109 -0.134,0.283 -0.356,0.464 -0.58,0.639 -0.759,0.593 -1.629,0.981 -2.514,1.341 -0.407,0.166 -0.835,0.243 -1.254,0.361 -0.972,0.272 -1.763,0.845 -2.466,1.552 -0.392,0.395 -0.736,0.83 -1.05,1.288 0.011,0.068 0.066,0.1 0.115,0.136 1.96,1.416 3.92,2.832 5.88,4.248 0.572,0.413 1.146,0.824 1.718,1.237 0.104,0.075 0.177,0.065 0.275,-0.005 1.657,-1.186 3.306,-2.382 4.959,-3.573 0.912,-0.657 1.823,-1.315 2.737,-1.97 C -0.093,0.104 -0.023,0.075 0,0"
             style="fill:#dbdada;fill-opacity:1;fill-rule:nonzero;stroke:none"
             id="path258"
             inkscape:connector-curvature="0" /></g><g
           id="g260"
           transform="translate(159.5317,83.6332)"><path
             d="M 0,0 C -0.745,0.535 -1.49,1.069 -2.234,1.604 -4.12,2.961 -6.005,4.318 -7.889,5.678 -7.962,5.73 -8.007,5.729 -8.081,5.676 c -2.55,-1.843 -5.102,-3.684 -7.653,-5.525 -0.034,-0.024 -0.065,-0.053 -0.098,-0.08 -0.506,0.72 -0.843,1.51 -1.004,2.377 -0.045,0.241 -0.043,0.485 -0.074,0.726 -0.004,0.024 0.015,0.052 0.024,0.078 0.369,0.234 0.714,0.504 1.067,0.76 2.594,1.878 5.187,3.758 7.777,5.641 0.093,0.067 0.146,0.051 0.229,-0.01 C -4.991,7.56 -2.166,5.479 0.66,3.399 0.708,3.363 0.762,3.334 0.813,3.301 0.816,2.254 0.686,1.234 0.197,0.288 0.144,0.185 0.086,0.083 0,0"
             style="fill:#aba9aa;fill-opacity:1;fill-rule:nonzero;stroke:none"
             id="path262"
             inkscape:connector-curvature="0" /></g><g
           id="g264"
           transform="translate(151.1489,97.0321)"><path
             d="M 0,0 C 0.093,0.633 0.181,1.235 0.27,1.837 0.382,1.625 0.381,1.395 0.416,1.172 0.471,0.815 0.515,0.456 0.561,0.097 0.573,0.002 0.606,0.012 0.666,0.06 c 0.158,0.126 0.321,0.247 0.476,0.376 0.058,0.047 0.11,0.055 0.18,0.04 1.252,-0.275 2.504,-0.548 3.757,-0.821 0.055,-0.011 0.09,-0.042 0.125,-0.082 0.06,-0.066 0.12,-0.133 0.187,-0.191 0.339,-0.293 0.695,-0.289 0.971,0.064 0.157,0.2 0.296,0.229 0.516,0.158 C 7.084,-0.461 7.09,-0.445 7.031,-0.654 6.908,-1.098 6.632,-1.426 6.244,-1.662 6.166,-1.71 6.133,-1.746 6.18,-1.834 6.206,-1.883 6.22,-1.946 6.192,-1.999 6.133,-2.111 6.18,-2.199 6.234,-2.297 6.736,-3.195 7.233,-4.097 7.736,-4.995 7.785,-5.081 7.784,-5.141 7.728,-5.22 7.44,-5.624 7.106,-5.976 6.655,-6.199 6.153,-6.447 5.65,-6.444 5.148,-6.201 c -0.446,0.216 -0.79,0.553 -1.107,0.925 -0.058,0.067 -0.013,0.111 0.014,0.162 0.483,0.935 0.967,1.87 1.452,2.804 0.046,0.087 0.099,0.166 0.027,0.269 -0.03,0.042 -0.037,0.11 -0.012,0.165 0.051,0.108 -0.007,0.137 -0.098,0.17 C 5.087,-1.58 4.832,-1.36 4.704,-1.017 4.669,-0.926 4.614,-0.928 4.542,-0.928 3.543,-0.929 2.545,-0.929 1.548,-0.929 1.336,-0.929 1.124,-0.934 0.913,-0.926 0.809,-0.923 0.77,-0.947 0.785,-1.059 0.833,-1.398 0.866,-1.74 0.916,-2.08 0.95,-2.311 0.895,-2.508 0.701,-2.637 0.505,-2.767 0.283,-2.756 0.085,-2.64 c -0.195,0.114 -0.292,0.294 -0.278,0.531 0.021,0.366 0.03,0.734 0.049,1.1 0.005,0.085 -0.028,0.101 -0.104,0.1 -1.238,-0.008 -2.476,-0.014 -3.713,-0.019 -0.064,0 -0.099,-0.015 -0.124,-0.081 -0.131,-0.34 -0.386,-0.55 -0.727,-0.657 -0.084,-0.026 -0.123,-0.05 -0.083,-0.142 0.014,-0.031 0.017,-0.081 0.002,-0.11 -0.074,-0.146 0.009,-0.26 0.069,-0.378 0.461,-0.909 0.921,-1.819 1.387,-2.726 0.052,-0.101 0.042,-0.163 -0.033,-0.245 -0.276,-0.305 -0.57,-0.587 -0.934,-0.787 -0.627,-0.343 -1.242,-0.318 -1.841,0.068 -0.354,0.228 -0.627,0.537 -0.866,0.879 -0.055,0.077 -0.045,0.138 0,0.217 0.514,0.903 1.023,1.808 1.536,2.711 0.04,0.07 0.063,0.13 0.02,0.207 -0.028,0.05 -0.033,0.119 -0.008,0.165 0.069,0.13 -0.01,0.169 -0.103,0.229 -0.394,0.257 -0.656,0.609 -0.762,1.075 -0.026,0.114 0.014,0.143 0.107,0.154 0.005,0.001 0.009,0.001 0.014,0.003 0.241,0.085 0.418,0.072 0.6,-0.171 0.254,-0.337 0.633,-0.354 0.932,-0.046 0.218,0.225 0.468,0.299 0.749,0.357 1.112,0.231 2.224,0.466 3.335,0.702 C -0.615,0.512 -0.558,0.499 -0.5,0.444 -0.345,0.3 -0.185,0.163 0,0"
             style="fill:#aba9aa;fill-opacity:1;fill-rule:nonzero;stroke:none"
             id="path266"
             inkscape:connector-curvature="0" /></g><g
           id="g268"
           transform="translate(148.1211,83.1547)"><path
             d="m 0,0 c 0,-0.354 -0.004,-0.688 0.002,-1.022 0.002,-0.101 -0.017,-0.14 -0.128,-0.135 -0.269,0.011 -0.537,0.01 -0.806,0.009 -0.085,-0.001 -0.126,0.015 -0.124,0.115 0.008,0.278 0.007,0.556 0.004,0.833 -10e-4,0.083 0.017,0.125 0.109,0.114 0.056,-0.007 0.113,-0.006 0.169,-0.001 0.122,0.01 0.217,-0.002 0.191,-0.165 -0.008,-0.052 0.027,-0.075 0.08,-0.072 0.057,0.003 0.048,0.044 0.051,0.08 0.024,0.303 0.025,0.303 -0.281,0.303 -0.292,0 -0.584,-0.006 -0.876,0.003 -0.122,0.004 -0.158,-0.037 -0.142,-0.15 0.007,-0.051 0.002,-0.104 10e-4,-0.156 -0.002,-0.048 0.007,-0.081 0.067,-0.082 0.055,0 0.084,0.022 0.072,0.075 -0.036,0.168 0.066,0.166 0.185,0.163 0.275,-0.004 0.275,-0.001 0.275,-0.272 0,-0.226 -0.003,-0.452 0.002,-0.678 0.002,-0.086 -0.025,-0.114 -0.112,-0.112 -0.278,0.004 -0.556,0.005 -0.833,0 -0.092,-0.002 -0.109,0.034 -0.108,0.115 0.004,0.325 -0.003,0.65 0.004,0.974 0.003,0.108 -0.03,0.145 -0.135,0.131 -0.188,-0.024 -0.353,0.01 -0.458,0.195 -0.08,0.142 -0.097,0.284 -0.013,0.427 0.081,0.138 0.177,0.232 0.366,0.23 0.744,-0.008 1.487,0.003 2.231,0.004 0.07,0 0.122,0.019 0.177,0.066 C 0.216,1.201 0.516,1.197 0.764,0.983 0.811,0.942 0.856,0.927 0.916,0.927 2.639,0.93 4.361,0.933 6.084,0.932 c 0.194,0 0.293,0.1 0.34,0.304 C 6.462,1.085 6.501,0.97 6.647,0.942 6.727,0.927 6.771,0.941 6.773,1.036 6.776,1.22 6.806,1.4 6.854,1.578 7.008,2.139 7.34,2.389 7.922,2.381 8.439,2.374 8.763,2.101 8.894,1.552 9.016,1.038 8.999,0.515 8.965,-0.006 8.946,-0.308 8.889,-0.6 8.76,-0.879 8.443,-1.562 7.464,-1.505 7.118,-1.041 6.908,-0.759 6.826,-0.435 6.778,-0.097 6.771,-0.044 6.799,0.036 6.731,0.05 6.663,0.063 6.597,0.02 6.546,-0.035 6.485,-0.1 6.496,-0.192 6.451,-0.274 6.431,-0.224 6.417,-0.179 6.397,-0.138 6.337,-0.015 6.249,0.061 6.101,0.06 4.363,0.056 2.626,0.054 0.89,0.052 0.839,0.051 0.787,0.06 0.741,0.023 0.51,-0.161 0.268,-0.154 0,0"
             style="fill:#aba9aa;fill-opacity:1;fill-rule:nonzero;stroke:none"
             id="path270"
             inkscape:connector-curvature="0" /></g><g
           id="g272"
           transform="translate(153.7739,89.1078)"><path
             d="M 0,0 C 0.037,0.161 0.118,0.308 0.08,0.41 0.042,0.511 -0.116,0.566 -0.243,0.657 -0.154,0.668 -0.089,0.689 -0.028,0.681 0.138,0.66 0.208,0.732 0.226,0.892 0.233,0.958 0.244,1.032 0.293,1.098 0.323,1.023 0.363,0.957 0.377,0.885 0.408,0.731 0.5,0.694 0.641,0.72 0.709,0.732 0.78,0.735 0.869,0.744 0.801,0.641 0.711,0.588 0.634,0.525 0.568,0.471 0.554,0.422 0.592,0.346 0.633,0.263 0.664,0.174 0.716,0.045 0.594,0.12 0.503,0.17 0.418,0.229 0.362,0.269 0.322,0.266 0.271,0.22 0.191,0.148 0.104,0.084 0,0"
             style="fill:#ffffff;fill-opacity:1;fill-rule:nonzero;stroke:none"
             id="path274"
             inkscape:connector-curvature="0" /></g><g
           id="g276"
           transform="translate(152.2197,90.6664)"><path
             d="M 0,0 C 0.103,0.006 0.178,0.014 0.253,0.013 0.39,0.011 0.47,0.063 0.479,0.211 0.484,0.279 0.514,0.346 0.537,0.433 0.606,0.341 0.629,0.247 0.661,0.16 0.689,0.081 0.729,0.048 0.815,0.056 0.911,0.065 1.007,0.059 1.131,0.059 1.034,-0.023 0.958,-0.092 0.877,-0.153 0.823,-0.194 0.811,-0.232 0.841,-0.296 0.885,-0.388 0.92,-0.485 0.975,-0.622 0.85,-0.544 0.755,-0.491 0.667,-0.43 0.614,-0.393 0.576,-0.399 0.531,-0.439 0.448,-0.513 0.361,-0.583 0.265,-0.664 0.297,-0.514 0.379,-0.361 0.338,-0.256 0.297,-0.151 0.133,-0.094 0,0"
             style="fill:#ffffff;fill-opacity:1;fill-rule:nonzero;stroke:none"
             id="path278"
             inkscape:connector-curvature="0" /></g><g
           id="g280"
           transform="translate(149.8105,90.6923)"><path
             d="M 0,0 C 0.073,0.011 0.119,0.019 0.165,0.024 0.428,0.06 0.428,0.06 0.496,0.316 0.505,0.351 0.516,0.386 0.532,0.44 0.6,0.348 0.626,0.254 0.657,0.166 0.685,0.086 0.726,0.052 0.812,0.063 0.909,0.077 1.008,0.079 1.119,0.087 1.068,-0.011 0.979,-0.058 0.905,-0.113 0.818,-0.178 0.812,-0.239 0.854,-0.328 0.895,-0.411 0.924,-0.499 0.968,-0.61 0.856,-0.54 0.766,-0.49 0.684,-0.431 0.619,-0.385 0.57,-0.384 0.511,-0.439 0.437,-0.509 0.355,-0.57 0.249,-0.657 c 0.027,0.107 0.039,0.181 0.065,0.25 0.051,0.13 0.031,0.222 -0.109,0.279 C 0.141,-0.103 0.085,-0.055 0,0"
             style="fill:#ffffff;fill-opacity:1;fill-rule:nonzero;stroke:none"
             id="path282"
             inkscape:connector-curvature="0" /></g><g
           id="g284"
           transform="translate(152.1006,91.6357)"><path
             d="m 0,0 c 0,-0.019 0.001,-0.026 0,-0.027 -0.267,-0.157 -0.365,-0.356 -0.125,-0.642 -0.016,-0.003 -0.031,-0.005 -0.046,-0.008 -0.092,0.057 -0.186,0.113 -0.275,0.174 -0.051,0.035 -0.086,0.033 -0.135,-0.007 -0.081,-0.068 -0.153,-0.149 -0.27,-0.205 0.028,0.112 0.044,0.209 0.076,0.3 0.027,0.08 0.005,0.121 -0.064,0.159 -0.085,0.048 -0.164,0.105 -0.246,0.158 10e-4,0.014 0.002,0.028 0.004,0.042 0.084,0 0.169,0.003 0.254,-0.001 0.105,-0.005 0.166,0.033 0.182,0.145 0.012,0.086 0.042,0.171 0.068,0.271 0.074,-0.091 0.095,-0.193 0.13,-0.286 0.03,-0.079 0.071,-0.109 0.158,-0.094 C -0.194,-0.005 -0.097,-0.006 0,0"
             style="fill:#ffffff;fill-opacity:1;fill-rule:nonzero;stroke:none"
             id="path286"
             inkscape:connector-curvature="0" /></g><g
           id="g288"
           transform="translate(145.1816,87.4306)"><path
             d="M 0,0 C 0.047,-0.115 0.087,-0.188 0.106,-0.266 0.135,-0.389 0.208,-0.417 0.32,-0.4 0.403,-0.387 0.486,-0.383 0.608,-0.371 0.501,-0.464 0.425,-0.538 0.342,-0.601 0.283,-0.646 0.271,-0.689 0.303,-0.756 0.344,-0.845 0.376,-0.939 0.418,-1.047 0.315,-1.025 0.245,-0.963 0.175,-0.912 0.086,-0.847 0.02,-0.856 -0.056,-0.93 c -0.063,-0.061 -0.135,-0.113 -0.231,-0.193 0.032,0.126 0.051,0.22 0.08,0.311 0.028,0.084 0.011,0.141 -0.071,0.185 -0.081,0.043 -0.157,0.098 -0.265,0.166 0.093,0.011 0.154,0.022 0.216,0.026 0.218,0.014 0.218,0.013 0.27,0.222 C -0.042,-0.157 -0.026,-0.1 0,0"
             style="fill:#ffffff;fill-opacity:1;fill-rule:nonzero;stroke:none"
             id="path290"
             inkscape:connector-curvature="0" /></g><g
           id="g292"
           transform="translate(146.98,87.3036)"><path
             d="m 0,0 c -0.062,0.035 -0.095,0.051 -0.125,0.07 -0.252,0.157 -0.252,0.156 -0.473,-0.034 -0.027,-0.024 -0.047,-0.06 -0.103,-0.06 0.024,0.103 0.04,0.204 0.073,0.3 0.025,0.074 0.003,0.113 -0.058,0.149 -0.085,0.049 -0.167,0.103 -0.264,0.164 0.104,0.059 0.202,0.036 0.295,0.039 0.082,0.003 0.129,0.027 0.145,0.115 0.018,0.096 0.049,0.19 0.077,0.299 C -0.362,0.948 -0.334,0.846 -0.3,0.75 -0.273,0.671 -0.231,0.651 -0.154,0.66 -0.059,0.671 0.038,0.696 0.146,0.675 0.086,0.585 0,0.535 -0.074,0.476 -0.139,0.423 -0.157,0.375 -0.12,0.297 -0.078,0.211 -0.047,0.119 0,0"
             style="fill:#ffffff;fill-opacity:1;fill-rule:nonzero;stroke:none"
             id="path294"
             inkscape:connector-curvature="0" /></g><g
           id="g296"
           transform="translate(158.9888,85.0736)"><path
             d="m 0,0 c 0.028,0.119 0.038,0.208 0.07,0.29 0.045,0.112 0.008,0.173 -0.091,0.224 -0.075,0.037 -0.143,0.087 -0.208,0.162 0.091,0.004 0.182,0.011 0.272,0.011 0.094,0 0.147,0.037 0.163,0.134 C 0.221,0.912 0.25,0.999 0.285,1.132 0.336,1.003 0.377,0.916 0.404,0.824 0.434,0.727 0.49,0.706 0.584,0.722 0.671,0.738 0.761,0.738 0.895,0.749 0.787,0.658 0.712,0.591 0.633,0.531 0.571,0.484 0.555,0.436 0.591,0.362 0.63,0.28 0.658,0.192 0.7,0.083 0.577,0.118 0.504,0.185 0.424,0.235 0.362,0.274 0.32,0.277 0.265,0.224 0.191,0.152 0.108,0.09 0,0"
             style="fill:#ffffff;fill-opacity:1;fill-rule:nonzero;stroke:none"
             id="path298"
             inkscape:connector-curvature="0" /></g><g
           id="g300"
           transform="translate(148.8193,89.1064)"><path
             d="M 0,0 C 0.027,0.113 0.037,0.198 0.068,0.273 0.118,0.395 0.079,0.466 -0.033,0.52 -0.1,0.552 -0.16,0.599 -0.239,0.649 -0.144,0.692 -0.057,0.695 0.026,0.687 0.147,0.675 0.193,0.73 0.211,0.839 0.225,0.92 0.255,0.998 0.283,1.097 0.35,1.009 0.375,0.923 0.398,0.841 0.43,0.733 0.49,0.706 0.595,0.72 0.681,0.731 0.769,0.756 0.877,0.734 0.798,0.666 0.735,0.596 0.658,0.548 0.56,0.487 0.559,0.421 0.603,0.327 0.639,0.252 0.68,0.177 0.687,0.066 0.597,0.123 0.515,0.164 0.445,0.219 0.365,0.284 0.306,0.269 0.239,0.202 0.172,0.136 0.097,0.081 0,0"
             style="fill:#ffffff;fill-opacity:1;fill-rule:nonzero;stroke:none"
             id="path302"
             inkscape:connector-curvature="0" /></g><g
           id="g304"
           transform="translate(143.5713,85.3383)"><path
             d="m 0,0 c 0.103,0.239 0.018,0.393 -0.215,0.483 -0.016,0.006 -0.029,0.021 -0.056,0.042 0.102,0.047 0.2,0.035 0.293,0.034 C 0.109,0.558 0.15,0.589 0.166,0.672 0.185,0.769 0.212,0.863 0.24,0.977 0.314,0.881 0.338,0.778 0.373,0.682 0.4,0.608 0.44,0.584 0.519,0.589 0.62,0.596 0.72,0.627 0.845,0.605 0.768,0.539 0.708,0.474 0.634,0.429 0.528,0.364 0.519,0.29 0.572,0.186 0.61,0.113 0.635,0.033 0.68,-0.082 0.565,-0.01 0.481,0.036 0.404,0.093 0.33,0.147 0.273,0.143 0.209,0.077 0.157,0.024 0.093,-0.017 0.034,-0.063 -0.021,-0.065 -0.014,-0.035 0,0"
             style="fill:#ffffff;fill-opacity:1;fill-rule:nonzero;stroke:none"
             id="path306"
             inkscape:connector-curvature="0" /></g><g
           id="g308"
           transform="translate(154.772,88.6938)"><path
             d="M 0,0 C 0.36,-0.087 0.511,0.076 0.505,0.431 0.518,0.423 0.531,0.417 0.543,0.409 0.583,0.314 0.627,0.221 0.659,0.123 0.685,0.045 0.73,0.022 0.807,0.035 0.902,0.051 0.999,0.064 1.123,0.048 1.033,-0.027 0.965,-0.096 0.885,-0.148 0.803,-0.201 0.802,-0.255 0.84,-0.334 0.882,-0.421 0.912,-0.513 0.959,-0.633 0.861,-0.573 0.787,-0.539 0.729,-0.488 0.621,-0.394 0.536,-0.413 0.446,-0.512 0.393,-0.57 0.325,-0.615 0.255,-0.672 0.286,-0.526 0.361,-0.382 0.33,-0.268 0.296,-0.148 0.112,-0.124 0,0"
             style="fill:#ffffff;fill-opacity:1;fill-rule:nonzero;stroke:none"
             id="path310"
             inkscape:connector-curvature="0" /></g><g
           id="g312"
           transform="translate(156.0571,87.7807)"><path
             d="M 0,0 C 0.159,0.018 0.314,-0.006 0.412,0.057 0.512,0.123 0.478,0.299 0.548,0.444 0.591,0.337 0.63,0.252 0.659,0.164 0.686,0.084 0.729,0.053 0.815,0.062 0.911,0.07 1.008,0.063 1.13,0.063 1.035,-0.017 0.959,-0.084 0.879,-0.146 0.826,-0.187 0.812,-0.225 0.842,-0.289 0.887,-0.385 0.921,-0.486 0.972,-0.617 0.856,-0.544 0.767,-0.495 0.685,-0.435 0.621,-0.388 0.576,-0.39 0.516,-0.445 0.445,-0.51 0.381,-0.587 0.281,-0.613 0.275,-0.599 0.268,-0.591 0.269,-0.584 0.297,-0.464 0.394,-0.33 0.331,-0.228 0.272,-0.13 0.129,-0.084 0,0"
             style="fill:#ffffff;fill-opacity:1;fill-rule:nonzero;stroke:none"
             id="path314"
             inkscape:connector-curvature="0" /></g><g
           id="g316"
           transform="translate(147.6104,88.3026)"><path
             d="m 0,0 c 0.11,0.24 0.023,0.394 -0.209,0.485 -0.02,0.008 -0.036,0.027 -0.051,0.078 0.095,0 0.191,0.006 0.285,-10e-4 0.089,-0.006 0.127,0.034 0.143,0.115 0.02,0.096 0.046,0.191 0.072,0.3 C 0.31,0.896 0.336,0.806 0.361,0.72 0.395,0.604 0.463,0.578 0.571,0.596 0.654,0.61 0.738,0.613 0.835,0.597 0.758,0.533 0.684,0.465 0.603,0.407 0.534,0.357 0.523,0.309 0.558,0.229 0.596,0.142 0.647,0.056 0.651,-0.052 0.63,-0.043 0.617,-0.039 0.605,-0.033 0.502,0.021 0.412,0.146 0.304,0.13 0.206,0.115 0.123,0.006 0.034,-0.062 -0.02,-0.064 -0.014,-0.034 0,0"
             style="fill:#ffffff;fill-opacity:1;fill-rule:nonzero;stroke:none"
             id="path318"
             inkscape:connector-curvature="0" /></g><g
           id="g320"
           transform="translate(158.4321,86.913)"><path
             d="m 0,0 c -0.25,-0.141 -0.293,-0.331 -0.136,-0.57 0.006,-0.009 0.005,-0.024 0.011,-0.06 -0.102,0.064 -0.19,0.112 -0.272,0.172 -0.061,0.044 -0.105,0.039 -0.159,-0.011 -0.076,-0.069 -0.159,-0.13 -0.267,-0.217 0.033,0.13 0.055,0.23 0.085,0.328 0.022,0.074 0.008,0.121 -0.065,0.158 -0.083,0.042 -0.158,0.098 -0.257,0.161 0.102,0.046 0.19,0.042 0.274,0.039 0.101,-0.004 0.157,0.023 0.17,0.133 0.011,0.086 0.043,0.17 0.07,0.27 0.061,-0.05 0.075,-0.112 0.088,-0.165 0.039,-0.171 0.135,-0.243 0.309,-0.204 C -0.096,0.037 -0.034,0.081 0,0"
             style="fill:#ffffff;fill-opacity:1;fill-rule:nonzero;stroke:none"
             id="path322"
             inkscape:connector-curvature="0" /></g><g
           id="g324"
           transform="translate(158.4321,86.913)"><path
             d="M 0,0 C -0.041,0.052 -0.101,0.018 -0.149,0.034 -0.1,0.068 -0.039,0.068 0.01,0.055 0.077,0.037 0.018,0.017 0,0"
             style="fill:#f1f1f1;fill-opacity:1;fill-rule:nonzero;stroke:none"
             id="path326"
             inkscape:connector-curvature="0" /></g><g
           id="g328"
           transform="translate(147.6104,88.3026)"><path
             d="M 0,0 C 0.004,-0.024 0.007,-0.049 0.034,-0.062 0.022,-0.083 -0.002,-0.11 -0.015,-0.096 -0.042,-0.065 -0.026,-0.029 0,0"
             style="fill:#f0f0f0;fill-opacity:1;fill-rule:nonzero;stroke:none"
             id="path330"
             inkscape:connector-curvature="0" /></g><g
           id="g332"
           transform="translate(143.5713,85.3383)"><path
             d="M 0,0 C 0.004,-0.025 0.007,-0.051 0.034,-0.063 0.022,-0.084 -0.002,-0.112 -0.015,-0.098 -0.042,-0.067 -0.026,-0.03 0,0"
             style="fill:#f2f2f2;fill-opacity:1;fill-rule:nonzero;stroke:none"
             id="path334"
             inkscape:connector-curvature="0" /></g><g
           id="g336"
           transform="translate(145.7373,94.5976)"><path
             d="m 0,0 v -1.039 c 0,-0.442 -0.003,-0.884 0.004,-1.326 0.002,-0.12 -0.037,-0.149 -0.151,-0.147 -0.395,0.007 -0.79,0.003 -1.185,0.002 -0.075,0 -0.123,10e-4 -0.068,0.096 0.455,0.805 0.908,1.611 1.362,2.416 C -0.025,0.002 -0.013,0.001 0,0"
             style="fill:#dbdada;fill-opacity:1;fill-rule:nonzero;stroke:none"
             id="path338"
             inkscape:connector-curvature="0" /></g><g
           id="g340"
           transform="translate(147.4097,92.079)"><path
             d="m 0,0 c -0.448,0 -0.862,0.003 -1.275,-0.002 -0.118,-0.001 -0.099,0.069 -0.099,0.138 0,0.829 0,1.657 0.032,2.499 C -0.9,1.767 -0.458,0.9 0,0"
             style="fill:#dbdada;fill-opacity:1;fill-rule:nonzero;stroke:none"
             id="path342"
             inkscape:connector-curvature="0" /></g><g
           id="g344"
           transform="translate(158.6172,92.019)"><path
             d="M 0,0 H -0.261 -1.319 C -1.375,0 -1.432,-0.012 -1.431,0.079 -1.429,0.893 -1.43,1.706 -1.43,2.562 -0.946,1.694 -0.48,0.859 0,0"
             style="fill:#dbdada;fill-opacity:1;fill-rule:nonzero;stroke:none"
             id="path346"
             inkscape:connector-curvature="0" /></g><g
           id="g348"
           transform="translate(155.5186,92.0067)"><path
             d="M 0,0 C 0.452,0.851 0.893,1.681 1.339,2.521 1.372,2.48 1.36,2.443 1.36,2.41 1.36,1.653 1.356,0.896 1.359,0.14 1.36,0.032 1.336,-0.005 1.221,-0.003 0.823,0.004 0.425,0 0,0"
             style="fill:#dbdada;fill-opacity:1;fill-rule:nonzero;stroke:none"
             id="path350"
             inkscape:connector-curvature="0" /></g><g
           id="g352"
           transform="translate(150.6592,97.2768)"><path
             d="m 0,0 c -0.012,-0.04 -0.051,-0.06 -0.082,-0.088 -0.027,-0.026 -0.053,-0.015 -0.071,0.011 -0.048,0.068 -0.107,0.05 -0.176,0.035 -1.133,-0.262 -2.268,-0.522 -3.402,-0.78 -0.083,-0.019 -0.137,-0.057 -0.186,-0.13 -0.142,-0.209 -0.335,-0.352 -0.585,-0.413 -0.058,-0.015 -0.098,-0.021 -0.114,0.053 -0.015,0.065 -0.009,0.107 0.066,0.125 0.253,0.062 0.434,0.215 0.542,0.451 0.022,0.049 0.066,0.049 0.104,0.058 1.216,0.282 2.432,0.562 3.649,0.843 C -0.165,0.185 0.002,0.08 0,0"
             style="fill:#ffffff;fill-opacity:1;fill-rule:nonzero;stroke:none"
             id="path354"
             inkscape:connector-curvature="0" /></g><g
           id="g356"
           transform="translate(155.9141,91.3124)"><path
             d="m 0,0 c -0.15,0.096 -0.233,0.214 -0.308,0.34 -0.053,0.09 -0.049,0.124 0.072,0.123 0.639,-0.007 1.279,-0.007 1.919,-0.009 0.099,0 0.198,-0.002 0.296,0 C 2.053,0.456 2.068,0.431 2.046,0.36 1.968,0.105 1.807,-0.078 1.576,-0.208 1.653,-0.066 1.749,0.064 1.816,0.211 1.856,0.299 1.836,0.326 1.741,0.326 1.204,0.323 0.668,0.323 0.132,0.326 0.041,0.326 0,0.293 0,0.205 Z"
             style="fill:#fefefe;fill-opacity:1;fill-rule:nonzero;stroke:none"
             id="path358"
             inkscape:connector-curvature="0" /></g><g
           id="g360"
           transform="translate(151.1079,95.3744)"><path
             d="M 0,0 C 0,0.221 0.003,0.441 -0.001,0.662 -0.004,0.771 0.068,0.748 0.131,0.752 0.208,0.757 0.24,0.732 0.237,0.649 0.224,0.283 0.219,-0.083 0.206,-0.45 0.203,-0.549 0.229,-0.626 0.318,-0.674 0.441,-0.741 0.365,-0.84 0.336,-0.906 0.308,-0.973 0.24,-0.907 0.197,-0.884 c -0.153,0.082 -0.232,0.21 -0.226,0.39 0.005,0.164 0.001,0.329 0.001,0.494 z"
             style="fill:#ffffff;fill-opacity:1;fill-rule:nonzero;stroke:none"
             id="path362"
             inkscape:connector-curvature="0" /></g><g
           id="g364"
           transform="translate(146.9307,91.3271)"><path
             d="M 0,0 C 0.222,0.397 0.209,0.42 -0.237,0.42 H -1.533 C -1.731,0.42 -1.75,0.396 -1.688,0.211 -1.683,0.194 -1.676,0.178 -1.663,0.143 -1.787,0.215 -1.854,0.305 -1.901,0.416 -1.938,0.503 -1.913,0.532 -1.819,0.531 -1.424,0.528 -1.03,0.529 -0.635,0.529 -0.325,0.528 -0.015,0.524 0.295,0.528 0.391,0.529 0.411,0.504 0.372,0.416 0.29,0.231 0.163,0.084 0.005,-0.039 -0.009,-0.027 -0.011,-0.015 0,0"
             style="fill:#fdfdfd;fill-opacity:1;fill-rule:nonzero;stroke:none"
             id="path366"
             inkscape:connector-curvature="0" /></g><g
           id="g368"
           transform="translate(152.3965,97.4032)"><path
             d="M 0,0 C 0.093,-0.014 0.181,-0.031 0.27,-0.04 0.363,-0.048 0.398,-0.086 0.384,-0.185 0.369,-0.287 0.315,-0.318 0.231,-0.284 0.049,-0.21 -0.057,-0.317 -0.17,-0.428 c -0.116,-0.114 -0.163,-0.105 -0.246,0.027 -0.021,0.034 -0.024,0.059 0.006,0.086 0.112,0.1 0.223,0.201 0.335,0.301 C -0.052,0.006 -0.023,0.008 0,0"
             style="fill:#ffffff;fill-opacity:1;fill-rule:nonzero;stroke:none"
             id="path370"
             inkscape:connector-curvature="0" /></g><g
           id="g372"
           transform="translate(157.0352,96.06)"><path
             d="M 0,0 C 0.317,-0.002 0.525,0.167 0.697,0.398 0.763,0.487 0.887,0.51 0.974,0.452 1.023,0.419 0.991,0.389 0.974,0.357 0.8,0.027 0.366,-0.136 0,0"
             style="fill:#ffffff;fill-opacity:1;fill-rule:nonzero;stroke:none"
             id="path374"
             inkscape:connector-curvature="0" /></g><g
           id="g376"
           transform="translate(145.0488,95.9599)"><path
             d="M 0,0 C -0.06,0.172 -0.121,0.345 -0.18,0.518 -0.191,0.55 -0.228,0.591 -0.178,0.615 -0.129,0.639 -0.072,0.662 -0.02,0.66 0.013,0.658 0.013,0.598 0.015,0.561 0.02,0.43 0.022,0.298 0.026,0.167 0.03,0.109 0.068,0.047 0,0"
             style="fill:#fdfdfd;fill-opacity:1;fill-rule:nonzero;stroke:none"
             id="path378"
             inkscape:connector-curvature="0" /></g><g
           id="g380"
           transform="translate(145.0488,95.9599)"><path
             d="M 0,0 C 0.043,0.05 0.007,0.113 0.026,0.167 0.065,0.092 0.045,0.013 0.05,-0.072 0.008,-0.052 0.005,-0.025 0,0"
             style="fill:#e5e5e5;fill-opacity:1;fill-rule:nonzero;stroke:none"
             id="path382"
             inkscape:connector-curvature="0" /></g><g
           id="g384"
           transform="translate(146.9307,91.3271)"><path
             d="M 0,0 C 0.001,-0.013 0.003,-0.026 0.005,-0.039 -0.013,-0.056 -0.031,-0.073 -0.064,-0.103 -0.056,-0.042 -0.027,-0.021 0,0"
             style="fill:#ececec;fill-opacity:1;fill-rule:nonzero;stroke:none"
             id="path386"
             inkscape:connector-curvature="0" /></g><g
           id="g388"
           transform="translate(156.6133,84.3935)"><path
             d="m 0,0 c -0.011,-0.25 -0.065,-0.485 -0.252,-0.667 -0.041,-0.04 -0.039,-0.06 0.001,-0.096 0.306,-0.286 0.334,-0.817 0.142,-1.163 -0.1,-0.181 -0.242,-0.319 -0.463,-0.322 -0.22,-0.003 -0.365,0.128 -0.471,0.308 -0.207,0.353 -0.166,0.827 0.104,1.145 0.045,0.054 0.051,0.079 0,0.135 -0.299,0.327 -0.328,0.868 -0.073,1.226 0.223,0.313 0.594,0.32 0.828,0.015 C -0.071,0.436 -0.002,0.216 0,0"
             style="fill:#dbdada;fill-opacity:1;fill-rule:nonzero;stroke:none"
             id="path390"
             inkscape:connector-curvature="0" /></g><g
           id="g392"
           transform="translate(151.5684,83.9535)"><path
             d="M 0,0 H 2.228 C 2.261,0 2.294,0 2.327,0 2.366,-0.001 2.405,-0.002 2.402,-0.058 2.399,-0.112 2.359,-0.11 2.321,-0.112 c -0.023,0 -0.047,0 -0.071,0 h -4.526 c -0.024,0 -0.047,0 -0.071,0 -0.037,0.002 -0.078,-0.003 -0.081,0.052 -0.004,0.068 0.047,0.059 0.087,0.06 0.197,0 0.395,0 0.592,0 z"
             style="fill:#fcfcfc;fill-opacity:1;fill-rule:nonzero;stroke:none"
             id="path394"
             inkscape:connector-curvature="0" /></g><g
           id="g396"
           transform="translate(155.5112,85.3266)"><path
             d="m 0,0 c 0.025,-0.026 0.048,-0.049 0.068,-0.074 0.018,-0.021 0.016,-0.041 -0.006,-0.06 -0.344,-0.291 -0.399,-0.698 -0.433,-1.109 -0.037,-0.442 -0.015,-0.882 0.093,-1.315 0.063,-0.249 0.185,-0.461 0.38,-0.629 0.047,-0.04 0.064,-0.073 0.023,-0.128 -0.056,-0.076 -0.092,-0.007 -0.124,0.02 -0.257,0.227 -0.394,0.518 -0.455,0.853 -0.103,0.574 -0.114,1.149 0.014,1.72 0.057,0.251 0.165,0.48 0.359,0.658 C -0.057,-0.042 -0.03,-0.024 0,0"
             style="fill:#ffffff;fill-opacity:1;fill-rule:nonzero;stroke:none"
             id="path398"
             inkscape:connector-curvature="0" /></g><g
           id="g400"
           transform="translate(146.6948,83.8358)"><path
             d="m 0,0 c -0.334,0 -0.668,0 -1.002,0.001 -0.052,0 -0.118,-0.022 -0.115,0.075 0.002,0.086 0.062,0.067 0.109,0.067 0.673,0.001 1.345,0 2.018,0 0.048,0 0.107,0.017 0.109,-0.068 C 1.121,-0.021 1.054,0.001 1.002,0.001 0.668,0 0.334,0 0,0"
             style="fill:#ffffff;fill-opacity:1;fill-rule:nonzero;stroke:none"
             id="path402"
             inkscape:connector-curvature="0" /></g><g
           id="g404"
           transform="translate(146.1426,82.6806)"><path
             d="m 0,0 c 0,-0.15 0,-0.3 0,-0.45 0,-0.05 -0.001,-0.092 -0.071,-0.092 -0.068,0 -0.074,0.039 -0.074,0.091 0.001,0.299 0.001,0.599 0,0.899 0,0.051 0.003,0.092 0.072,0.093 C -0.004,0.542 0,0.501 0,0.45 0,0.3 0,0.15 0,0"
             style="fill:#fefefe;fill-opacity:1;fill-rule:nonzero;stroke:none"
             id="path406"
             inkscape:connector-curvature="0" /></g><g
           id="g408"
           transform="translate(156.8765,82.9975)"><path
             d="m 0,0 c 0,-0.176 -0.028,-0.318 -0.062,-0.459 -0.01,-0.041 -0.014,-0.102 -0.087,-0.081 -0.061,0.018 -0.075,0.045 -0.057,0.113 0.062,0.242 0.097,0.489 0.002,0.733 -0.025,0.062 0.021,0.069 0.056,0.09 0.063,0.037 0.073,-0.017 0.085,-0.053 C -0.022,0.223 0.007,0.1 0,0"
             style="fill:#fefefe;fill-opacity:1;fill-rule:nonzero;stroke:none"
             id="path410"
             inkscape:connector-curvature="0" /></g><g
           id="g412"
           transform="translate(148.0029,82.7558)"><path
             d="m 0,0 c 0,-0.065 -0.005,-0.131 0.001,-0.197 0.008,-0.096 -0.027,-0.143 -0.127,-0.129 -0.043,0.007 -0.103,-0.022 -0.124,0.037 -0.018,0.055 -0.018,0.109 0.06,0.131 0.045,0.013 0.028,0.064 0.029,0.099 0.002,0.108 0.001,0.216 0.001,0.323 -0.001,0.048 0.011,0.081 0.069,0.082 0.056,0 0.091,-0.017 0.09,-0.079 l 0,-0.267 z"
             style="fill:#f8f7f7;fill-opacity:1;fill-rule:nonzero;stroke:none"
             id="path414"
             inkscape:connector-curvature="0" /></g><g
           id="g416"
           transform="translate(156.855,84.414)"><path
             d="m 0,0 c 0.003,-0.157 -0.03,-0.307 -0.082,-0.455 -0.015,-0.041 -0.026,-0.083 -0.086,-0.062 -0.052,0.018 -0.075,0.044 -0.055,0.105 0.071,0.206 0.111,0.416 0.051,0.635 -0.016,0.056 0.032,0.071 0.071,0.086 C -0.044,0.332 -0.043,0.283 -0.03,0.25 0.002,0.169 -0.003,0.084 0,0"
             style="fill:#fefefe;fill-opacity:1;fill-rule:nonzero;stroke:none"
             id="path418"
             inkscape:connector-curvature="0" /></g><g
           id="g420"
           transform="translate(146.6182,82.4286)"><path
             d="M 0,0 C -0.052,0.016 -0.129,-0.032 -0.141,0.068 -0.152,0.161 -0.085,0.147 -0.031,0.17 0.023,0.192 0.07,0.246 0.128,0.203 0.169,0.173 0.148,0.116 0.146,0.071 0.142,-0.042 0.05,0.021 0,0"
             style="fill:#fafafa;fill-opacity:1;fill-rule:nonzero;stroke:none"
             id="path422"
             inkscape:connector-curvature="0" /></g><path
           d="M 277.847,13.632 H 25.626 v 3.594 h 252.221 z"
           style="fill:#e9e9e9;fill-opacity:1;fill-rule:nonzero;stroke:#e9e9e9;stroke-width:0.5;stroke-linecap:butt;stroke-linejoin:miter;stroke-miterlimit:10;stroke-dasharray:none;stroke-opacity:1"
           id="path424"
           inkscape:connector-curvature="0" /></g></g></g></svg>