<?xml version="1.0" encoding="UTF-8" standalone="no"?>
<!-- Created with Inkscape (http://www.inkscape.org/) -->

<svg
   xmlns:dc="http://purl.org/dc/elements/1.1/"
   xmlns:cc="http://creativecommons.org/ns#"
   xmlns:rdf="http://www.w3.org/1999/02/22-rdf-syntax-ns#"
   xmlns:svg="http://www.w3.org/2000/svg"
   xmlns="http://www.w3.org/2000/svg"
   xmlns:sodipodi="http://sodipodi.sourceforge.net/DTD/sodipodi-0.dtd"
   xmlns:inkscape="http://www.inkscape.org/namespaces/inkscape"
   version="1.1"
   id="svg2"
   xml:space="preserve"
   width="404.62933"
   height="252.03333"
   viewBox="0 0 404.62933 252.03333"
   sodipodi:docname="09-Pyramid-graphics-FIN.svg"
   inkscape:version="0.92.5 (2060ec1f9f, 2020-04-08)"><metadata
     id="metadata8"><rdf:RDF><cc:Work
         rdf:about=""><dc:format>image/svg+xml</dc:format><dc:type
           rdf:resource="http://purl.org/dc/dcmitype/StillImage" /><dc:title></dc:title></cc:Work></rdf:RDF></metadata><defs
     id="defs6"><clipPath
       clipPathUnits="userSpaceOnUse"
       id="clipPath72"><path
         d="M 0,189.025 H 303.472 V 0 H 0 Z"
         id="path70"
         inkscape:connector-curvature="0" /></clipPath><clipPath
       clipPathUnits="userSpaceOnUse"
       id="clipPath354"><path
         d="M 0,189.025 H 303.472 V 0 H 0 Z"
         id="path352"
         inkscape:connector-curvature="0" /></clipPath></defs><sodipodi:namedview
     pagecolor="#ffffff"
     bordercolor="#666666"
     borderopacity="1"
     objecttolerance="10"
     gridtolerance="10"
     guidetolerance="10"
     inkscape:pageopacity="0"
     inkscape:pageshadow="2"
     inkscape:window-width="640"
     inkscape:window-height="480"
     id="namedview4"
     showgrid="false"
     inkscape:zoom="0.93638411"
     inkscape:cx="204.45054"
     inkscape:cy="120.67697"
     inkscape:window-x="0"
     inkscape:window-y="27"
     inkscape:window-maximized="0"
     inkscape:current-layer="g10" /><g
     id="g10"
     inkscape:groupmode="layer"
     inkscape:label="Pyramid-graphics-FIN"
     transform="matrix(1.3333333,0,0,-1.3333333,0,252.03333)"><path
       d="M 206.797,83.585 H 17.921 v 3.594 h 188.876 z"
       style="fill:#e9e9e9;fill-opacity:1;fill-rule:nonzero;stroke:#e9e9e9;stroke-width:0.5;stroke-linecap:butt;stroke-linejoin:miter;stroke-miterlimit:10;stroke-dasharray:none;stroke-opacity:1"
       id="path12"
       inkscape:connector-curvature="0" /><g
       id="g14"
       transform="translate(207.1241,87.1627)"><path
         d="M 0,0 V 92.69 H -189.203 V 0"
         style="fill:#ffffff;fill-opacity:1;fill-rule:nonzero;stroke:#231f20;stroke-width:0.5;stroke-linecap:butt;stroke-linejoin:miter;stroke-miterlimit:10;stroke-dasharray:none;stroke-opacity:1"
         id="path16"
         inkscape:connector-curvature="0" /></g><text
       transform="matrix(1,0,0,-1,39.9434,150.2124)"
       style="font-variant:normal;font-weight:normal;font-stretch:normal;font-size:8.48830032px;font-family:'Engravers LH Bold Face';-inkscape-font-specification:EngraversLH-BoldFace;writing-mode:lr-tb;fill:#231f20;fill-opacity:1;fill-rule:nonzero;stroke:none"
       id="text20"><tspan
         x="0"
         y="0"
         sodipodi:role="line"
         id="tspan18">Bhanga reEngland</tspan></text>
<text
       transform="matrix(1,0,0,-1,123.0391,134.5464)"
       style="font-style:italic;font-variant:normal;font-weight:normal;font-stretch:normal;font-size:9px;font-family:Georgia;-inkscape-font-specification:Georgia-Italic;writing-mode:lr-tb;fill:#231f20;fill-opacity:1;fill-rule:nonzero;stroke:none"
       id="text24"><tspan
         x="0"
         y="0"
         sodipodi:role="line"
         id="tspan22">Zvikwereti</tspan></text>
<text
       transform="matrix(1,0,0,-1,123.0391,108.5454)"
       style="font-variant:normal;font-weight:normal;font-stretch:normal;font-size:9px;font-family:Georgia;-inkscape-font-specification:Georgia;writing-mode:lr-tb;fill:#231f20;fill-opacity:1;fill-rule:nonzero;stroke:none"
       id="text30"><tspan
         x="0"
         y="0"
         sodipodi:role="line"
         id="tspan26">BoE notes,</tspan><tspan
         x="0"
         y="10.998"
         sodipodi:role="line"
         id="tspan28">BoE deposits</tspan></text>
<text
       transform="matrix(1,0,0,-1,41.4811,134.3214)"
       style="font-style:italic;font-variant:normal;font-weight:normal;font-stretch:normal;font-size:9px;font-family:Georgia;-inkscape-font-specification:Georgia-Italic;writing-mode:lr-tb;fill:#231f20;fill-opacity:1;fill-rule:nonzero;stroke:none"
       id="text34"><tspan
         x="0"
         y="0"
         sodipodi:role="line"
         id="tspan32">Zviwanikwa</tspan></text>
<text
       transform="matrix(1,0,0,-1,41.4811,108.3204)"
       style="font-variant:normal;font-weight:normal;font-stretch:normal;font-size:9px;font-family:Georgia;-inkscape-font-specification:Georgia;writing-mode:lr-tb;fill:#231f20;fill-opacity:1;fill-rule:nonzero;stroke:none"
       id="text40"><tspan
         x="0"
         y="0"
         sodipodi:role="line"
         id="tspan36">Goridhe,</tspan><tspan
         x="0"
         y="10.998"
         sodipodi:role="line"
         id="tspan38">mabhondi</tspan></text>
<g
       id="g42"
       transform="translate(112.6817,145.1725)"><path
         d="M 0,0 V -54.766"
         style="fill:none;stroke:#231f20;stroke-width:0.25;stroke-linecap:butt;stroke-linejoin:miter;stroke-miterlimit:10;stroke-dasharray:none;stroke-opacity:1"
         id="path44"
         inkscape:connector-curvature="0" /></g><g
       id="g46"
       transform="translate(194.6407,145.1725)"><path
         d="M 0,0 V -57.646"
         style="fill:none;stroke:#231f20;stroke-width:0.25;stroke-linecap:butt;stroke-linejoin:miter;stroke-miterlimit:10;stroke-dasharray:none;stroke-opacity:1"
         id="path48"
         inkscape:connector-curvature="0" /></g><g
       id="g50"
       transform="translate(30.3223,145.1725)"><path
         d="M 0,0 V -57.646"
         style="fill:none;stroke:#231f20;stroke-width:0.25;stroke-linecap:butt;stroke-linejoin:miter;stroke-miterlimit:10;stroke-dasharray:none;stroke-opacity:1"
         id="path52"
         inkscape:connector-curvature="0" /></g><g
       id="g54"
       transform="translate(30.3223,129.1378)"><path
         d="M 0,0 H 164.318"
         style="fill:none;stroke:#231f20;stroke-width:0.25;stroke-linecap:butt;stroke-linejoin:miter;stroke-miterlimit:10;stroke-dasharray:none;stroke-opacity:1"
         id="path56"
         inkscape:connector-curvature="0" /></g><g
       id="g58"
       transform="translate(30.3223,145.1725)"><path
         d="M 0,0 H 164.318"
         style="fill:none;stroke:#231f20;stroke-width:0.25;stroke-linecap:butt;stroke-linejoin:miter;stroke-miterlimit:10;stroke-dasharray:none;stroke-opacity:1"
         id="path60"
         inkscape:connector-curvature="0" /></g><text
       transform="matrix(1,0,0,-1,42.333,119.8843)"
       style="font-style:italic;font-variant:normal;font-weight:bold;font-stretch:normal;font-size:8px;font-family:Georgia;-inkscape-font-specification:Georgia-BoldItalic;writing-mode:lr-tb;fill:#656263;fill-opacity:1;fill-rule:nonzero;stroke:none"
       id="text64"><tspan
         x="0"
         y="0"
         sodipodi:role="line"
         id="tspan62">reya rekutanga</tspan><tspan
         x="90"
         y="0"
         sodipodi:role="line"
         id="tspan62">reya rechipiri</tspan></text>
<g
       id="g66"><g
         id="g68"
         clip-path="url(#clipPath72)"><g
           id="g74"
           transform="translate(112.6817,175.5441)"><path
             d="m 0,0 c 4.719,0 8.544,-3.825 8.544,-8.543 0,-4.719 -3.825,-8.544 -8.544,-8.544 -4.718,0 -8.543,3.825 -8.543,8.544 C -8.543,-3.825 -4.718,0 0,0"
             style="fill:#211d1d;fill-opacity:1;fill-rule:nonzero;stroke:none"
             id="path76"
             inkscape:connector-curvature="0" /></g><g
           id="g78"
           transform="translate(112.6817,175.1344)"><path
             d="m 0,0 c 4.492,0 8.134,-3.642 8.134,-8.134 0,-4.492 -3.642,-8.134 -8.134,-8.134 -4.492,0 -8.134,3.642 -8.134,8.134 C -8.134,-3.642 -4.492,0 0,0"
             style="fill:#ffffff;fill-opacity:1;fill-rule:nonzero;stroke:none"
             id="path80"
             inkscape:connector-curvature="0" /></g><g
           id="g82"
           transform="translate(112.6817,174.8165)"><path
             d="m 0,0 c 4.317,0 7.816,-3.5 7.816,-7.816 0,-4.317 -3.499,-7.816 -7.816,-7.816 -4.316,0 -7.815,3.499 -7.815,7.816 C -7.815,-3.5 -4.316,0 0,0"
             style="fill:#211d1d;fill-opacity:1;fill-rule:nonzero;stroke:none"
             id="path84"
             inkscape:connector-curvature="0" /></g><g
           id="g86"
           transform="translate(114.5518,162.1354)"><path
             d="m 0,0 c -1.317,-0.168 -1.97,0.25 -2.999,1.102 0.084,-0.506 0.448,-0.898 0.75,-1.119 0.275,-0.202 0.857,-0.347 1.241,-0.347 0.384,0 0.74,0.217 1.008,0.364"
             style="fill:#ffffff;fill-opacity:1;fill-rule:nonzero;stroke:none"
             id="path88"
             inkscape:connector-curvature="0" /></g><g
           id="g90"
           transform="translate(111.8008,161.2521)"><path
             d="M 0,0 C 0.066,-0.009 0.108,0.108 0.053,0.146 -0.048,0.213 -0.136,0.325 -0.047,0.594 -0.161,0.587 -0.443,0.733 -0.559,1.227 -0.624,0.749 -0.334,0.049 0,0"
             style="fill:#ffffff;fill-opacity:1;fill-rule:nonzero;stroke:none"
             id="path92"
             inkscape:connector-curvature="0" /></g><g
           id="g94"
           transform="translate(112.6622,161.5592)"><path
             d="M 0,0 C -0.094,0.281 -0.637,0.32 -0.692,0.461 -0.738,0.3 -0.812,0.293 -0.825,0.027 -0.586,0.222 -0.351,-0.094 -0.253,-0.233 -0.155,-0.372 0.089,-0.266 0,0"
             style="fill:#ffffff;fill-opacity:1;fill-rule:nonzero;stroke:none"
             id="path96"
             inkscape:connector-curvature="0" /></g><g
           id="g98"
           transform="translate(113.1749,161.2526)"><path
             d="M 0,0 C -0.053,0.089 -0.168,0.086 -0.3,0.413 -0.443,0.238 -0.361,0.054 -0.272,-0.026 -0.184,-0.106 -0.022,-0.055 0,0"
             style="fill:#ffffff;fill-opacity:1;fill-rule:nonzero;stroke:none"
             id="path100"
             inkscape:connector-curvature="0" /></g><g
           id="g102"
           transform="translate(112.2784,166.3263)"><path
             d="m 0,0 c -1.405,0 -1.622,-2.065 -1.622,-2.872 0,-0.147 -0.005,-0.419 -0.008,-0.533 l -0.344,1.363 c -0.084,0 -0.136,-0.195 -0.116,-0.278 l 0.953,-3.812 c 0.035,-0.132 0.057,-0.225 0.147,-0.207 0.103,0.022 0.036,0.232 0.011,0.343 l -0.387,1.543 c 0.089,0.18 0.165,0.414 0.205,0.645 -0.088,0 -0.275,0.026 -0.302,0.133 0.284,0.009 0.327,0.086 0.332,0.131 0.105,0.981 -0.015,2.187 0.398,2.831 0.415,0.647 1.295,0.545 1.624,0.581 C 0.722,-0.026 0.277,0 0,0"
             style="fill:#ffffff;fill-opacity:1;fill-rule:nonzero;stroke:none"
             id="path104"
             inkscape:connector-curvature="0" /></g><g
           id="g106"
           transform="translate(109.1866,161.0133)"><path
             d="M 0,0 C 0.466,-0.12 1.218,0.145 1.438,0.496 1.408,0.636 1.382,0.729 1.343,0.897 1.299,0.698 1.207,0.515 1.038,0.359 0.705,0.58 0.612,0.093 0,0"
             style="fill:#ffffff;fill-opacity:1;fill-rule:nonzero;stroke:none"
             id="path108"
             inkscape:connector-curvature="0" /></g><g
           id="g110"
           transform="translate(111.7169,166.9591)"><path
             d="m 0,0 c -0.835,-0.133 -1.077,0.07 -1.345,0.034 -0.393,-0.053 -0.589,-0.315 -0.515,-0.568 0.013,0.099 0.222,0.315 0.409,0.288 -0.094,-0.097 -0.153,-0.18 -0.12,-0.279 -0.004,0.011 0.073,-0.057 0.186,0.04 0.211,0.183 0.527,0.219 0.773,0.219 0.296,0 0.587,0.048 0.705,0.15 C 0.137,-0.08 0.038,0.006 0,0"
             style="fill:#ffffff;fill-opacity:1;fill-rule:nonzero;stroke:none"
             id="path112"
             inkscape:connector-curvature="0" /></g><g
           id="g114"
           transform="translate(119.4717,170.6759)"><path
             d="M 0,0 C -0.491,-0.435 -0.652,-0.222 -1.03,-0.341 -1.049,-0.348 -1.038,-0.295 -1.059,-0.303 -0.566,0.349 -0.192,-0.073 0,0"
             style="fill:#ffffff;fill-opacity:1;fill-rule:nonzero;stroke:none"
             id="path116"
             inkscape:connector-curvature="0" /></g><g
           id="g118"
           transform="translate(119.0333,169.9523)"><path
             d="M 0,0 C 0.005,0.229 -0.269,0.534 -0.687,0.371 -0.365,0.042 -0.164,0.078 0,0"
             style="fill:#ffffff;fill-opacity:1;fill-rule:nonzero;stroke:none"
             id="path120"
             inkscape:connector-curvature="0" /></g><g
           id="g122"
           transform="translate(115.5762,162.5944)"><path
             d="m 0,0 c 0.021,0.052 0.09,0.089 0.021,0.141 -0.245,0.182 -0.044,0.262 -0.125,0.329 -0.24,0.177 -0.532,-0.094 -0.892,0.413 0.174,-0.073 0.393,-0.235 0.615,-0.165 -0.215,0.689 -0.615,1.736 -0.696,2.167 -0.027,0.141 -0.062,0.349 -0.404,0.349 -0.215,0 -0.336,-0.04 -0.445,-0.094 0.028,0.074 0.282,0.219 0.45,0.24 -0.825,0.158 -2.231,0.245 -2.459,-0.81 -0.05,-0.237 0.246,-0.575 1.034,-0.298 0.114,0.041 0.249,-0.046 0.074,-0.215 -0.175,-0.168 -0.761,-0.572 -1.272,-0.215 0.115,-0.175 0.471,-0.296 0.754,-0.296 0.282,0 0.751,0.05 0.971,0.655 0.06,0 0.406,0.014 0.645,0.373 -0.074,-0.506 -0.248,-0.68 -0.425,-0.812 -0.12,-0.261 -0.398,-0.836 -1.204,-0.836 -0.204,0 -0.316,0.007 -0.501,0.13 0.401,-0.516 2.211,-1.931 3.698,-1.159 -0.018,-0.08 -0.194,-0.257 -0.389,-0.333 -0.377,-0.148 -0.641,-0.581 -1.804,-0.644 0.026,-0.373 0.624,-0.288 0.759,-0.242 -0.226,0.034 -0.344,0.077 -0.36,0.135 0.426,-0.023 0.889,0.027 1.421,0.268 -0.054,-0.121 -0.084,-0.205 -0.204,-0.258 0.706,-0.057 0.941,0.525 1.108,0.584 C 0.334,-0.45 0.042,-0.039 0,0"
             style="fill:#ffffff;fill-opacity:1;fill-rule:nonzero;stroke:none"
             id="path124"
             inkscape:connector-curvature="0" /></g><g
           id="g126"
           transform="translate(112.3692,167.5524)"><path
             d="m 0,0 c -0.064,-0.167 -0.386,-0.359 -0.319,-0.626 0,0.08 0.379,0.416 0.466,0.586 C 0.329,0.314 0.227,0.426 0.16,0.746 0.153,0.471 0.11,0.281 0,0"
             style="fill:#ffffff;fill-opacity:1;fill-rule:nonzero;stroke:none"
             id="path128"
             inkscape:connector-curvature="0" /></g><g
           id="g130"
           transform="translate(110.0255,164.17)"><path
             d="M 0,0 C 0.064,-0.077 0.104,-0.238 0.191,-0.244 0.174,-0.225 0.211,-0.071 0.155,0.004 0.111,0.235 0.132,0.341 0.16,0.359 0.267,0.429 0.23,0.177 0.309,0.113 0.328,0.097 0.354,0.077 0.388,0.098 0.384,0.158 0.373,0.24 0.387,0.358 0.34,0.464 0.307,0.683 0.307,0.692 0.217,0.834 0.129,0.954 -0.009,1.057 -0.062,1.124 -0.118,1.23 -0.188,1.333 -0.333,1.543 -0.596,2.174 -0.825,2.681 -0.98,3.024 -1.154,3.197 -1.101,3.294 -1.027,3.42 -0.985,3.501 -0.95,3.593 -1.012,3.829 -1.202,4.565 -1.306,4.979 -1.622,4.408 -1.606,3.657 -1.682,3.391 -1.763,3.108 -1.662,3.088 -1.643,2.957 -1.577,2.535 -1.208,1.938 -0.966,1.686 -0.827,1.542 -0.411,1.1 -0.411,0.919 -0.393,0.846 -0.366,0.712 -0.372,0.56 -0.351,0.491 -0.313,0.501 -0.272,0.459 -0.253,0.439 -0.248,0.368 -0.204,0.346 -0.181,0.335 -0.169,0.331 -0.106,0.284 -0.074,0.26 -0.04,0.048 0,0"
             style="fill:#ffffff;fill-opacity:1;fill-rule:nonzero;stroke:none"
             id="path132"
             inkscape:connector-curvature="0" /></g><g
           id="g134"
           transform="translate(113.1885,166.754)"><path
             d="m 0,0 c -0.115,-0.089 -0.491,0.131 -0.745,0.1 -0.173,-0.027 -0.259,-0.136 -0.349,-0.149 -0.517,0.102 -1.097,-0.242 -1.383,-0.671 -0.044,-0.068 -0.109,-0.12 -0.118,-0.213 -0.009,-0.093 0.065,-0.12 0.011,-0.253 -0.109,-0.374 -0.106,-0.678 -0.063,-0.937 0.097,0.347 0.39,1.537 1.508,1.763 -0.279,0.053 -0.683,-0.067 -0.959,-0.182 0.312,0.355 0.826,0.346 1.166,0.329 0.018,0.001 -0.069,0.07 -0.1,0.137 0.071,0 0.149,-0.082 0.386,-0.071 0.26,0.013 0.355,0.025 0.5,0.047 C -0.363,-0.208 -0.53,-0.284 -0.837,-0.293 0.025,-0.56 0.185,-0.24 0.638,-0.169 0.575,-0.054 0.3,0.026 0,0"
             style="fill:#ffffff;fill-opacity:1;fill-rule:nonzero;stroke:none"
             id="path136"
             inkscape:connector-curvature="0" /></g><g
           id="g138"
           transform="translate(109.504,164.3937)"><path
             d="M 0,0 C -0.186,0.853 -0.812,1.408 -1.293,1.536 -1.31,1.541 -1.539,0.751 -1.513,0.002 -1.007,0.039 -0.377,0.026 0,0"
             style="fill:#ffffff;fill-opacity:1;fill-rule:nonzero;stroke:none"
             id="path140"
             inkscape:connector-curvature="0" /></g><g
           id="g142"
           transform="translate(108.0938,163.4283)"><path
             d="M 0,0 C 0.155,-0.794 0.369,-1.281 0.532,-1.579 0.926,-1.383 1.41,-0.919 1.489,0.046 0.937,0.071 0.397,0.029 0,0"
             style="fill:#ffffff;fill-opacity:1;fill-rule:nonzero;stroke:none"
             id="path144"
             inkscape:connector-curvature="0" /></g><g
           id="g146"
           transform="translate(107.2618,165.8112)"><path
             d="m 0,0 c -0.404,-0.232 -0.814,-0.767 -0.859,-1.657 0.172,0.045 0.42,0.105 0.653,0.14 -0.01,0.328 0,0.865 0.206,1.517"
             style="fill:#ffffff;fill-opacity:1;fill-rule:nonzero;stroke:none"
             id="path148"
             inkscape:connector-curvature="0" /></g><g
           id="g150"
           transform="translate(106.5176,163.2335)"><path
             d="M 0,0 C 0.246,-0.876 0.815,-1.271 1.15,-1.404 0.875,-0.891 0.731,-0.406 0.638,0.097 0.356,0.059 0.151,0.027 0,0"
             style="fill:#ffffff;fill-opacity:1;fill-rule:nonzero;stroke:none"
             id="path152"
             inkscape:connector-curvature="0" /></g><g
           id="g154"
           transform="translate(110.7715,166.4249)"><path
             d="M 0,0 C -0.64,-0.084 -0.607,-0.596 -0.547,-0.71 -0.416,-0.42 -0.347,-0.302 0,0"
             style="fill:#ffffff;fill-opacity:1;fill-rule:nonzero;stroke:none"
             id="path156"
             inkscape:connector-curvature="0" /></g><g
           id="g158"
           transform="translate(109.5469,168.2911)"><path
             d="M 0,0 C 0.135,0.094 0.135,0.323 0.114,0.43 0.014,0.275 -0.033,0.127 0,0"
             style="fill:#ffffff;fill-opacity:1;fill-rule:nonzero;stroke:none"
             id="path160"
             inkscape:connector-curvature="0" /></g><g
           id="g162"
           transform="translate(118.5157,170.796)"><path
             d="M 0,0 C -0.433,-0.02 -0.626,-0.155 -0.694,-0.611 0.012,-0.345 -0.168,-0.071 0,0"
             style="fill:#ffffff;fill-opacity:1;fill-rule:nonzero;stroke:none"
             id="path164"
             inkscape:connector-curvature="0" /></g><g
           id="g166"
           transform="translate(111.9171,169.1154)"><path
             d="m 0,0 c -0.042,-0.255 -0.258,-0.258 -0.346,-0.373 -0.034,0.046 0.013,0.188 0.039,0.249 -0.246,-0.167 -0.399,-0.428 -0.399,-0.64 -0.066,0.111 -0.182,0.489 -0.511,0.604 -0.099,0.035 -0.047,-0.065 0,-0.169 0.047,-0.103 0.137,-0.355 0.134,-0.595 -0.003,-0.162 -0.096,-0.317 -0.148,-0.34 0.068,0.527 -0.243,1.14 -0.314,1.14 -0.134,0 -0.329,-0.809 -0.05,-1.408 -0.572,0.697 -0.234,1.304 -0.234,1.461 0,0.182 -0.021,0.271 -0.169,0.4 0.071,-0.524 -0.155,-0.724 -0.237,-1.157 -0.04,-0.214 -0.04,-0.384 0.031,-0.483 0.069,-0.101 0.199,-0.219 0.246,-0.278 0.047,-0.061 0.236,-0.32 0.386,-0.32 0.125,0 0.124,0.181 0.065,0.245 0.067,0.009 0.146,-0.005 0.193,-0.055 0.097,-0.102 0.03,-0.193 0.067,-0.19 0.188,0.013 0.441,0.686 0.5,0.895 0.201,-0.536 -0.185,-0.989 -0.127,-0.988 0.168,0.004 0.479,0.39 0.578,0.542 0.005,-0.029 0.006,-0.056 -0.004,-0.09 -0.031,-0.116 -0.056,-0.266 -0.007,-0.266 0.161,0 0.247,0.509 0.263,0.706 0.016,0.196 0.283,0.301 0.265,0.625 -0.007,0.116 -0.115,0.367 -0.075,0.479 0.117,-0.066 0.208,-0.113 0.286,-0.156 0.102,-0.055 0.359,-0.141 0.455,-0.167 0.287,-0.075 0.688,-0.183 0.792,-0.211 0.119,-0.033 0.166,-0.066 0.252,-0.066 0.444,0 1.1,0.354 1.166,0.404 0.07,0.054 0.253,0.15 0.374,0.223 0.116,0.083 0.327,0.21 0.453,0.25 C 3.989,0.294 4.039,0.282 4.083,0.26 4.227,0.188 4.306,0.152 4.469,0.134 4.344,-0.03 4.14,-0.266 4.025,-0.5 c 0.02,-0.024 0.076,-0.05 0.096,-0.064 0.181,0.306 0.37,0.566 0.557,0.77 0.012,0.013 -0.076,0.029 -0.063,0.089 0.009,0.01 0.183,-0.089 0.3,-0.053 0.007,0.007 0.056,0 0.05,0.063 0.056,0.02 0.072,0.069 0.066,0.08 C 4.892,0.408 4.783,0.429 4.737,0.426 4.723,0.423 4.676,0.4 4.685,0.367 4.658,0.365 4.619,0.354 4.616,0.327 4.356,0.22 4.086,0.519 3.871,0.455 3.943,0.595 4.294,0.445 4.456,0.442 4.678,0.438 4.715,0.528 5.015,0.435 5.197,0.395 5.236,0.477 5.102,0.531 4.996,0.574 4.816,0.607 4.742,0.646 4.875,0.648 5.005,0.668 5.178,0.598 5.213,0.599 5.204,0.615 5.211,0.625 5.247,0.673 5.794,1.038 6.524,1.219 L 6.536,1.291 C 6.196,1.23 5.874,1.124 5.156,0.717 5.138,0.726 5.079,0.746 4.888,0.781 4.582,0.746 3.967,0.747 3.81,0.682 3.023,0.355 2.424,0.308 2.077,0.109 1.88,-0.005 1.628,0.218 1.545,0.275 1.343,0.415 1.276,0.435 1.109,0.515 1.045,0.542 0.74,0.718 0.679,0.73 0.359,0.689 0.06,0.253 0,0"
             style="fill:#ffffff;fill-opacity:1;fill-rule:nonzero;stroke:none"
             id="path168"
             inkscape:connector-curvature="0" /></g><g
           id="g170"
           transform="translate(110.0987,169.462)"><path
             d="M 0,0 C 0.175,-0.202 0.506,-0.404 0.866,-0.284 0.347,-0.171 -0.056,0.896 -0.641,0.932 -0.766,0.941 -0.952,0.897 -1.139,0.648 -0.473,0.906 -0.163,0.188 0,0"
             style="fill:#ffffff;fill-opacity:1;fill-rule:nonzero;stroke:none"
             id="path172"
             inkscape:connector-curvature="0" /></g><g
           id="g174"
           transform="translate(117.8399,170.776)"><path
             d="M 0,0 C -0.099,-0.004 -0.56,-0.133 -0.436,-0.782 0.048,-0.462 -0.062,-0.098 0,0"
             style="fill:#ffffff;fill-opacity:1;fill-rule:nonzero;stroke:none"
             id="path176"
             inkscape:connector-curvature="0" /></g><g
           id="g178"
           transform="translate(117.2374,170.4562)"><path
             d="m 0,0 c -0.413,-0.22 -0.301,-0.445 -0.309,-0.6 l 0.103,-0.04 C 0.101,-0.333 -0.039,-0.076 0,0"
             style="fill:#ffffff;fill-opacity:1;fill-rule:nonzero;stroke:none"
             id="path180"
             inkscape:connector-curvature="0" /></g><g
           id="g182"
           transform="translate(116.4981,160.7242)"><path
             d="M 0,0 C -0.245,0.057 -0.407,-0.011 -0.63,0.142 -0.747,0.223 -1.129,0.429 -1.376,0.488 -1.853,0.312 -2.041,0.373 -2.265,0.379 -2.539,0.23 -2.853,0.28 -3.124,0.379 -3.381,0.19 -3.6,0.276 -3.712,0.364 -4.146,0.106 -4.083,0.478 -4.377,0.484 -4.809,0.208 -5.166,0.392 -5.337,0.499 c 0.039,-0.168 0.094,-0.36 0.14,-0.555 l 5.249,-0.003 c 0,0 0.081,0.028 -0.052,0.059"
             style="fill:#ffffff;fill-opacity:1;fill-rule:nonzero;stroke:none"
             id="path184"
             inkscape:connector-curvature="0" /></g><g
           id="g186"
           transform="translate(116.3672,160.4537)"><path
             d="m 0,0 h -5.013 l 0.086,-0.351 c 0.041,-0.201 -0.036,-0.313 -0.189,-0.308 -0.142,0.004 -0.207,0.068 -0.256,0.256 L -5.473,0 h -1.619 c 0.175,-0.104 1.557,-0.887 3.533,-0.897 C -1.754,-0.906 -0.382,-0.217 0,0"
             style="fill:#ffffff;fill-opacity:1;fill-rule:nonzero;stroke:none"
             id="path188"
             inkscape:connector-curvature="0" /></g><g
           id="g190"
           transform="translate(108.335,169.4269)"><path
             d="m 0,0 c -1.106,-1.536 -0.592,-2.463 -0.494,-2.66 -0.053,0.23 -0.151,0.679 0,1.07 0,-0.068 0.026,-0.285 0.187,-0.435 -0.036,0.39 -0.205,0.723 0.457,2.088 C 0.196,0.165 0.092,0.127 0,0"
             style="fill:#ffffff;fill-opacity:1;fill-rule:nonzero;stroke:none"
             id="path192"
             inkscape:connector-curvature="0" /></g><g
           id="g194"
           transform="translate(110.2491,163.0636)"><path
             d="m 0,0 c -0.037,0.164 -0.161,0.665 -0.224,0.903 -0.088,0.138 -0.188,0.227 -0.283,0.28 0.011,-0.049 0.022,-0.099 0.03,-0.15 0.041,-0.24 0.053,-0.506 0.027,-0.774 -0.083,-0.853 -0.523,-1.731 -1.454,-1.87 -1.01,-0.151 -2.1,1.039 -2.075,2.517 0.024,1.478 0.906,2.158 1.578,2.165 0.309,0.003 0.615,-0.069 0.953,-0.309 C -1.662,3.131 -1.735,3.33 -1.797,3.537 -1.969,3.602 -2.22,3.635 -2.391,3.627 -3.944,3.548 -4.628,1.612 -4.259,0.089 -4.119,-0.49 -3.84,-1.093 -3.387,-1.538 -3.158,-1.75 -2.794,-2.066 -2.348,-2.137 -1.159,-2.409 -0.163,-1.346 0,0"
             style="fill:#ffffff;fill-opacity:1;fill-rule:nonzero;stroke:none"
             id="path196"
             inkscape:connector-curvature="0" /></g><g
           id="g198"
           transform="translate(108.3077,171.5441)"><path
             d="m 0,0 c 0.021,-0.062 1.36,-5.451 1.392,-5.577 0.023,-0.094 0.073,-0.183 0.125,-0.173 0.037,0.007 0.091,0.068 0.056,0.196 0,0 -0.559,2.198 -0.579,2.291 0.166,0.266 0.204,0.657 0.36,0.858 0.093,-0.129 0.105,0.006 0.107,0.107 0.017,0.673 -0.352,0.779 -0.429,0.784 -0.327,0.02 -0.384,-0.354 -0.384,-0.354 L 0.176,0.038 C 0.266,0.051 0.333,0.011 0.395,-0.049 0.376,0.149 0.169,0.827 -0.207,1.027 -0.403,0.401 -0.235,-0.027 -0.183,-0.205 -0.164,-0.125 -0.116,-0.027 0,0"
             style="fill:#ffffff;fill-opacity:1;fill-rule:nonzero;stroke:none"
             id="path200"
             inkscape:connector-curvature="0" /></g><g
           id="g202"
           transform="translate(110.7051,161.2111)"><path
             d="M 0,0 C -0.408,-0.284 -1.099,-0.444 -1.485,-0.458 -1.686,-0.462 -1.69,-0.521 -1.681,-0.546 -1.523,-0.549 0.14,-0.544 0.14,-0.544 0.14,-0.544 0.035,-0.133 0,0"
             style="fill:#ffffff;fill-opacity:1;fill-rule:nonzero;stroke:none"
             id="path204"
             inkscape:connector-curvature="0" /></g><g
           id="g206"
           transform="translate(117.8965,170.1896)"><path
             d="M 0,0 C 0.623,0.017 0.703,-0.296 0.693,-0.439 0.636,-0.386 0.16,-0.426 0,0"
             style="fill:#ffffff;fill-opacity:1;fill-rule:nonzero;stroke:none"
             id="path208"
             inkscape:connector-curvature="0" /></g><g
           id="g210"
           transform="translate(117.462,169.9767)"><path
             d="M 0,0 C 0.253,-0.369 0.556,-0.334 0.715,-0.391 0.528,0.08 0.105,0.024 0,0"
             style="fill:#ffffff;fill-opacity:1;fill-rule:nonzero;stroke:none"
             id="path212"
             inkscape:connector-curvature="0" /></g><g
           id="g214"
           transform="translate(117.4659,169.7189)"><path
             d="m 0,0 c -0.094,0.046 -0.295,0.099 -0.399,0.04 0,0 0.045,-0.417 0.692,-0.337 C 0.303,-0.32 0.098,-0.048 0,0"
             style="fill:#ffffff;fill-opacity:1;fill-rule:nonzero;stroke:none"
             id="path216"
             inkscape:connector-curvature="0" /></g><g
           id="g218"
           transform="translate(116.4005,160.9196)"><path
             d="M 0,0 C 0.1,0 0.284,-0.026 0.462,0.116 0.589,0.076 0.652,0.18 0.675,0.24 0.56,0.293 0.205,0.493 0.025,0.653 -0.129,0.79 -0.207,0.891 -0.346,0.941 -0.532,0.852 -0.818,0.443 -0.959,0.417 -0.63,0.284 -0.396,0.001 0,0"
             style="fill:#ffffff;fill-opacity:1;fill-rule:nonzero;stroke:none"
             id="path220"
             inkscape:connector-curvature="0" /></g><g
           id="g222"
           transform="translate(116.5381,164.2789)"><path
             d="m 0,0 c -0.021,-0.09 -0.161,-0.135 -0.311,-0.098 -0.149,0.036 -0.251,0.14 -0.23,0.23 C -0.448,0.123 -0.365,0.158 -0.23,0.23 -0.187,0.134 -0.081,0.069 0,0"
             style="fill:#ffffff;fill-opacity:1;fill-rule:nonzero;stroke:none"
             id="path224"
             inkscape:connector-curvature="0" /></g><g
           id="g226"
           transform="translate(116.6417,163.6837)"><path
             d="M 0,0 C 0.112,-0.041 0.233,-0.031 0.307,0.009 0.327,-0.061 0.29,-0.19 0.176,-0.282 0.046,-0.387 -0.128,-0.407 -0.179,-0.343 -0.053,-0.284 0.01,-0.14 0,0"
             style="fill:#ffffff;fill-opacity:1;fill-rule:nonzero;stroke:none"
             id="path228"
             inkscape:connector-curvature="0" /></g><g
           id="g230"
           transform="translate(116.1797,163.1862)"><path
             d="m 0,0 c 0.13,-0.062 0.21,-0.17 0.187,-0.271 -0.029,-0.127 -0.208,-0.193 -0.4,-0.15 -0.192,0.044 -0.324,0.182 -0.296,0.308 0.015,0.063 0.066,0.111 0.137,0.138 C -0.327,-0.009 -0.142,-0.041 0,0"
             style="fill:#ffffff;fill-opacity:1;fill-rule:nonzero;stroke:none"
             id="path232"
             inkscape:connector-curvature="0" /></g><g
           id="g234"
           transform="translate(116.0508,163.6593)"><path
             d="m 0,0 c -0.006,0 -0.013,0 -0.019,-0.001 -0.177,0.066 -0.218,0.158 -0.21,0.274 -0.092,0 -0.286,-0.015 -0.268,-0.163 0.011,-0.092 0.117,-0.175 0.24,-0.199 -0.032,-0.031 -0.051,-0.068 -0.05,-0.108 0.001,-0.106 0.141,-0.19 0.312,-0.188 0.171,0.002 0.308,0.091 0.307,0.197 C 0.311,-0.082 0.171,0.002 0,0"
             style="fill:#ffffff;fill-opacity:1;fill-rule:nonzero;stroke:none"
             id="path236"
             inkscape:connector-curvature="0" /></g><g
           id="g238"
           transform="translate(117.1631,162.6569)"><path
             d="m 0,0 c -0.072,-0.118 -0.265,-0.131 -0.43,-0.03 -0.164,0.101 -0.238,0.279 -0.166,0.396 0.073,0.118 0.264,0.132 0.429,0.03 C -0.002,0.295 0.072,0.118 0,0"
             style="fill:#ffffff;fill-opacity:1;fill-rule:nonzero;stroke:none"
             id="path240"
             inkscape:connector-curvature="0" /></g><g
           id="g242"
           transform="translate(118.1768,161.649)"><path
             d="m 0,0 c 0,-0.251 -0.231,-0.456 -0.517,-0.456 -0.285,0 -0.515,0.205 -0.515,0.456 0,0.252 0.23,0.456 0.515,0.456 C -0.231,0.456 0,0.252 0,0"
             style="fill:#ffffff;fill-opacity:1;fill-rule:nonzero;stroke:none"
             id="path244"
             inkscape:connector-curvature="0" /></g><g
           id="g246"
           transform="translate(118.4229,163.4865)"><path
             d="m 0,0 c 0.081,-0.035 0.139,-0.094 0.153,-0.169 0.028,-0.147 -0.115,-0.298 -0.319,-0.337 -0.204,-0.04 -0.393,0.047 -0.421,0.193 -0.014,0.073 0.014,0.146 0.069,0.206 C -0.453,-0.152 -0.123,-0.173 0,0"
             style="fill:#ffffff;fill-opacity:1;fill-rule:nonzero;stroke:none"
             id="path248"
             inkscape:connector-curvature="0" /></g><g
           id="g250"
           transform="translate(118.629,162.4972)"><path
             d="M 0,0 C -0.214,0.007 -0.382,0.165 -0.377,0.353 -0.257,0.336 0.001,0.46 0.021,0.681 0.234,0.674 0.403,0.517 0.397,0.329 0.392,0.141 0.214,-0.007 0,0"
             style="fill:#ffffff;fill-opacity:1;fill-rule:nonzero;stroke:none"
             id="path252"
             inkscape:connector-curvature="0" /></g><g
           id="g254"
           transform="translate(117.3204,162.4757)"><path
             d="M 0,0 C 0.496,-0.044 0.624,0.171 0.668,0.373 0.694,0.361 0.718,0.347 0.74,0.333 0.855,0.256 0.924,0.142 0.912,0.02 0.894,-0.178 0.673,-0.318 0.418,-0.294 0.21,-0.274 0.044,-0.152 0,0"
             style="fill:#ffffff;fill-opacity:1;fill-rule:nonzero;stroke:none"
             id="path256"
             inkscape:connector-curvature="0" /></g><g
           id="g258"
           transform="translate(116.3311,162.089)"><path
             d="M 0,0 C 0.033,0.077 0.102,0.13 0.189,0.156 0.193,0.059 0.312,-0.282 0.823,-0.196 0.807,-0.234 0.804,-0.324 0.854,-0.364 0.782,-0.532 0.533,-0.588 0.297,-0.488 0.062,-0.387 -0.071,-0.168 0,0"
             style="fill:#ffffff;fill-opacity:1;fill-rule:nonzero;stroke:none"
             id="path260"
             inkscape:connector-curvature="0" /></g><g
           id="g262"
           transform="translate(116.543,162.3634)"><path
             d="M 0,0 C -0.036,-0.115 -0.215,-0.161 -0.399,-0.104 -0.584,-0.046 -0.705,0.094 -0.669,0.209 -0.61,0.181 -0.45,0.148 -0.27,0.312 -0.085,0.255 0.036,0.115 0,0"
             style="fill:#ffffff;fill-opacity:1;fill-rule:nonzero;stroke:none"
             id="path264"
             inkscape:connector-curvature="0" /></g><g
           id="g266"
           transform="translate(117.3516,162.0695)"><path
             d="m 0,0 c -0.065,-0.02 -0.14,-0.031 -0.218,-0.031 -0.272,0 -0.493,0.134 -0.493,0.3 0.051,0.013 0.275,-0.051 0.532,0.189 C -0.2,0.289 -0.134,0.096 0,0"
             style="fill:#ffffff;fill-opacity:1;fill-rule:nonzero;stroke:none"
             id="path268"
             inkscape:connector-curvature="0" /></g><g
           id="g270"
           transform="translate(117.7061,164.4196)"><path
             d="m 0,0 c -0.235,-0.148 -0.413,-0.174 -0.482,-0.121 0.217,0.058 0.37,0.194 0.34,0.304 -0.024,0.093 -0.17,0.138 -0.346,0.116 C -0.503,0.194 -0.542,0.057 -0.923,0.054 -0.935,0.026 -0.937,0 -0.931,-0.025 c 0.022,-0.079 0.131,-0.124 0.272,-0.121 -0.07,-0.166 -0.255,-0.233 -0.454,-0.207 -0.006,-0.13 0.159,-0.244 0.369,-0.254 0.21,-0.009 0.385,0.088 0.39,0.22 0.001,0.004 0,0.009 0,0.014 0.041,-0.011 0.083,-0.019 0.128,-0.021 0.213,-0.011 0.391,0.077 0.398,0.198 C 0.176,-0.118 0.107,-0.045 0,0"
             style="fill:#ffffff;fill-opacity:1;fill-rule:nonzero;stroke:none"
             id="path272"
             inkscape:connector-curvature="0" /></g><g
           id="g274"
           transform="translate(115.8858,164.2291)"><path
             d="m 0,0 c 0,0.107 -0.179,0.195 -0.398,0.195 -0.009,0 -0.023,0.001 -0.037,0.002 -0.033,0.47 -0.067,0.983 -0.062,1.28 0.003,0.16 -0.026,0.328 -0.241,0.408 -0.195,0.072 -0.899,0.342 -1.121,0.392 -0.277,-0.002 -0.518,-0.16 -0.734,-0.312 0.064,0.002 0.081,0.011 0.137,0.01 0.3,-0.009 0.392,0.004 0.671,-0.076 0.182,-0.052 0.352,-0.147 0.398,-0.227 0.061,-0.107 0.273,-0.283 0.359,-0.283 0.086,0 0.209,0.082 0.369,0.196 C -0.699,1.339 -0.82,1.233 -0.905,1.122 -0.991,1.011 -1.039,0.767 -0.977,0.473 -0.923,0.607 -0.92,0.89 -0.692,1.015 -0.796,0.827 -0.799,0.294 -0.799,0.083 c 0,-0.211 0.159,-0.524 0.417,-1.021 0.025,0.106 0,0.33 -0.026,0.744 0.004,0 0.007,-0.001 0.01,-0.001 C -0.179,-0.195 0,-0.107 0,0"
             style="fill:#ffffff;fill-opacity:1;fill-rule:nonzero;stroke:none"
             id="path276"
             inkscape:connector-curvature="0" /></g><g
           id="g278"
           transform="translate(117.6807,163.1705)"><path
             d="M 0,0 C -0.079,-0.106 -0.152,-0.298 -0.432,-0.351 -0.359,-0.467 -0.166,-0.5 0.02,-0.421 0.061,-0.403 0.099,-0.38 0.132,-0.355 0.025,-0.209 0.005,-0.122 0,0"
             style="fill:#ffffff;fill-opacity:1;fill-rule:nonzero;stroke:none"
             id="path280"
             inkscape:connector-curvature="0" /></g><g
           id="g282"
           transform="translate(118.2491,164.0172)"><path
             d="m 0,0 c -0.195,0.083 -0.389,0.068 -0.433,-0.034 -0.018,-0.045 0.011,-0.147 0.075,-0.2 -0.087,0.004 -0.14,0.017 -0.224,0.133 -0.086,-0.04 -0.174,-0.019 -0.222,-0.014 -0.018,-0.057 -0.008,-0.12 0.026,-0.178 -0.099,0.038 -0.23,0.021 -0.342,-0.055 -0.165,-0.11 -0.23,-0.303 -0.144,-0.431 0.085,-0.127 0.288,-0.142 0.453,-0.032 0.147,0.098 0.213,0.261 0.167,0.385 0.031,-0.018 0.064,-0.034 0.1,-0.046 0.171,-0.056 0.341,-0.014 0.405,0.095 C 0.05,-0.451 0.232,-0.434 0.275,-0.335 0.318,-0.234 0.195,-0.083 0,0"
             style="fill:#ffffff;fill-opacity:1;fill-rule:nonzero;stroke:none"
             id="path284"
             inkscape:connector-curvature="0" /></g><g
           id="g286"
           transform="translate(112.2901,170.087)"><path
             d="m 0,0 c -0.263,0.191 -0.269,0.388 -0.396,0.325 0.161,-0.347 0.129,-0.596 -0.377,-0.85 -0.036,0.093 0.093,0.146 0.196,0.246 0.114,0.112 0.154,0.278 0.089,0.541 -0.014,0.054 -0.124,0.329 -0.373,0.324 0.141,-0.204 0.288,-0.423 0.155,-0.77 0,0.293 -0.063,0.387 -0.263,0.624 -0.057,-0.072 -0.197,-0.16 -0.21,-0.324 -0.169,0.089 0.231,0.534 0.148,0.733 -0.114,0.059 -0.167,0.194 -0.183,0.328 0.113,-0.117 0.297,-0.219 0.519,-0.253 0.102,-0.016 0.207,-0.005 0.226,0.066 0.021,0.072 -0.015,0.086 -0.01,0.116 0.001,0.018 -0.004,0.058 0.062,0.056 0.022,0.061 -0.003,0.079 -0.036,0.104 0.067,0 0.09,0.042 0.094,0.057 -0.013,0.024 -0.029,0.04 -0.014,0.074 0.026,0.066 0.166,0.026 0.176,0.097 0.007,0.04 -0.021,0.074 -0.039,0.117 -0.031,0.069 -0.032,0.067 -0.087,0.203 -0.028,0.068 0.009,0.133 0.019,0.237 0.014,0.119 -0.043,0.276 -0.043,0.276 0.178,0.116 0.16,0.291 0.083,0.318 C -0.45,2.698 -0.732,3.053 -1.099,3.08 -1.379,3.1 -1.745,3.1 -1.912,2.886 -2.034,2.73 -2.297,2.49 -2.345,2.233 -2.397,1.954 -2.331,1.659 -2.144,1.526 -2.206,1.757 -2.21,1.887 -2.205,2.021 c 0.006,0.142 0.074,0.699 0.597,0.941 0.289,0.077 0.663,0.071 0.782,-0.129 -0.22,0.066 -0.459,0.04 -0.653,-0.04 C -1.672,2.713 -1.892,2.513 -1.829,2.18 -1.98,2.176 -2.006,2.334 -2.007,2.335 -2.051,2.224 -2.111,1.869 -1.84,1.685 c 0.064,-0.043 0.149,10e-4 0.12,0.046 -0.111,0.182 -0.024,0.329 0.015,0.344 0.098,0.037 0.191,0.134 0.206,0.258 0.081,-0.153 0.04,-0.259 -0.053,-0.353 0.286,0.067 0.14,0.191 0.513,0.245 C -1.27,2.091 -1.19,1.916 -1.436,1.837 -1.013,1.684 -1.082,2.356 -0.626,2.304 -1.022,2.264 -0.979,1.235 -1.874,1.053 -1.998,0.496 -2.216,0.458 -2.535,0.32 c 0.65,-0.191 0.919,-1.034 1.611,-0.91 -0.07,-0.124 -0.169,-0.124 -0.258,-0.124 -0.007,-0.178 0.016,-0.322 0.15,-0.316 0.605,0.134 0.752,0.793 1.32,0.893 C 0.267,-0.066 0.098,-0.08 0,0 m -0.732,2.434 c 0.199,0.066 0.185,0.179 0.11,0.323 0.349,-0.17 0.302,-0.363 -0.11,-0.323 m 0.211,-0.497 c 0.013,0.005 -0.014,0.1 -0.173,0.091 0.203,0.11 0.35,-0.004 0.346,-0.024 C -0.358,1.954 -0.413,1.931 -0.419,1.893 -0.421,1.876 -0.384,1.866 -0.375,1.85 -0.394,1.851 -0.427,1.835 -0.443,1.834 -0.45,1.819 -0.468,1.763 -0.484,1.761 c -0.101,0.003 -0.16,0.111 -0.224,0.13 0.015,-0.006 0.078,0.035 0.187,0.046 M -2.18,1.428 C -2.677,1.064 -2.322,0.626 -2.73,0.409 c 0.475,0.015 0.346,0.7 0.55,1.019"
             style="fill:#ffffff;fill-opacity:1;fill-rule:nonzero;stroke:none"
             id="path288"
             inkscape:connector-curvature="0" /></g><g
           id="g290"
           transform="translate(107.459,165.9034)"><path
             d="M 0,0 C 0.204,0.074 0.438,0.086 0.582,0.058 0.029,-1.854 0.604,-3.423 1.005,-4.109 0.735,-4.193 0.456,-4.153 0.401,-4.128 -0.128,-3.075 -0.496,-1.511 0,0"
             style="fill:#ffffff;fill-opacity:1;fill-rule:nonzero;stroke:none"
             id="path292"
             inkscape:connector-curvature="0" /></g><g
           id="g294"
           transform="translate(106.4034,163.9791)"><path
             d="m 0,0 c 0.009,-0.196 0.044,-0.458 0.07,-0.577 0.702,0.128 1.588,0.222 3.119,0.252 C 3.205,-0.169 3.161,0.18 3.136,0.266 2.197,0.351 0.562,0.214 0,0"
             style="fill:#ffffff;fill-opacity:1;fill-rule:nonzero;stroke:none"
             id="path296"
             inkscape:connector-curvature="0" /></g><g
           id="g298"
           transform="translate(119.2989,162.3561)"><path
             d="m 0,0 c -0.13,-0.178 -0.374,-0.465 -0.543,-0.633 -0.217,0.053 -0.369,0.181 -0.369,0.329 0,0.196 0.268,0.356 0.601,0.355 C -0.197,0.051 -0.091,0.033 0,0"
             style="fill:#ffffff;fill-opacity:1;fill-rule:nonzero;stroke:none"
             id="path300"
             inkscape:connector-curvature="0" /></g><g
           id="g302"
           transform="translate(117.1133,164.7589)"><path
             d="m 0,0 c -0.004,-0.083 -0.171,-0.143 -0.373,-0.133 -0.202,0.008 -0.362,0.083 -0.359,0.165 0.003,0.083 0.17,0.143 0.373,0.134 C -0.157,0.157 0.003,0.083 0,0"
             style="fill:#ffffff;fill-opacity:1;fill-rule:nonzero;stroke:none"
             id="path304"
             inkscape:connector-curvature="0" /></g><g
           id="g306"
           transform="translate(116.5186,164.9742)"><path
             d="M 0,0 C -0.024,0.061 -0.225,0.037 -0.446,-0.054 -0.666,-0.146 -0.825,-0.27 -0.8,-0.33 -0.774,-0.392 -0.575,-0.367 -0.354,-0.276 -0.134,-0.185 0.025,-0.062 0,0"
             style="fill:#ffffff;fill-opacity:1;fill-rule:nonzero;stroke:none"
             id="path308"
             inkscape:connector-curvature="0" /></g><g
           id="g310"
           transform="translate(116.4141,164.0587)"><path
             d="m 0,0 c -0.049,-0.075 -0.054,-0.16 0.033,-0.262 -0.059,-0.03 -0.139,-0.049 -0.226,-0.049 -0.186,0 -0.335,0.083 -0.335,0.185 0,0.102 0.149,0.184 0.335,0.184 C -0.16,0.031 -0.116,-0.004 0,0"
             style="fill:#ffffff;fill-opacity:1;fill-rule:nonzero;stroke:none"
             id="path312"
             inkscape:connector-curvature="0" /></g><path
           d="M 289.242,10.708 H 100.039 v 3.594 h 189.203 z"
           style="fill:#e9e9e9;fill-opacity:1;fill-rule:nonzero;stroke:#e9e9e9;stroke-width:0.5;stroke-linecap:butt;stroke-linejoin:miter;stroke-miterlimit:10;stroke-dasharray:none;stroke-opacity:1"
           id="path314"
           inkscape:connector-curvature="0" /><g
           id="g316"
           transform="translate(289.2422,14.3019)"><path
             d="M 0,0 V 77.505 H -189.203 V 0"
             style="fill:#ffffff;fill-opacity:1;fill-rule:nonzero;stroke:#231f20;stroke-width:0.5;stroke-linecap:butt;stroke-linejoin:miter;stroke-miterlimit:10;stroke-dasharray:none;stroke-opacity:1"
             id="path318"
             inkscape:connector-curvature="0" /></g></g></g><text
       transform="matrix(1,0,0,-1,122.2988,80.6655)"
       style="font-variant:normal;font-weight:normal;font-stretch:normal;font-size:9.4314003px;font-family:'Engravers LH Bold Face';-inkscape-font-specification:EngraversLH-BoldFace;writing-mode:lr-tb;fill:#231f20;fill-opacity:1;fill-rule:nonzero;stroke:none"
       id="text322"><tspan
         x="0"
         y="0"
         sodipodi:role="line"
         id="tspan320">Vanoita bhizinesi</tspan></text>
<text
       transform="matrix(1,0,0,-1,200.9141,80.6655)"
       style="font-variant:normal;font-weight:normal;font-stretch:normal;font-size:8.48830032px;font-family:'Engravers LH Bold Face';-inkscape-font-specification:EngraversLH-BoldFace;writing-mode:lr-tb;fill:#231f20;fill-opacity:1;fill-rule:nonzero;stroke:none"
       id="text326"><tspan
         x="0"
         y="0"
         sodipodi:role="line"
         id="tspan324">vakazvimirira</tspan></text>
<text
       transform="matrix(1,0,0,-1,205.0908,64.707)"
       style="font-style:italic;font-variant:normal;font-weight:normal;font-stretch:normal;font-size:9px;font-family:Georgia;-inkscape-font-specification:Georgia-Italic;writing-mode:lr-tb;fill:#231f20;fill-opacity:1;fill-rule:nonzero;stroke:none"
       id="text330"><tspan
         x="0"
         y="0"
         sodipodi:role="line"
         id="tspan328">Zvikwereti</tspan></text>
<text
       transform="matrix(1,0,0,-1,205.0908,38.706)"
       style="font-variant:normal;font-weight:normal;font-stretch:normal;font-size:9px;font-family:Georgia;-inkscape-font-specification:Georgia;writing-mode:lr-tb;fill:#231f20;fill-opacity:1;fill-rule:nonzero;stroke:none"
       id="text336"><tspan
         x="0"
         y="0"
         sodipodi:role="line"
         id="tspan332">dhipozitsi,</tspan><tspan
         x="0"
         y="10.998"
         sodipodi:role="line"
         id="tspan334">Mabhiri ekuchinjana</tspan></text>
<text
       transform="matrix(1,0,0,-1,123.6408,64.914)"
       style="font-style:italic;font-variant:normal;font-weight:normal;font-stretch:normal;font-size:9px;font-family:Georgia;-inkscape-font-specification:Georgia-Italic;writing-mode:lr-tb;fill:#231f20;fill-opacity:1;fill-rule:nonzero;stroke:none"
       id="text340"><tspan
         x="0"
         y="0"
         sodipodi:role="line"
         id="tspan338">Zviwanikwa</tspan></text>
<text
       transform="matrix(1,0,0,-1,123.6408,38.913)"
       style="font-variant:normal;font-weight:normal;font-stretch:normal;font-size:9px;font-family:Georgia;-inkscape-font-specification:Georgia;writing-mode:lr-tb;fill:#231f20;fill-opacity:1;fill-rule:nonzero;stroke:none"
       id="text346"><tspan
         x="0"
         y="0"
         sodipodi:role="line"
         id="tspan342">BoE mari yebepa,</tspan><tspan
         x="0"
         y="10.998"
         sodipodi:role="line"
         id="tspan344">BoE dhipozitsi</tspan></text>
<g
       id="g348"><g
         id="g350"
         clip-path="url(#clipPath354)"><g
           id="g356"
           transform="translate(194.8418,75.7648)"><path
             d="M 0,0 V -61.463"
             style="fill:none;stroke:#231f20;stroke-width:0.25;stroke-linecap:butt;stroke-linejoin:miter;stroke-miterlimit:10;stroke-dasharray:none;stroke-opacity:1"
             id="path358"
             inkscape:connector-curvature="0" /></g><g
           id="g360"
           transform="translate(276.7999,75.7648)"><path
             d="M 0,0 V -61.463"
             style="fill:none;stroke:#231f20;stroke-width:0.25;stroke-linecap:butt;stroke-linejoin:miter;stroke-miterlimit:10;stroke-dasharray:none;stroke-opacity:1"
             id="path362"
             inkscape:connector-curvature="0" /></g><g
           id="g364"
           transform="translate(112.4815,75.7648)"><path
             d="M 0,0 V -61.463"
             style="fill:none;stroke:#231f20;stroke-width:0.25;stroke-linecap:butt;stroke-linejoin:miter;stroke-miterlimit:10;stroke-dasharray:none;stroke-opacity:1"
             id="path366"
             inkscape:connector-curvature="0" /></g><g
           id="g368"
           transform="translate(112.4815,59.7296)"><path
             d="M 0,0 H 164.318"
             style="fill:none;stroke:#231f20;stroke-width:0.25;stroke-linecap:butt;stroke-linejoin:miter;stroke-miterlimit:10;stroke-dasharray:none;stroke-opacity:1"
             id="path370"
             inkscape:connector-curvature="0" /></g><g
           id="g372"
           transform="translate(112.4815,75.7643)"><path
             d="M 0,0 H 164.318"
             style="fill:none;stroke:#231f20;stroke-width:0.25;stroke-linecap:butt;stroke-linejoin:miter;stroke-miterlimit:10;stroke-dasharray:none;stroke-opacity:1"
             id="path374"
             inkscape:connector-curvature="0" /></g></g></g><text
       transform="matrix(1,0,0,-1,205.1514,50.6758)"
       style="font-style:italic;font-variant:normal;font-weight:bold;font-stretch:normal;font-size:8px;font-family:Georgia;-inkscape-font-specification:Georgia-BoldItalic;writing-mode:lr-tb;fill:#656263;fill-opacity:1;fill-rule:nonzero;stroke:none"
       id="text378"><tspan
         x="0"
         y="0"
         sodipodi:role="line"
         id="tspan376">reya rechitatu</tspan><tspan
         x="-81.183998"
         y="0"
         sodipodi:role="line"
         id="tspan376">reya rechipiri</tspan></text>
</g></svg>