<?xml version="1.0" encoding="utf-8"?>
<!-- Generator: Adobe Illustrator 16.0.4, SVG Export Plug-In . SVG Version: 6.00 Build 0)  -->
<!DOCTYPE svg PUBLIC "-//W3C//DTD SVG 1.1//EN" "http://www.w3.org/Graphics/SVG/1.1/DTD/svg11.dtd">
<svg version="1.1" id="Layer_1" xmlns="http://www.w3.org/2000/svg" xmlns:xlink="http://www.w3.org/1999/xlink" x="0px" y="0px"
	 width="160px" height="80px" viewBox="0 0 160 80" enable-background="new 0 0 160 80" xml:space="preserve">
<path fill="#3654FF" d="M160,70c0,5.5-4.5,10-10,10H10C4.5,80,0,75.5,0,70V10C0,4.5,4.5,0,10,0h140c5.5,0,10,4.5,10,10V70z"/>
<g>
	<path fill="#FFFFFF" d="M45.931,31.986c-0.199-0.69-0.479-1.304-0.838-1.839s-0.798-0.989-1.314-1.364
		c-0.516-0.374-1.103-0.66-1.761-0.859c-0.658-0.198-1.385-0.298-2.18-0.298c-1.487,0-2.792,0.369-3.914,1.108
		c-1.122,0.738-1.996,1.811-2.621,3.217s-0.938,3.123-0.938,5.149s0.308,3.75,0.923,5.17c0.615,1.421,1.486,2.503,2.613,3.246
		s2.458,1.115,3.992,1.115c1.392,0,2.583-0.249,3.572-0.746c0.99-0.497,1.748-1.2,2.273-2.109s0.788-1.983,0.788-3.225l1.25,0.185
		h-7.5v-4.631H52.45v3.665c0,2.557-0.54,4.752-1.619,6.584s-2.566,3.243-4.46,4.233c-1.894,0.989-4.062,1.484-6.505,1.484
		c-2.728,0-5.123-0.604-7.188-1.812s-3.672-2.926-4.823-5.156c-1.15-2.23-1.726-4.879-1.726-7.947c0-2.358,0.343-4.463,1.03-6.313
		c0.687-1.852,1.65-3.421,2.891-4.709c1.24-1.288,2.685-2.269,4.333-2.94c1.647-0.673,3.433-1.009,5.355-1.009
		c1.648,0,3.182,0.239,4.602,0.718c1.421,0.478,2.683,1.152,3.786,2.023c1.103,0.872,2.005,1.906,2.706,3.104
		c0.701,1.197,1.15,2.517,1.35,3.955H45.931z"/>
	<path fill="#FFFFFF" d="M63.174,52.086c-1.392,0-2.633-0.244-3.722-0.731s-1.948-1.212-2.578-2.173
		c-0.63-0.962-0.944-2.162-0.944-3.602c0-1.212,0.222-2.229,0.667-3.054s1.051-1.486,1.818-1.988s1.641-0.881,2.621-1.137
		s2.01-0.436,3.089-0.54c1.269-0.132,2.292-0.258,3.068-0.376s1.34-0.296,1.69-0.533c0.35-0.236,0.525-0.587,0.525-1.051v-0.085
		c0-0.899-0.282-1.596-0.845-2.088c-0.563-0.493-1.361-0.739-2.394-0.739c-1.089,0-1.956,0.239-2.599,0.718
		c-0.644,0.479-1.07,1.077-1.278,1.797l-5.597-0.455c0.284-1.325,0.843-2.474,1.676-3.444c0.833-0.971,1.91-1.719,3.231-2.244
		c1.321-0.525,2.853-0.788,4.595-0.788c1.212,0,2.374,0.142,3.487,0.426s2.103,0.725,2.969,1.321
		c0.867,0.597,1.551,1.361,2.053,2.294s0.753,2.048,0.753,3.345v14.716h-5.739v-3.025h-0.17c-0.351,0.682-0.819,1.281-1.406,1.797
		c-0.587,0.517-1.292,0.919-2.116,1.207C65.206,51.941,64.254,52.086,63.174,52.086z M64.907,47.91c0.89,0,1.676-0.178,2.358-0.533
		c0.682-0.354,1.217-0.835,1.605-1.441c0.388-0.606,0.582-1.293,0.582-2.06v-2.315c-0.189,0.123-0.447,0.234-0.774,0.334
		s-0.694,0.189-1.101,0.27c-0.407,0.081-0.814,0.151-1.221,0.213c-0.407,0.062-0.777,0.116-1.108,0.164
		c-0.71,0.104-1.331,0.27-1.861,0.497c-0.531,0.227-0.942,0.532-1.236,0.916c-0.294,0.384-0.44,0.859-0.44,1.428
		c0,0.823,0.3,1.451,0.902,1.882S63.979,47.91,64.907,47.91z"/>
	<path fill="#FFFFFF" d="M86.214,22.583v29.091h-6.051V22.583H86.214z"/>
	<path fill="#FFFFFF" d="M100.9,52.101c-2.207,0-4.111-0.472-5.717-1.414c-1.605-0.941-2.844-2.258-3.715-3.948
		s-1.307-3.653-1.307-5.888c0-2.254,0.436-4.227,1.307-5.917c0.871-1.689,2.109-3.006,3.715-3.948s3.51-1.413,5.717-1.413
		s4.112,0.471,5.718,1.413c1.604,0.942,2.843,2.259,3.714,3.948c0.871,1.69,1.307,3.663,1.307,5.917
		c0,2.234-0.436,4.197-1.307,5.888s-2.109,3.007-3.714,3.948C105.013,51.629,103.107,52.101,100.9,52.101z M100.93,47.413
		c1.003,0,1.842-0.287,2.514-0.859c0.672-0.573,1.182-1.356,1.527-2.352c0.346-0.994,0.518-2.126,0.518-3.395
		s-0.172-2.4-0.518-3.395c-0.346-0.995-0.855-1.78-1.527-2.358c-0.672-0.577-1.511-0.866-2.514-0.866
		c-1.014,0-1.863,0.289-2.551,0.866c-0.686,0.578-1.202,1.363-1.548,2.358c-0.346,0.994-0.519,2.126-0.519,3.395
		s0.173,2.4,0.519,3.395c0.346,0.995,0.862,1.778,1.548,2.352C99.066,47.126,99.916,47.413,100.93,47.413z"/>
	<path fill="#FFFFFF" d="M118.6,59.813c-0.768,0-1.484-0.06-2.152-0.178c-0.667-0.118-1.219-0.263-1.654-0.434l1.363-4.531
		c1.07,0.332,1.973,0.419,2.707,0.263c0.732-0.156,1.312-0.727,1.739-1.711l0.354-0.924l-7.826-22.442h6.363l4.518,16.022h0.227
		l4.561-16.022l6.406,0.028l-8.48,24.147c-0.407,1.165-0.959,2.181-1.654,3.047c-0.696,0.866-1.574,1.538-2.635,2.017
		S120.096,59.813,118.6,59.813z"/>
</g>
</svg>
